<svg width="65" height="65" viewBox="0 0 65 65" fill="none" xmlns="http://www.w3.org/2000/svg">
<g filter="url(#filter0_i_37_428)">
<path d="M5.17969 13.4915C5.17969 9.87588 6.97531 6.57307 8.40328 5.44775L26.1442 22.8393C25.3825 23.8549 23.7169 24.9335 21.7323 25.8537C20.6375 26.5199 19.5264 27.8057 20.3673 29.9649C25.1916 38.2951 33.3491 44.0415 35.4433 44.4843C36.9525 44.8052 38.2525 44.1999 39.1259 42.0407C40.0928 40.1049 41.2202 38.7399 41.8884 38.1367L59.8183 55.9263C58.762 57.3238 55.8838 59.8304 50.5517 59.5277C39.9831 59.3063 27.1598 55.6887 16.8452 44.4843C5.92719 32.1709 5.18172 18.0618 5.18172 13.4915" fill="url(#paint0_linear_37_428)"/>
<path d="M5.17969 13.4915C5.17969 9.87588 6.97531 6.57307 8.40328 5.44775L26.1442 22.8393C25.3825 23.8549 23.7169 24.9335 21.7323 25.8537C20.6375 26.5199 19.5264 27.8057 20.3673 29.9649C25.1916 38.2951 33.3491 44.0415 35.4433 44.4843C36.9525 44.8052 38.2525 44.1999 39.1259 42.0407C40.0928 40.1049 41.2202 38.7399 41.8884 38.1367L59.8183 55.9263C58.762 57.3238 55.8838 59.8304 50.5517 59.5277C39.9831 59.3063 27.1598 55.6887 16.8452 44.4843C5.92719 32.1709 5.18172 18.0618 5.18172 13.4915" fill="url(#paint1_radial_37_428)"/>
</g>
<g filter="url(#filter1_f_37_428)">
<path d="M9.0939 6.47154C9.14875 6.42279 9.20359 6.37811 9.2564 6.33545L25.478 22.232C23.2652 23.6367 20.645 24.2577 18.0372 23.9955C15.4294 23.7334 12.9852 22.6032 11.0963 20.7863C9.20748 18.9693 7.98338 16.5707 7.62029 13.9751C7.25719 11.3795 7.77613 8.73708 9.0939 6.47154Z" fill="url(#paint2_radial_37_428)"/>
</g>
<g filter="url(#filter2_f_37_428)">
<path d="M42.2683 40.0421C42.5384 39.715 42.7863 39.4571 42.9874 39.2722L59.3125 55.636C59.2586 55.7083 59.2031 55.7794 59.146 55.8493C57.0057 57.5569 54.348 58.4853 51.61 58.4818C44.8927 58.4818 39.4449 52.9913 39.4449 46.2211C39.4449 43.6739 40.952 42.0002 42.2683 40.0421Z" fill="url(#paint3_radial_37_428)"/>
<path d="M42.2683 40.0421C42.5384 39.715 42.7863 39.4571 42.9874 39.2722L59.3125 55.636C59.2586 55.7083 59.2031 55.7794 59.146 55.8493C57.0057 57.5569 54.348 58.4853 51.61 58.4818C44.8927 58.4818 39.4449 52.9913 39.4449 46.2211C39.4449 43.6739 40.952 42.0002 42.2683 40.0421Z" fill="url(#paint4_radial_37_428)"/>
<path d="M42.2683 40.0421C42.5384 39.715 42.7863 39.4571 42.9874 39.2722L59.3125 55.636C59.2586 55.7083 59.2031 55.7794 59.146 55.8493C57.0057 57.5569 54.348 58.4853 51.61 58.4818C44.8927 58.4818 39.4449 52.9913 39.4449 46.2211C39.4449 43.6739 40.952 42.0002 42.2683 40.0421Z" fill="url(#paint5_radial_37_428)"/>
</g>
<g filter="url(#filter3_i_37_428)">
<path d="M9.20564 4.10304C9.53572 3.77292 9.92761 3.51105 10.3589 3.33239C10.7902 3.15372 11.2525 3.06177 11.7193 3.06177C12.1861 3.06177 12.6484 3.15372 13.0797 3.33239C13.511 3.51105 13.9029 3.77292 14.233 4.10304L27.3609 17.231C27.6911 17.5611 27.9529 17.953 28.1316 18.3843C28.3103 18.8156 28.4022 19.2778 28.4022 19.7447C28.4022 20.2115 28.3103 20.6738 28.1316 21.1051C27.9529 21.5364 27.6911 21.9283 27.3609 22.2584L26.3859 23.2334C26.3105 23.3089 26.2209 23.3688 26.1222 23.4097C26.0236 23.4506 25.9179 23.4716 25.8111 23.4716C25.7043 23.4716 25.5986 23.4506 25.5 23.4097C25.4013 23.3688 25.3117 23.3089 25.2363 23.2334L8.23064 6.22773C8.15509 6.15227 8.09516 6.06266 8.05427 5.96402C8.01339 5.86539 7.99234 5.75966 7.99234 5.65288C7.99234 5.54611 8.01339 5.44038 8.05427 5.34174C8.09516 5.24311 8.15509 5.1535 8.23064 5.07804L9.20564 4.10304Z" fill="url(#paint6_radial_37_428)"/>
<path d="M9.20564 4.10304C9.53572 3.77292 9.92761 3.51105 10.3589 3.33239C10.7902 3.15372 11.2525 3.06177 11.7193 3.06177C12.1861 3.06177 12.6484 3.15372 13.0797 3.33239C13.511 3.51105 13.9029 3.77292 14.233 4.10304L27.3609 17.231C27.6911 17.5611 27.9529 17.953 28.1316 18.3843C28.3103 18.8156 28.4022 19.2778 28.4022 19.7447C28.4022 20.2115 28.3103 20.6738 28.1316 21.1051C27.9529 21.5364 27.6911 21.9283 27.3609 22.2584L26.3859 23.2334C26.3105 23.3089 26.2209 23.3688 26.1222 23.4097C26.0236 23.4506 25.9179 23.4716 25.8111 23.4716C25.7043 23.4716 25.5986 23.4506 25.5 23.4097C25.4013 23.3688 25.3117 23.3089 25.2363 23.2334L8.23064 6.22773C8.15509 6.15227 8.09516 6.06266 8.05427 5.96402C8.01339 5.86539 7.99234 5.75966 7.99234 5.65288C7.99234 5.54611 8.01339 5.44038 8.05427 5.34174C8.09516 5.24311 8.15509 5.1535 8.23064 5.07804L9.20564 4.10304Z" fill="url(#paint7_radial_37_428)"/>
<path d="M9.20564 4.10304C9.53572 3.77292 9.92761 3.51105 10.3589 3.33239C10.7902 3.15372 11.2525 3.06177 11.7193 3.06177C12.1861 3.06177 12.6484 3.15372 13.0797 3.33239C13.511 3.51105 13.9029 3.77292 14.233 4.10304L27.3609 17.231C27.6911 17.5611 27.9529 17.953 28.1316 18.3843C28.3103 18.8156 28.4022 19.2778 28.4022 19.7447C28.4022 20.2115 28.3103 20.6738 28.1316 21.1051C27.9529 21.5364 27.6911 21.9283 27.3609 22.2584L26.3859 23.2334C26.3105 23.3089 26.2209 23.3688 26.1222 23.4097C26.0236 23.4506 25.9179 23.4716 25.8111 23.4716C25.7043 23.4716 25.5986 23.4506 25.5 23.4097C25.4013 23.3688 25.3117 23.3089 25.2363 23.2334L8.23064 6.22773C8.15509 6.15227 8.09516 6.06266 8.05427 5.96402C8.01339 5.86539 7.99234 5.75966 7.99234 5.65288C7.99234 5.54611 8.01339 5.44038 8.05427 5.34174C8.09516 5.24311 8.15509 5.1535 8.23064 5.07804L9.20564 4.10304Z" fill="url(#paint8_radial_37_428)"/>
</g>
<g filter="url(#filter4_i_37_428)">
<path d="M42.3353 37.3119C43.7226 35.9245 45.8169 35.9956 47.3606 37.3119C49.2984 38.9612 59.3897 49.0545 60.6694 50.6186C61.9491 52.1827 62.0567 54.2586 60.6694 55.6459L59.6944 56.6209C59.6189 56.6965 59.5293 56.7564 59.4307 56.7973C59.332 56.8382 59.2263 56.8592 59.1195 56.8592C59.0127 56.8592 58.907 56.8382 58.8084 56.7973C58.7097 56.7564 58.6201 56.6965 58.5447 56.6209L41.3603 39.4366C41.2848 39.3611 41.2248 39.2715 41.1839 39.1729C41.1431 39.0742 41.122 38.9685 41.122 38.8617C41.122 38.7549 41.1431 38.6492 41.1839 38.5506C41.2248 38.4519 41.2848 38.3623 41.3603 38.2869L42.3353 37.3119Z" fill="url(#paint9_radial_37_428)"/>
<path d="M42.3353 37.3119C43.7226 35.9245 45.8169 35.9956 47.3606 37.3119C49.2984 38.9612 59.3897 49.0545 60.6694 50.6186C61.9491 52.1827 62.0567 54.2586 60.6694 55.6459L59.6944 56.6209C59.6189 56.6965 59.5293 56.7564 59.4307 56.7973C59.332 56.8382 59.2263 56.8592 59.1195 56.8592C59.0127 56.8592 58.907 56.8382 58.8084 56.7973C58.7097 56.7564 58.6201 56.6965 58.5447 56.6209L41.3603 39.4366C41.2848 39.3611 41.2248 39.2715 41.1839 39.1729C41.1431 39.0742 41.122 38.9685 41.122 38.8617C41.122 38.7549 41.1431 38.6492 41.1839 38.5506C41.2248 38.4519 41.2848 38.3623 41.3603 38.2869L42.3353 37.3119Z" fill="url(#paint10_radial_37_428)"/>
</g>
<g filter="url(#filter5_f_37_428)">
<path d="M21.7953 41.2952C15.3197 35.1933 13.9466 29.4043 13.1625 26.6946H17.4159C17.3753 27.5416 18.915 32.9549 22.8109 37.0418C31.0009 45.6279 37.3486 48.695 40.1416 49.6904C37.0947 49.4365 31.3808 50.3241 21.7953 41.2952Z" fill="url(#paint11_linear_37_428)"/>
</g>
<defs>
<filter id="filter0_i_37_428" x="5.17969" y="5.44775" width="55.6386" height="54.105" filterUnits="userSpaceOnUse" color-interpolation-filters="sRGB">
<feFlood flood-opacity="0" result="BackgroundImageFix"/>
<feBlend mode="normal" in="SourceGraphic" in2="BackgroundImageFix" result="shape"/>
<feColorMatrix in="SourceAlpha" type="matrix" values="0 0 0 0 0 0 0 0 0 0 0 0 0 0 0 0 0 0 127 0" result="hardAlpha"/>
<feOffset dx="1"/>
<feGaussianBlur stdDeviation="1"/>
<feComposite in2="hardAlpha" operator="arithmetic" k2="-1" k3="1"/>
<feColorMatrix type="matrix" values="0 0 0 0 0.827451 0 0 0 0 0.317647 0 0 0 0 0.313726 0 0 0 1 0"/>
<feBlend mode="normal" in2="shape" result="effect1_innerShadow_37_428"/>
</filter>
<filter id="filter1_f_37_428" x="6.50745" y="5.33545" width="19.9705" height="19.7188" filterUnits="userSpaceOnUse" color-interpolation-filters="sRGB">
<feFlood flood-opacity="0" result="BackgroundImageFix"/>
<feBlend mode="normal" in="SourceGraphic" in2="BackgroundImageFix" result="shape"/>
<feGaussianBlur stdDeviation="0.5" result="effect1_foregroundBlur_37_428"/>
</filter>
<filter id="filter2_f_37_428" x="38.4449" y="38.2722" width="21.8676" height="21.2095" filterUnits="userSpaceOnUse" color-interpolation-filters="sRGB">
<feFlood flood-opacity="0" result="BackgroundImageFix"/>
<feBlend mode="normal" in="SourceGraphic" in2="BackgroundImageFix" result="shape"/>
<feGaussianBlur stdDeviation="0.5" result="effect1_foregroundBlur_37_428"/>
</filter>
<filter id="filter3_i_37_428" x="7.99234" y="2.91177" width="20.5599" height="20.5599" filterUnits="userSpaceOnUse" color-interpolation-filters="sRGB">
<feFlood flood-opacity="0" result="BackgroundImageFix"/>
<feBlend mode="normal" in="SourceGraphic" in2="BackgroundImageFix" result="shape"/>
<feColorMatrix in="SourceAlpha" type="matrix" values="0 0 0 0 0 0 0 0 0 0 0 0 0 0 0 0 0 0 127 0" result="hardAlpha"/>
<feOffset dx="0.15" dy="-0.15"/>
<feGaussianBlur stdDeviation="0.4"/>
<feComposite in2="hardAlpha" operator="arithmetic" k2="-1" k3="1"/>
<feColorMatrix type="matrix" values="0 0 0 0 0.623529 0 0 0 0 0.321569 0 0 0 0 0.47451 0 0 0 1 0"/>
<feBlend mode="normal" in2="shape" result="effect1_innerShadow_37_428"/>
</filter>
<filter id="filter4_i_37_428" x="41.122" y="36.1479" width="20.6979" height="20.7113" filterUnits="userSpaceOnUse" color-interpolation-filters="sRGB">
<feFlood flood-opacity="0" result="BackgroundImageFix"/>
<feBlend mode="normal" in="SourceGraphic" in2="BackgroundImageFix" result="shape"/>
<feColorMatrix in="SourceAlpha" type="matrix" values="0 0 0 0 0 0 0 0 0 0 0 0 0 0 0 0 0 0 127 0" result="hardAlpha"/>
<feOffset dx="0.15" dy="-0.15"/>
<feGaussianBlur stdDeviation="0.4"/>
<feComposite in2="hardAlpha" operator="arithmetic" k2="-1" k3="1"/>
<feColorMatrix type="matrix" values="0 0 0 0 0.623529 0 0 0 0 0.321569 0 0 0 0 0.47451 0 0 0 1 0"/>
<feBlend mode="normal" in2="shape" result="effect1_innerShadow_37_428"/>
</filter>
<filter id="filter5_f_37_428" x="11.4125" y="24.9446" width="30.4791" height="26.4958" filterUnits="userSpaceOnUse" color-interpolation-filters="sRGB">
<feFlood flood-opacity="0" result="BackgroundImageFix"/>
<feBlend mode="normal" in="SourceGraphic" in2="BackgroundImageFix" result="shape"/>
<feGaussianBlur stdDeviation="0.875" result="effect1_foregroundBlur_37_428"/>
</filter>
<linearGradient id="paint0_linear_37_428" x1="-1.31016" y1="13.0629" x2="46.4242" y2="58.0043" gradientUnits="userSpaceOnUse">
<stop stop-color="#E12D3E"/>
<stop offset="1" stop-color="#E821A1"/>
</linearGradient>
<radialGradient id="paint1_radial_37_428" cx="0" cy="0" r="1" gradientUnits="userSpaceOnUse" gradientTransform="translate(44.6469 19.6645) rotate(92.8535) scale(40.8025 73.8894)">
<stop offset="0.792" stop-color="#D43EB0" stop-opacity="0"/>
<stop offset="1" stop-color="#D43EB0"/>
</radialGradient>
<radialGradient id="paint2_radial_37_428" cx="0" cy="0" r="1" gradientUnits="userSpaceOnUse" gradientTransform="translate(21.0478 17.7165) rotate(131.057) scale(6.93043 11.5465)">
<stop offset="0.2" stop-color="#F52958"/>
<stop offset="1" stop-color="#DB2148"/>
</radialGradient>
<radialGradient id="paint3_radial_37_428" cx="0" cy="0" r="1" gradientUnits="userSpaceOnUse" gradientTransform="translate(53.2127 48.8658) rotate(132.154) scale(9.35816 14.4133)">
<stop offset="0.293" stop-color="#FB29AB"/>
<stop offset="1" stop-color="#FB29AB" stop-opacity="0"/>
</radialGradient>
<radialGradient id="paint4_radial_37_428" cx="0" cy="0" r="1" gradientUnits="userSpaceOnUse" gradientTransform="translate(49.8895 45.0938) rotate(111.493) scale(12.9222 17.7724)">
<stop offset="0.581" stop-color="#D82BA8" stop-opacity="0"/>
<stop offset="0.945" stop-color="#D531AA"/>
</radialGradient>
<radialGradient id="paint5_radial_37_428" cx="0" cy="0" r="1" gradientUnits="userSpaceOnUse" gradientTransform="translate(42.2196 39.4333) rotate(114.776) scale(8.64626 5.62081)">
<stop stop-color="#CE4B6E"/>
<stop offset="1" stop-color="#CE4B6E" stop-opacity="0"/>
</radialGradient>
<radialGradient id="paint6_radial_37_428" cx="0" cy="0" r="1" gradientUnits="userSpaceOnUse" gradientTransform="translate(20.6984 10.1176) rotate(132.416) scale(7.85114 15.4725)">
<stop stop-color="#C8439B"/>
<stop offset="1" stop-color="#B73098"/>
</radialGradient>
<radialGradient id="paint7_radial_37_428" cx="0" cy="0" r="1" gradientUnits="userSpaceOnUse" gradientTransform="translate(21.5432 13.2695) rotate(137.661) scale(3.09152 13.3757)">
<stop offset="0.144" stop-color="#DD6CB6"/>
<stop offset="1" stop-color="#DB69B6" stop-opacity="0"/>
</radialGradient>
<radialGradient id="paint8_radial_37_428" cx="0" cy="0" r="1" gradientUnits="userSpaceOnUse" gradientTransform="translate(21.9863 9.7621) rotate(-171.232) scale(14.1587 23.7646)">
<stop offset="0.578" stop-color="#A35479" stop-opacity="0"/>
<stop offset="0.962" stop-color="#A35479"/>
</radialGradient>
<radialGradient id="paint9_radial_37_428" cx="0" cy="0" r="1" gradientUnits="userSpaceOnUse" gradientTransform="translate(53.9158 43.4041) rotate(132.397) scale(7.90786 15.5834)">
<stop stop-color="#BD3995"/>
<stop offset="1" stop-color="#AC3BA4"/>
</radialGradient>
<radialGradient id="paint10_radial_37_428" cx="0" cy="0" r="1" gradientUnits="userSpaceOnUse" gradientTransform="translate(53.6617 46.576) rotate(137.226) scale(3.08642 10.4125)">
<stop stop-color="#DB69B6"/>
<stop offset="1" stop-color="#DB69B6" stop-opacity="0"/>
</radialGradient>
<linearGradient id="paint11_linear_37_428" x1="15.3217" y1="26.5057" x2="30.81" y2="45.1038" gradientUnits="userSpaceOnUse">
<stop stop-color="#FF6670"/>
<stop offset="1" stop-color="#FF5693"/>
</linearGradient>
</defs>
</svg>
