<svg width="65" height="65" viewBox="0 0 65 65" fill="none" xmlns="http://www.w3.org/2000/svg">
<g filter="url(#filter0_i_37_413)">
<path d="M5.23046 10.8368L17.7755 7.25776C18.1393 7.15411 18.5248 7.15411 18.8886 7.25776L32.0044 10.9993C32.3688 11.1034 32.7551 11.1034 33.1195 10.9993L46.2109 7.25776C46.576 7.15334 46.963 7.15334 47.3281 7.25776L59.8305 10.8368C60.4398 10.9993 60.8664 11.5478 60.8664 12.1774V56.4993C60.8664 57.3931 60.0133 58.0634 59.1398 57.8399L47.3789 54.0151C46.9943 53.8906 46.5813 53.8835 46.1926 53.9948L33.1317 57.7201C32.7666 57.8245 32.3796 57.8245 32.0145 57.7201L18.9272 53.9704C18.5379 53.8584 18.1241 53.8655 17.7389 53.9907L5.89874 57.842C5.69449 57.8931 5.48129 57.8971 5.27525 57.8537C5.06922 57.8103 4.87574 57.7207 4.70944 57.5915C4.54313 57.4624 4.40835 57.2972 4.31528 57.1083C4.2222 56.9194 4.17327 56.7119 4.17218 56.5014V12.1774C4.17218 11.5478 4.61906 10.9993 5.22843 10.8368" fill="url(#paint0_linear_37_413)"/>
</g>
<g filter="url(#filter1_ii_37_413)">
<path d="M5.23046 10.8368L17.7755 7.25776C18.1393 7.15411 18.5248 7.15411 18.8886 7.25776L32.0044 10.9993C32.3688 11.1034 32.7551 11.1034 33.1195 10.9993L46.2109 7.25776C46.576 7.15334 46.963 7.15334 47.3281 7.25776L59.8305 10.8368C60.4398 10.9993 60.8664 11.5478 60.8664 12.1774V56.4993C60.8664 57.3931 60.0133 58.0634 59.1398 57.8399L47.3789 54.0151C46.9943 53.8906 46.5813 53.8835 46.1926 53.9948L33.1317 57.7201C32.7666 57.8245 32.3796 57.8245 32.0145 57.7201L18.9272 53.9704C18.5379 53.8584 18.1241 53.8655 17.7389 53.9907L5.89874 57.842C5.69449 57.8931 5.48129 57.8971 5.27525 57.8537C5.06922 57.8103 4.87574 57.7207 4.70944 57.5915C4.54313 57.4624 4.40835 57.2972 4.31528 57.1083C4.2222 56.9194 4.17327 56.7119 4.17218 56.5014V12.1774C4.17218 11.5478 4.61906 10.9993 5.22843 10.8368" fill="url(#paint1_linear_37_413)"/>
</g>
<path d="M8.13515 13.8836L17.548 11.4156C18.0749 11.2782 18.629 11.2845 19.1526 11.4339L31.6611 14.9866C32.203 15.1398 32.7767 15.1398 33.3186 14.9866L45.9672 11.4258C46.4927 11.2777 47.0483 11.2735 47.5759 11.4136L56.8648 13.8816C57.4742 14.0441 57.9008 14.5925 57.9008 15.2222V52.1341C57.9008 52.581 57.6692 53.1822 56.9542 52.9913L47.6145 50.0196C47.0441 49.8384 46.4331 49.8292 45.8575 49.9931L33.3267 53.558C32.7795 53.7136 32.1998 53.7129 31.653 53.556L19.2177 49.9891C18.6473 49.8253 18.0416 49.8317 17.4748 50.0074L8.45202 52.8044C7.76952 52.971 7.09921 52.6074 7.09921 51.6933V15.2242C7.09921 14.5946 7.52578 14.0461 8.13515 13.8836Z" fill="url(#paint2_linear_37_413)"/>
<path d="M30.2758 31.6979L29.1992 32.7744C28.732 33.2416 28.4883 33.851 28.4883 34.501C28.4883 35.151 28.7523 35.7807 29.1992 36.2275L30.2758 37.3041C30.3525 37.3823 30.4442 37.4443 30.5454 37.4862C30.6466 37.5281 30.7553 37.549 30.8648 37.5479H31.7383C32.1852 37.5479 32.5508 37.9135 32.5508 38.3604V42.8088C32.5508 43.2557 32.9164 43.6213 33.3633 43.6213H34.2367C34.3463 43.6225 34.4549 43.6015 34.5562 43.5596C34.6574 43.5177 34.7491 43.4558 34.8258 43.3775L35.6586 42.5447C36.268 41.9354 36.6133 41.1025 36.6133 40.2291V37.7104C36.6133 37.5885 36.6336 37.4666 36.6945 37.3447L38.543 33.6275C38.6039 33.5057 38.6242 33.3838 38.6242 33.2619V32.2463C38.6242 31.7994 38.9898 31.4338 39.4367 31.4338H39.8227C40.2695 31.4338 40.6352 31.7994 40.6352 32.2463V32.6322C40.6352 33.0791 41.0008 33.4447 41.4477 33.4447H41.8336C42.2805 33.4447 42.6461 33.0791 42.6461 32.6322V32.2463C42.6461 31.7994 43.0117 31.4338 43.4586 31.4338H43.8445C44.2914 31.4338 44.657 31.7994 44.657 32.2463V32.6322C44.657 33.0791 45.0227 33.4447 45.4695 33.4447H47.7445C48.0695 33.4447 48.3742 33.2416 48.4961 32.9369L50.2836 28.4885C50.3334 28.3653 50.3523 28.2317 50.3385 28.0995C50.3247 27.9673 50.2787 27.8405 50.2045 27.7303C50.1304 27.62 50.0302 27.5296 49.913 27.467C49.7957 27.4044 49.6649 27.3716 49.532 27.3713C49.0852 27.3713 48.7195 27.0057 48.7195 26.5588V24.1416C48.7195 23.6947 49.0852 23.3291 49.532 23.3291H49.918C50.3648 23.3291 50.7305 23.6947 50.7305 24.1416V24.3447C50.7305 24.9135 51.1773 25.3604 51.7461 25.3604C52.3148 25.3604 52.7617 24.9135 52.7617 24.3447V20.4041C52.7617 18.6572 51.3398 17.2557 49.6133 17.2557H49.532C49.0852 17.2557 48.7195 17.6213 48.7195 18.0682V18.4541C48.7195 18.901 48.3539 19.2666 47.907 19.2666H45.4898C45.043 19.2666 44.6773 18.901 44.6773 18.4541C44.6773 17.7838 44.1289 17.2354 43.4586 17.2354H42.6461C41.5289 17.2354 40.6148 18.1494 40.6148 19.2666V19.3275C40.6148 19.551 40.5133 19.7744 40.3508 19.9369L36.7961 23.126C36.6539 23.2682 36.4508 23.3291 36.2477 23.3291H33.3227C32.8758 23.3291 32.5102 23.6947 32.5102 24.1416V24.5275C32.5102 24.9744 32.1445 25.34 31.6977 25.34H31.3117C30.8648 25.34 30.4992 25.7057 30.4992 26.1525V28.5697C30.4992 29.0166 30.8648 29.3822 31.3117 29.3822H31.6977C32.1445 29.3822 32.5102 29.7479 32.5102 30.1947V30.5807C32.5102 31.0275 32.1445 31.3932 31.6977 31.3932H30.8242C30.6414 31.4744 30.4383 31.5557 30.2758 31.6979Z" fill="url(#paint3_linear_37_413)"/>
<path d="M21.3789 45.6728C21.9477 45.6728 22.3945 45.2259 22.3945 44.6571V42.3415C22.3945 41.8946 22.6383 41.4884 23.0445 41.2853L25.543 40.0259C26.0914 39.7415 26.457 39.1728 26.457 38.5634C26.457 37.9337 26.1117 37.3649 25.543 37.1009L23.1664 35.9228C22.6586 35.6587 22.0898 35.5368 21.5211 35.5368H20.6273C20.5445 35.5372 20.4624 35.5213 20.3857 35.4899C20.309 35.4586 20.2393 35.4124 20.1805 35.354L16.4836 31.6571C16.4252 31.5983 16.379 31.5286 16.3477 31.4519C16.3163 31.3752 16.3004 31.2931 16.3008 31.2103V30.0728C16.3008 29.7274 16.5852 29.4431 16.9305 29.4431H17.7023C18.0477 29.4431 18.332 29.7274 18.332 30.0728V30.4587C18.332 31.0274 18.7789 31.4743 19.3477 31.4743C19.9164 31.4743 20.3633 31.0274 20.3633 30.4587V30.0728C20.3633 29.7274 20.6477 29.4431 20.993 29.4431C21.8867 29.4431 22.7602 29.0774 23.3898 28.4478L23.9789 27.8587C24.2227 27.6149 24.2227 27.2087 23.9789 26.9649L22.5773 25.5634C22.519 25.5046 22.4728 25.4348 22.4414 25.3582C22.41 25.2815 22.3941 25.1994 22.3945 25.1165V24.3649C22.3945 23.7962 21.9477 23.3493 21.3789 23.3493C20.8102 23.3493 20.3633 23.7962 20.3633 24.3649C20.3633 24.9337 19.9164 25.3806 19.3477 25.3806C18.7789 25.3806 18.332 24.9337 18.332 24.3649V23.979C18.332 23.6337 18.6164 23.3493 18.9617 23.3493C19.3273 23.3493 19.6117 23.0446 19.5914 22.6993L19.5508 21.9884C19.5305 21.6228 19.8148 21.3384 20.1805 21.3384H21.7648C22.1102 21.3384 22.3945 21.054 22.3945 20.7087V20.3228C22.3945 19.754 22.8414 19.3071 23.4102 19.3071C23.9789 19.3071 24.4258 19.754 24.4258 20.3228V24.3853C24.4258 24.954 24.8727 25.4009 25.4414 25.4009C26.0102 25.4009 26.457 24.954 26.457 24.3853V23.6337C26.457 23.4712 26.518 23.3087 26.6398 23.1868L27.4727 22.354C28.1227 21.704 28.4883 20.8306 28.4883 19.9165C28.4883 18.454 27.3102 17.2759 25.8477 17.2759H22.5977C21.1758 17.2759 19.8148 17.8649 18.8398 18.9009L17.5805 20.2618C16.9508 20.9524 16.057 21.3384 15.1227 21.3384H14.9195C14.5742 21.3384 14.2898 21.054 14.2898 20.7087C14.2898 19.9368 13.6602 19.3071 12.8883 19.3071H11.6289C10.857 19.3071 10.2273 19.9368 10.2273 20.7087V21.4603C10.2273 22.679 9.73985 23.8571 8.88672 24.7103L8.39922 25.1978C8.34085 25.2566 8.29465 25.3263 8.26328 25.403C8.23191 25.4797 8.21598 25.5618 8.21641 25.6446V25.9087C8.21641 26.4774 8.88672 26.7415 9.29297 26.3556L11.8523 23.7962C12.1164 23.5321 12.482 23.3696 12.868 23.3696C13.6602 23.3696 12.2789 24.0196 12.2789 24.8118V29.6056C12.2789 30.8243 14.7977 31.9821 15.6508 32.8353L18.1898 35.3743C18.3117 35.4962 18.3727 35.6587 18.3727 35.8212V38.0962C18.3727 39.0712 18.7586 40.0259 19.4492 40.7165L20.2211 41.4884C20.343 41.6103 20.4039 41.7728 20.4039 41.9353V44.7181C20.3633 45.2259 20.8305 45.6728 21.3789 45.6728Z" fill="url(#paint4_linear_37_413)"/>
<path d="M44.7383 36.1461V36.5727C44.7383 37.2024 44.9617 37.8118 45.3477 38.2993L45.7742 38.8071C46.3836 39.5586 47.3789 39.904 48.3133 39.6805C48.4512 39.6485 48.5744 39.571 48.6628 39.4605C48.7513 39.3499 48.7999 39.2127 48.8008 39.0711V38.3196C48.8008 37.9946 49.0445 37.7305 49.3492 37.6899L49.6539 37.6493C50.2836 37.5883 50.832 38.0758 50.832 38.7055C50.832 39.193 51.1773 39.6399 51.6648 39.7415L52.1117 39.843C52.4977 39.9243 52.8633 39.6399 52.8633 39.2336V37.5274C52.8633 36.4102 51.9492 35.4961 50.832 35.4961H49.0852C48.9023 35.4961 48.7398 35.5774 48.618 35.6993L47.8664 36.5321C47.7808 36.6268 47.6685 36.6932 47.5443 36.7226C47.4201 36.7521 47.2899 36.743 47.171 36.6968C47.052 36.6505 46.9499 36.5692 46.8782 36.4636C46.8066 36.358 46.7686 36.2331 46.7695 36.1055C46.7695 35.7602 46.4852 35.4758 46.1398 35.4758H45.368C45.0227 35.5165 44.7383 35.8008 44.7383 36.1461Z" fill="url(#paint5_linear_37_413)"/>
<path d="M46.7695 43.3166V44.6775C46.7695 45.2463 47.2164 45.6932 47.7852 45.6932H51.8477C52.4164 45.6932 52.8633 45.2463 52.8633 44.6775V42.7479C52.8633 42.4462 52.7434 42.1568 52.5301 41.9435C52.3168 41.7302 52.0275 41.6104 51.7258 41.6104H48.4555C47.5211 41.6104 46.7695 42.3822 46.7695 43.3166Z" fill="url(#paint6_linear_37_413)"/>
<g filter="url(#filter2_f_37_413)">
<path d="M33.3775 11.826L46.4527 7.98486" stroke="#EAE4EE" stroke-width="0.15" stroke-linecap="round"/>
</g>
<g filter="url(#filter3_f_37_413)">
<path d="M5.47827 11.7122L17.9705 8.08643" stroke="#EAE4EE" stroke-width="0.15" stroke-linecap="round"/>
</g>
<defs>
<filter id="filter0_i_37_413" x="4.17218" y="6.92944" width="56.9442" height="50.9541" filterUnits="userSpaceOnUse" color-interpolation-filters="sRGB">
<feFlood flood-opacity="0" result="BackgroundImageFix"/>
<feBlend mode="normal" in="SourceGraphic" in2="BackgroundImageFix" result="shape"/>
<feColorMatrix in="SourceAlpha" type="matrix" values="0 0 0 0 0 0 0 0 0 0 0 0 0 0 0 0 0 0 127 0" result="hardAlpha"/>
<feOffset dx="0.25" dy="-0.25"/>
<feGaussianBlur stdDeviation="0.25"/>
<feComposite in2="hardAlpha" operator="arithmetic" k2="-1" k3="1"/>
<feColorMatrix type="matrix" values="0 0 0 0 0.611765 0 0 0 0 0.564706 0 0 0 0 0.635294 0 0 0 1 0"/>
<feBlend mode="normal" in2="shape" result="effect1_innerShadow_37_413"/>
</filter>
<filter id="filter1_ii_37_413" x="4.17218" y="7.02944" width="56.6942" height="51.0041" filterUnits="userSpaceOnUse" color-interpolation-filters="sRGB">
<feFlood flood-opacity="0" result="BackgroundImageFix"/>
<feBlend mode="normal" in="SourceGraphic" in2="BackgroundImageFix" result="shape"/>
<feColorMatrix in="SourceAlpha" type="matrix" values="0 0 0 0 0 0 0 0 0 0 0 0 0 0 0 0 0 0 127 0" result="hardAlpha"/>
<feOffset dy="-0.15"/>
<feGaussianBlur stdDeviation="0.25"/>
<feComposite in2="hardAlpha" operator="arithmetic" k2="-1" k3="1"/>
<feColorMatrix type="matrix" values="0 0 0 0 0.67451 0 0 0 0 0.513726 0 0 0 0 0.784314 0 0 0 1 0"/>
<feBlend mode="normal" in2="shape" result="effect1_innerShadow_37_413"/>
<feColorMatrix in="SourceAlpha" type="matrix" values="0 0 0 0 0 0 0 0 0 0 0 0 0 0 0 0 0 0 127 0" result="hardAlpha"/>
<feOffset dy="0.15"/>
<feGaussianBlur stdDeviation="0.075"/>
<feComposite in2="hardAlpha" operator="arithmetic" k2="-1" k3="1"/>
<feColorMatrix type="matrix" values="0 0 0 0 0.8 0 0 0 0 0.8 0 0 0 0 0.8 0 0 0 1 0"/>
<feBlend mode="normal" in2="effect1_innerShadow_37_413" result="effect2_innerShadow_37_413"/>
</filter>
<filter id="filter2_f_37_413" x="33.1025" y="7.70991" width="13.6252" height="4.39097" filterUnits="userSpaceOnUse" color-interpolation-filters="sRGB">
<feFlood flood-opacity="0" result="BackgroundImageFix"/>
<feBlend mode="normal" in="SourceGraphic" in2="BackgroundImageFix" result="shape"/>
<feGaussianBlur stdDeviation="0.1" result="effect1_foregroundBlur_37_413"/>
</filter>
<filter id="filter3_f_37_413" x="5.20326" y="7.81147" width="13.0422" height="4.17563" filterUnits="userSpaceOnUse" color-interpolation-filters="sRGB">
<feFlood flood-opacity="0" result="BackgroundImageFix"/>
<feBlend mode="normal" in="SourceGraphic" in2="BackgroundImageFix" result="shape"/>
<feGaussianBlur stdDeviation="0.1" result="effect1_foregroundBlur_37_413"/>
</filter>
<linearGradient id="paint0_linear_37_413" x1="60.8664" y1="31.4418" x2="4.17421" y2="31.4418" gradientUnits="userSpaceOnUse">
<stop stop-color="#BFB1CA"/>
<stop offset="0.238" stop-color="#C3B5CD"/>
<stop offset="0.257" stop-color="#DED3E5"/>
<stop offset="0.488" stop-color="#EBE1F1"/>
<stop offset="0.508" stop-color="#C5B9CD"/>
<stop offset="0.741" stop-color="#C7BCCE"/>
<stop offset="0.76" stop-color="#EFE3F3"/>
<stop offset="1" stop-color="#E3D7E9"/>
</linearGradient>
<linearGradient id="paint1_linear_37_413" x1="27.2005" y1="98.4853" x2="27.2005" y2="5.88057" gradientUnits="userSpaceOnUse">
<stop stop-color="#C5B2D4"/>
<stop offset="1" stop-color="#C5B2D4" stop-opacity="0"/>
</linearGradient>
<linearGradient id="paint2_linear_37_413" x1="57.9008" y1="32.5" x2="7.10124" y2="32.7458" gradientUnits="userSpaceOnUse">
<stop stop-color="#257AC5"/>
<stop offset="0.206" stop-color="#237BC8"/>
<stop offset="0.225" stop-color="#4190DB"/>
<stop offset="0.485" stop-color="#49A5F1"/>
<stop offset="0.509" stop-color="#2484D0"/>
<stop offset="0.764" stop-color="#2488D4"/>
<stop offset="0.788" stop-color="#4AA6F6"/>
<stop offset="1" stop-color="#4BABFC"/>
</linearGradient>
<linearGradient id="paint3_linear_37_413" x1="28.4923" y1="30.4486" x2="52.8613" y2="30.4486" gradientUnits="userSpaceOnUse">
<stop stop-color="#46BF86"/>
<stop offset="0.142" stop-color="#46BF86"/>
<stop offset="0.19" stop-color="#5CE09B"/>
<stop offset="0.717" stop-color="#50CC8C"/>
<stop offset="0.777" stop-color="#43BE81"/>
</linearGradient>
<linearGradient id="paint4_linear_37_413" x1="8.18391" y1="31.4642" x2="28.4923" y2="31.4642" gradientUnits="userSpaceOnUse">
<stop stop-color="#61E7A1"/>
<stop offset="0.481" stop-color="#61E7A1"/>
<stop offset="0.534" stop-color="#46C687"/>
<stop offset="1" stop-color="#46C687"/>
</linearGradient>
<linearGradient id="paint5_linear_37_413" x1="44.7383" y1="37.7061" x2="52.8612" y2="37.7061" gradientUnits="userSpaceOnUse">
<stop stop-color="#4EC88C"/>
<stop offset="0.32" stop-color="#4EC88C"/>
<stop offset="0.441" stop-color="#42B483"/>
<stop offset="1" stop-color="#45B683"/>
</linearGradient>
<linearGradient id="paint6_linear_37_413" x1="46.7695" y1="43.6497" x2="52.8613" y2="43.6497" gradientUnits="userSpaceOnUse">
<stop stop-color="#4BBD8E"/>
<stop offset="0.062" stop-color="#4BBD8E"/>
<stop offset="0.119" stop-color="#43B385"/>
</linearGradient>
</defs>
</svg>
