<svg width="55" height="55" viewBox="0 0 55 55" fill="none" xmlns="http://www.w3.org/2000/svg">
<g clip-path="url(#clip0_37_473)">
<path d="M1.1737 27.1708C1.17241 31.7918 2.38928 36.304 4.70315 40.281L0.952408 53.8694L14.9671 50.2232C18.8434 52.317 23.1865 53.4142 27.5999 53.4145H27.6115C42.1811 53.4145 54.0412 41.6507 54.0474 27.1914C54.0502 20.1849 51.3028 13.5964 46.3111 8.63959C41.3203 3.6832 34.6827 0.952172 27.6104 0.948975C13.0391 0.948975 1.17993 12.7122 1.17391 27.1708" fill="url(#paint0_linear_37_473)"/>
<path d="M0.229883 27.1623C0.228379 31.9497 1.48887 36.6232 3.88523 40.7426L0 54.8182L14.5172 51.0413C18.5172 53.2053 23.0207 54.3462 27.6033 54.3479H27.6152C42.7075 54.3479 54.9936 42.1609 55 27.1841C55.0026 19.9258 52.1563 13.1004 46.9863 7.96605C41.8157 2.83229 34.9407 0.0029845 27.6152 0C12.5202 0 0.235898 12.1853 0.229883 27.1623ZM8.87541 40.0332L8.33336 39.1794C6.05473 35.5844 4.85203 31.4299 4.85375 27.164C4.85848 14.7155 15.0687 4.5876 27.6238 4.5876C33.7038 4.59016 39.4178 6.94194 43.7155 11.2089C48.0131 15.4763 50.3779 21.149 50.3764 27.1824C50.3708 39.6309 40.1603 49.7601 27.6152 49.7601H27.6061C23.5213 49.7579 19.5151 48.6695 16.0213 46.6125L15.1899 46.1233L6.57508 48.3644L8.87541 40.0332Z" fill="url(#paint1_linear_37_473)"/>
<path d="M20.7707 15.8068C20.2581 14.6764 19.7186 14.6535 19.2311 14.6337C18.8319 14.6167 18.3756 14.6179 17.9197 14.6179C17.4634 14.6179 16.7219 14.7883 16.0952 15.4672C15.4679 16.1469 13.7002 17.7892 13.7002 21.1295C13.7002 24.4698 16.1522 27.6981 16.494 28.1516C16.8362 28.6041 21.2276 35.6783 28.1826 38.3997C33.9627 40.6613 35.139 40.2115 36.3935 40.0981C37.6482 39.9851 40.442 38.4562 41.012 36.8708C41.5824 35.2856 41.5824 33.9268 41.4114 33.6428C41.2403 33.3599 40.784 33.19 40.0997 32.8507C39.4155 32.5113 36.0512 30.8685 35.4241 30.6419C34.7967 30.4155 34.3406 30.3025 33.8843 30.9824C33.428 31.6611 32.1176 33.19 31.7183 33.6428C31.3193 34.0967 30.9199 34.1532 30.2358 33.8136C29.5511 33.4729 27.3475 32.7569 24.733 30.4441C22.6989 28.6444 21.3256 26.422 20.9264 25.7422C20.5273 25.0635 20.8837 24.6955 21.2268 24.3572C21.5342 24.053 21.9113 23.5644 22.2537 23.1681C22.5949 22.7716 22.7088 22.4887 22.9369 22.0359C23.1653 21.5827 23.051 21.1862 22.8802 20.8466C22.7088 20.507 21.3791 17.1492 20.7707 15.8068Z" fill="white"/>
</g>
<defs>
<linearGradient id="paint0_linear_37_473" x1="2655.7" y1="5292.99" x2="2655.7" y2="0.948975" gradientUnits="userSpaceOnUse">
<stop stop-color="#1FAF38"/>
<stop offset="1" stop-color="#60D669"/>
</linearGradient>
<linearGradient id="paint1_linear_37_473" x1="2750" y1="5481.82" x2="2750" y2="0" gradientUnits="userSpaceOnUse">
<stop stop-color="#F9F9F9"/>
<stop offset="1" stop-color="white"/>
</linearGradient>
<clipPath id="clip0_37_473">
<rect width="55" height="55" fill="white"/>
</clipPath>
</defs>
</svg>
