<svg width="65" height="65" viewBox="0 0 65 65" fill="none" xmlns="http://www.w3.org/2000/svg">
<path d="M57.1937 12.2505H7.80797C5.84477 12.2505 4.25328 13.842 4.25328 15.8052V49.1949C4.25328 51.1581 5.84477 52.7495 7.80797 52.7495H57.1937C59.1569 52.7495 60.7484 51.1581 60.7484 49.1949V15.8052C60.7484 13.842 59.1569 12.2505 57.1937 12.2505Z" fill="url(#paint0_linear_37_448)"/>
<path d="M57.1937 12.2505H7.80797C5.84477 12.2505 4.25328 13.842 4.25328 15.8052V49.1949C4.25328 51.1581 5.84477 52.7495 7.80797 52.7495H57.1937C59.1569 52.7495 60.7484 51.1581 60.7484 49.1949V15.8052C60.7484 13.842 59.1569 12.2505 57.1937 12.2505Z" fill="url(#paint1_linear_37_448)"/>
<path d="M32.4998 12.2506V52.7517H7.80797C6.86521 52.7517 5.96106 52.3771 5.29442 51.7105C4.62779 51.0439 4.25328 50.1397 4.25328 49.197V15.8032C4.25328 13.841 5.84375 12.2485 7.80797 12.2485L32.4998 12.2506Z" fill="url(#paint2_linear_37_448)"/>
<path d="M32.4998 12.2506V52.7517H7.80797C6.86521 52.7517 5.96106 52.3771 5.29442 51.7105C4.62779 51.0439 4.25328 50.1397 4.25328 49.197V15.8032C4.25328 13.841 5.84375 12.2485 7.80797 12.2485L32.4998 12.2506Z" fill="url(#paint3_radial_37_448)"/>
<path d="M32.5 12.2506V52.7517H57.1919C58.1346 52.7517 59.0388 52.3771 59.7054 51.7105C60.372 51.0439 60.7466 50.1397 60.7466 49.197V15.8032C60.7466 14.8605 60.372 13.9563 59.7054 13.2897C59.0388 12.623 58.1346 12.2485 57.1919 12.2485L32.5 12.2506Z" fill="url(#paint4_linear_37_448)"/>
<path d="M32.5 12.2506V52.7517H57.1919C58.1346 52.7517 59.0388 52.3771 59.7054 51.7105C60.372 51.0439 60.7466 50.1397 60.7466 49.197V15.8032C60.7466 14.8605 60.372 13.9563 59.7054 13.2897C59.0388 12.623 58.1346 12.2485 57.1919 12.2485L32.5 12.2506Z" fill="url(#paint5_linear_37_448)"/>
<path d="M32.5 12.2506V52.7517H57.1919C58.1346 52.7517 59.0388 52.3771 59.7054 51.7105C60.372 51.0439 60.7466 50.1397 60.7466 49.197V15.8032C60.7466 14.8605 60.372 13.9563 59.7054 13.2897C59.0388 12.623 58.1346 12.2485 57.1919 12.2485L32.5 12.2506Z" fill="url(#paint6_linear_37_448)"/>
<path d="M32.5 12.2506V52.7517H57.1919C58.1346 52.7517 59.0388 52.3771 59.7054 51.7105C60.372 51.0439 60.7466 50.1397 60.7466 49.197V15.8032C60.7466 14.8605 60.372 13.9563 59.7054 13.2897C59.0388 12.623 58.1346 12.2485 57.1919 12.2485L32.5 12.2506Z" fill="url(#paint7_linear_37_448)"/>
<g filter="url(#filter0_i_37_448)">
<path d="M4.25344 49.1949C4.25308 48.9324 4.31967 48.6741 4.44692 48.4445C4.57416 48.2149 4.75785 48.0215 4.98062 47.8827L32.0531 30.9624C32.1823 30.8817 32.3315 30.8389 32.4837 30.8389C32.636 30.8389 32.7852 30.8817 32.9144 30.9624L60.0783 47.9863C60.4947 48.2463 60.7486 48.7033 60.7486 49.1949C60.7486 50.1376 60.3741 51.0418 59.7074 51.7084C59.0408 52.375 58.1367 52.7496 57.1939 52.7496H7.80609C6.86333 52.7496 5.95918 52.375 5.29255 51.7084C4.62591 51.0418 4.2514 50.1376 4.2514 49.1949" fill="url(#paint8_linear_37_448)"/>
</g>
<path d="M4.25344 49.1949C4.25308 48.9324 4.31967 48.6741 4.44692 48.4445C4.57416 48.2149 4.75785 48.0215 4.98062 47.8827L32.0531 30.9624C32.1823 30.8817 32.3315 30.8389 32.4837 30.8389C32.636 30.8389 32.7852 30.8817 32.9144 30.9624L60.0783 47.9863C60.4947 48.2463 60.7486 48.7033 60.7486 49.1949C60.7486 50.1376 60.3741 51.0418 59.7074 51.7084C59.0408 52.375 58.1367 52.7496 57.1939 52.7496H7.80609C6.86333 52.7496 5.95918 52.375 5.29255 51.7084C4.62591 51.0418 4.2514 50.1376 4.2514 49.1949" fill="url(#paint9_linear_37_448)"/>
<path d="M4.25344 49.1949C4.25308 48.9324 4.31967 48.6741 4.44692 48.4445C4.57416 48.2149 4.75785 48.0215 4.98062 47.8827L32.0531 30.9624C32.1823 30.8817 32.3315 30.8389 32.4837 30.8389C32.636 30.8389 32.7852 30.8817 32.9144 30.9624L60.0783 47.9863C60.4947 48.2463 60.7486 48.7033 60.7486 49.1949C60.7486 50.1376 60.3741 51.0418 59.7074 51.7084C59.0408 52.375 58.1367 52.7496 57.1939 52.7496H7.80609C6.86333 52.7496 5.95918 52.375 5.29255 51.7084C4.62591 51.0418 4.2514 50.1376 4.2514 49.1949" fill="url(#paint10_linear_37_448)"/>
<g filter="url(#filter1_ii_37_448)">
<path d="M4.25344 15.8052C4.25308 16.0677 4.31967 16.3259 4.44692 16.5555C4.57416 16.7851 4.75785 16.9785 4.98062 17.1174L32.0531 34.0377C32.1823 34.1184 32.3315 34.1612 32.4837 34.1612C32.636 34.1612 32.7852 34.1184 32.9144 34.0377L60.0783 17.0138C60.2833 16.8857 60.4524 16.7075 60.5696 16.4961C60.6869 16.2847 60.7485 16.0469 60.7486 15.8052C60.7486 14.8624 60.3741 13.9583 59.7074 13.2916C59.0408 12.625 58.1367 12.2505 57.1939 12.2505H7.80609C6.86333 12.2505 5.95918 12.625 5.29255 13.2916C4.62591 13.9583 4.2514 14.8624 4.2514 15.8052" fill="url(#paint11_linear_37_448)"/>
<path d="M4.25344 15.8052C4.25308 16.0677 4.31967 16.3259 4.44692 16.5555C4.57416 16.7851 4.75785 16.9785 4.98062 17.1174L32.0531 34.0377C32.1823 34.1184 32.3315 34.1612 32.4837 34.1612C32.636 34.1612 32.7852 34.1184 32.9144 34.0377L60.0783 17.0138C60.2833 16.8857 60.4524 16.7075 60.5696 16.4961C60.6869 16.2847 60.7485 16.0469 60.7486 15.8052C60.7486 14.8624 60.3741 13.9583 59.7074 13.2916C59.0408 12.625 58.1367 12.2505 57.1939 12.2505H7.80609C6.86333 12.2505 5.95918 12.625 5.29255 13.2916C4.62591 13.9583 4.2514 14.8624 4.2514 15.8052" fill="url(#paint12_linear_37_448)"/>
<path d="M4.25344 15.8052C4.25308 16.0677 4.31967 16.3259 4.44692 16.5555C4.57416 16.7851 4.75785 16.9785 4.98062 17.1174L32.0531 34.0377C32.1823 34.1184 32.3315 34.1612 32.4837 34.1612C32.636 34.1612 32.7852 34.1184 32.9144 34.0377L60.0783 17.0138C60.2833 16.8857 60.4524 16.7075 60.5696 16.4961C60.6869 16.2847 60.7485 16.0469 60.7486 15.8052C60.7486 14.8624 60.3741 13.9583 59.7074 13.2916C59.0408 12.625 58.1367 12.2505 57.1939 12.2505H7.80609C6.86333 12.2505 5.95918 12.625 5.29255 13.2916C4.62591 13.9583 4.2514 14.8624 4.2514 15.8052" fill="url(#paint13_linear_37_448)"/>
<path d="M4.25344 15.8052C4.25308 16.0677 4.31967 16.3259 4.44692 16.5555C4.57416 16.7851 4.75785 16.9785 4.98062 17.1174L32.0531 34.0377C32.1823 34.1184 32.3315 34.1612 32.4837 34.1612C32.636 34.1612 32.7852 34.1184 32.9144 34.0377L60.0783 17.0138C60.2833 16.8857 60.4524 16.7075 60.5696 16.4961C60.6869 16.2847 60.7485 16.0469 60.7486 15.8052C60.7486 14.8624 60.3741 13.9583 59.7074 13.2916C59.0408 12.625 58.1367 12.2505 57.1939 12.2505H7.80609C6.86333 12.2505 5.95918 12.625 5.29255 13.2916C4.62591 13.9583 4.2514 14.8624 4.2514 15.8052" fill="url(#paint14_radial_37_448)"/>
</g>
<g filter="url(#filter2_f_37_448)">
<path d="M31.137 47.6775C34.9081 47.6775 38.5247 46.1794 41.1912 43.5129C43.8577 40.8464 45.3558 37.2298 45.3558 33.4587C45.3558 29.6877 43.8577 26.0711 41.1912 23.4046C38.5247 20.738 34.9081 19.24 31.137 19.24C27.366 19.24 23.7494 20.738 21.0828 23.4046C18.4163 26.0711 16.9183 29.6877 16.9183 33.4587C16.9183 37.2298 18.4163 40.8464 21.0828 43.5129C23.7494 46.1794 27.366 47.6775 31.137 47.6775Z" fill="#C2A5D0"/>
</g>
<g filter="url(#filter3_iii_37_448)">
<path d="M32.4045 46.7188C36.1756 46.7188 39.7922 45.2207 42.4587 42.5542C45.1252 39.8876 46.6233 36.271 46.6233 32.5C46.6233 28.729 45.1252 25.1124 42.4587 22.4458C39.7922 19.7793 36.1756 18.2812 32.4045 18.2812C28.6335 18.2812 25.0169 19.7793 22.3504 22.4458C19.6838 25.1124 18.1858 28.729 18.1858 32.5C18.1858 36.271 19.6838 39.8876 22.3504 42.5542C25.0169 45.2207 28.6335 46.7188 32.4045 46.7188Z" fill="url(#paint15_linear_37_448)"/>
</g>
<g filter="url(#filter4_dii_37_448)">
<path d="M32.4045 23.3594C29.9467 23.3188 27.6108 24.2532 25.8639 26.0001C24.0967 27.7266 23.142 30.0422 23.142 32.5C23.142 37.5375 27.2452 41.6407 32.2827 41.6407C32.5359 41.6407 32.7787 41.5401 32.9577 41.3611C33.1368 41.182 33.2373 40.9392 33.2373 40.686C33.2373 40.4328 33.1368 40.19 32.9577 40.0109C32.7787 39.8319 32.5359 39.7313 32.2827 39.7313C28.3014 39.7313 25.0514 36.4813 25.0514 32.5C25.0514 30.5501 25.8233 28.7219 27.2045 27.361C28.5858 26.0001 30.4342 25.2688 32.3842 25.2688C36.3045 25.3297 39.5139 28.6204 39.5139 32.6219V34.2672C39.5139 34.6282 39.3705 34.9743 39.1153 35.2296C38.8601 35.4848 38.5139 35.6282 38.153 35.6282C37.792 35.6282 37.4459 35.4848 37.1906 35.2296C36.9354 34.9743 36.792 34.6282 36.792 34.2672V28.011C36.792 27.7578 36.6914 27.515 36.5124 27.3359C36.3334 27.1569 36.0905 27.0563 35.8373 27.0563C35.3092 27.0563 34.842 27.4829 34.842 28.011V28.1938C33.9483 27.4829 32.8311 27.036 31.592 27.036C28.7483 27.036 26.4327 29.3516 26.4327 32.1954C26.4327 35.0391 28.7483 37.3547 31.592 37.3547C33.0139 37.3547 34.3139 36.7657 35.2483 35.8313C35.817 36.8469 36.8936 37.5375 38.1327 37.5375C39.9405 37.5375 41.4233 36.0547 41.4233 34.2469V32.6016C41.4233 27.5844 37.3811 23.4204 32.4045 23.3594ZM31.6123 35.4657C29.8248 35.4657 28.3623 34.0032 28.3623 32.2157C28.3623 30.4282 29.8248 28.9657 31.6123 28.9657C33.3998 28.9657 34.8623 30.4282 34.8623 32.2157C34.8623 34.0032 33.3998 35.4657 31.6123 35.4657Z" fill="#E6E0ED"/>
</g>
<defs>
<filter id="filter0_i_37_448" x="4.2514" y="30.0889" width="56.4972" height="22.6606" filterUnits="userSpaceOnUse" color-interpolation-filters="sRGB">
<feFlood flood-opacity="0" result="BackgroundImageFix"/>
<feBlend mode="normal" in="SourceGraphic" in2="BackgroundImageFix" result="shape"/>
<feColorMatrix in="SourceAlpha" type="matrix" values="0 0 0 0 0 0 0 0 0 0 0 0 0 0 0 0 0 0 127 0" result="hardAlpha"/>
<feOffset dy="-0.75"/>
<feGaussianBlur stdDeviation="0.75"/>
<feComposite in2="hardAlpha" operator="arithmetic" k2="-1" k3="1"/>
<feColorMatrix type="matrix" values="0 0 0 0 0.819608 0 0 0 0 0.654902 0 0 0 0 0.933333 0 0 0 1 0"/>
<feBlend mode="normal" in2="shape" result="effect1_innerShadow_37_448"/>
</filter>
<filter id="filter1_ii_37_448" x="4.2514" y="12.1005" width="56.4972" height="22.3106" filterUnits="userSpaceOnUse" color-interpolation-filters="sRGB">
<feFlood flood-opacity="0" result="BackgroundImageFix"/>
<feBlend mode="normal" in="SourceGraphic" in2="BackgroundImageFix" result="shape"/>
<feColorMatrix in="SourceAlpha" type="matrix" values="0 0 0 0 0 0 0 0 0 0 0 0 0 0 0 0 0 0 127 0" result="hardAlpha"/>
<feOffset dy="-0.15"/>
<feGaussianBlur stdDeviation="0.225"/>
<feComposite in2="hardAlpha" operator="arithmetic" k2="-1" k3="1"/>
<feColorMatrix type="matrix" values="0 0 0 0 0.827451 0 0 0 0 0.686275 0 0 0 0 0.913725 0 0 0 1 0"/>
<feBlend mode="normal" in2="shape" result="effect1_innerShadow_37_448"/>
<feColorMatrix in="SourceAlpha" type="matrix" values="0 0 0 0 0 0 0 0 0 0 0 0 0 0 0 0 0 0 127 0" result="hardAlpha"/>
<feOffset dy="0.25"/>
<feGaussianBlur stdDeviation="0.3"/>
<feComposite in2="hardAlpha" operator="arithmetic" k2="-1" k3="1"/>
<feColorMatrix type="matrix" values="0 0 0 0 0.870588 0 0 0 0 0.858824 0 0 0 0 0.854902 0 0 0 1 0"/>
<feBlend mode="normal" in2="effect1_innerShadow_37_448" result="effect2_innerShadow_37_448"/>
</filter>
<filter id="filter2_f_37_448" x="15.4183" y="17.74" width="31.4375" height="31.4375" filterUnits="userSpaceOnUse" color-interpolation-filters="sRGB">
<feFlood flood-opacity="0" result="BackgroundImageFix"/>
<feBlend mode="normal" in="SourceGraphic" in2="BackgroundImageFix" result="shape"/>
<feGaussianBlur stdDeviation="0.75" result="effect1_foregroundBlur_37_448"/>
</filter>
<filter id="filter3_iii_37_448" x="18.0358" y="18.0312" width="28.8375" height="28.9375" filterUnits="userSpaceOnUse" color-interpolation-filters="sRGB">
<feFlood flood-opacity="0" result="BackgroundImageFix"/>
<feBlend mode="normal" in="SourceGraphic" in2="BackgroundImageFix" result="shape"/>
<feColorMatrix in="SourceAlpha" type="matrix" values="0 0 0 0 0 0 0 0 0 0 0 0 0 0 0 0 0 0 127 0" result="hardAlpha"/>
<feOffset dx="0.25"/>
<feGaussianBlur stdDeviation="0.125"/>
<feComposite in2="hardAlpha" operator="arithmetic" k2="-1" k3="1"/>
<feColorMatrix type="matrix" values="0 0 0 0 0.192157 0 0 0 0 0.376471 0 0 0 0 0.721569 0 0 0 1 0"/>
<feBlend mode="normal" in2="shape" result="effect1_innerShadow_37_448"/>
<feColorMatrix in="SourceAlpha" type="matrix" values="0 0 0 0 0 0 0 0 0 0 0 0 0 0 0 0 0 0 127 0" result="hardAlpha"/>
<feOffset dy="-0.25"/>
<feGaussianBlur stdDeviation="0.125"/>
<feComposite in2="hardAlpha" operator="arithmetic" k2="-1" k3="1"/>
<feColorMatrix type="matrix" values="0 0 0 0 0.32549 0 0 0 0 0.341176 0 0 0 0 0.819608 0 0 0 1 0"/>
<feBlend mode="normal" in2="effect1_innerShadow_37_448" result="effect2_innerShadow_37_448"/>
<feColorMatrix in="SourceAlpha" type="matrix" values="0 0 0 0 0 0 0 0 0 0 0 0 0 0 0 0 0 0 127 0" result="hardAlpha"/>
<feOffset dx="-0.15" dy="0.25"/>
<feGaussianBlur stdDeviation="0.125"/>
<feComposite in2="hardAlpha" operator="arithmetic" k2="-1" k3="1"/>
<feColorMatrix type="matrix" values="0 0 0 0 0.317647 0 0 0 0 0.596078 0 0 0 0 0.882353 0 0 0 1 0"/>
<feBlend mode="normal" in2="effect2_innerShadow_37_448" result="effect3_innerShadow_37_448"/>
</filter>
<filter id="filter4_dii_37_448" x="22.742" y="23.1082" width="18.7812" height="18.9325" filterUnits="userSpaceOnUse" color-interpolation-filters="sRGB">
<feFlood flood-opacity="0" result="BackgroundImageFix"/>
<feColorMatrix in="SourceAlpha" type="matrix" values="0 0 0 0 0 0 0 0 0 0 0 0 0 0 0 0 0 0 127 0" result="hardAlpha"/>
<feOffset dx="-0.15" dy="0.15"/>
<feGaussianBlur stdDeviation="0.125"/>
<feComposite in2="hardAlpha" operator="out"/>
<feColorMatrix type="matrix" values="0 0 0 0 0.152941 0 0 0 0 0.341176 0 0 0 0 0.768627 0 0 0 1 0"/>
<feBlend mode="normal" in2="BackgroundImageFix" result="effect1_dropShadow_37_448"/>
<feBlend mode="normal" in="SourceGraphic" in2="effect1_dropShadow_37_448" result="shape"/>
<feColorMatrix in="SourceAlpha" type="matrix" values="0 0 0 0 0 0 0 0 0 0 0 0 0 0 0 0 0 0 127 0" result="hardAlpha"/>
<feOffset dy="-0.25"/>
<feGaussianBlur stdDeviation="0.2"/>
<feComposite in2="hardAlpha" operator="arithmetic" k2="-1" k3="1"/>
<feColorMatrix type="matrix" values="0 0 0 0 0.803922 0 0 0 0 0.713726 0 0 0 0 0.921569 0 0 0 1 0"/>
<feBlend mode="normal" in2="shape" result="effect2_innerShadow_37_448"/>
<feColorMatrix in="SourceAlpha" type="matrix" values="0 0 0 0 0 0 0 0 0 0 0 0 0 0 0 0 0 0 127 0" result="hardAlpha"/>
<feOffset dx="-0.15" dy="0.15"/>
<feGaussianBlur stdDeviation="0.15"/>
<feComposite in2="hardAlpha" operator="arithmetic" k2="-1" k3="1"/>
<feColorMatrix type="matrix" values="0 0 0 0 0.917647 0 0 0 0 0.890196 0 0 0 0 0.952941 0 0 0 1 0"/>
<feBlend mode="normal" in2="effect2_innerShadow_37_448" result="effect3_innerShadow_37_448"/>
</filter>
<linearGradient id="paint0_linear_37_448" x1="8.31578" y1="34.8481" x2="60.7464" y2="34.4683" gradientUnits="userSpaceOnUse">
<stop stop-color="#DFD0E6"/>
<stop offset="1" stop-color="#EEE5F8"/>
</linearGradient>
<linearGradient id="paint1_linear_37_448" x1="4.25328" y1="34.7242" x2="10.4242" y2="34.7242" gradientUnits="userSpaceOnUse">
<stop stop-color="#D6BABD"/>
<stop offset="1" stop-color="#DCC9DD" stop-opacity="0"/>
</linearGradient>
<linearGradient id="paint2_linear_37_448" x1="22.0125" y1="38.539" x2="20.4647" y2="36.1279" gradientUnits="userSpaceOnUse">
<stop offset="0.114" stop-color="#DAC3DF"/>
<stop offset="1" stop-color="#DAC3DF" stop-opacity="0"/>
</linearGradient>
<radialGradient id="paint3_radial_37_448" cx="0" cy="0" r="1" gradientUnits="userSpaceOnUse" gradientTransform="translate(24.6243 27.1784) rotate(123.69) scale(5.53562 38.8771)">
<stop offset="0.342" stop-color="#C8A6D7"/>
<stop offset="1" stop-color="#D1BBDD" stop-opacity="0"/>
</radialGradient>
<linearGradient id="paint4_linear_37_448" x1="42.8472" y1="39.1646" x2="44.5331" y2="36.1279" gradientUnits="userSpaceOnUse">
<stop offset="0.114" stop-color="#F6EFFE"/>
<stop offset="1" stop-color="#F3EAFD" stop-opacity="0"/>
</linearGradient>
<linearGradient id="paint5_linear_37_448" x1="40.9419" y1="28.3117" x2="43.1011" y2="31.2306" gradientUnits="userSpaceOnUse">
<stop stop-color="#E3CDF7"/>
<stop offset="1" stop-color="#E9D9F8" stop-opacity="0"/>
</linearGradient>
<linearGradient id="paint6_linear_37_448" x1="61.1284" y1="39.7374" x2="53.5742" y2="39.7374" gradientUnits="userSpaceOnUse">
<stop stop-color="#F7F3FB"/>
<stop offset="1" stop-color="#F0E9F8" stop-opacity="0"/>
</linearGradient>
<linearGradient id="paint7_linear_37_448" x1="61.1284" y1="39.7374" x2="58.6381" y2="39.7374" gradientUnits="userSpaceOnUse">
<stop offset="0.199" stop-color="#EBE9ED"/>
<stop offset="1" stop-color="#EBE9ED" stop-opacity="0"/>
</linearGradient>
<linearGradient id="paint8_linear_37_448" x1="32.5" y1="56.3042" x2="32.5" y2="34.3403" gradientUnits="userSpaceOnUse">
<stop stop-color="#DDC5F1"/>
<stop offset="1" stop-color="#E6DAF1"/>
</linearGradient>
<linearGradient id="paint9_linear_37_448" x1="15.2059" y1="40.8403" x2="16.1322" y2="42.2317" gradientUnits="userSpaceOnUse">
<stop offset="0.073" stop-color="#DDC2C8"/>
<stop offset="1" stop-color="#DFCDDA" stop-opacity="0"/>
</linearGradient>
<linearGradient id="paint10_linear_37_448" x1="45.8677" y1="38.9167" x2="45.2847" y2="39.8247" gradientUnits="userSpaceOnUse">
<stop offset="0.14" stop-color="#F8F3FD"/>
<stop offset="1" stop-color="#F1EAF9" stop-opacity="0"/>
</linearGradient>
<linearGradient id="paint11_linear_37_448" x1="32.5" y1="12.2505" x2="32.5" y2="34.1636" gradientUnits="userSpaceOnUse">
<stop stop-color="#E9E4E9"/>
<stop offset="1" stop-color="#E7DCF0"/>
</linearGradient>
<linearGradient id="paint12_linear_37_448" x1="19.9266" y1="26.1585" x2="27.2675" y2="12.9858" gradientUnits="userSpaceOnUse">
<stop stop-color="#E1D5E7"/>
<stop offset="1" stop-color="#E1D5E7" stop-opacity="0"/>
</linearGradient>
<linearGradient id="paint13_linear_37_448" x1="4.25344" y1="15.5777" x2="10.2091" y2="15.5777" gradientUnits="userSpaceOnUse">
<stop stop-color="#E1C1BC"/>
<stop offset="1" stop-color="#E9D1CD" stop-opacity="0"/>
</linearGradient>
<radialGradient id="paint14_radial_37_448" cx="0" cy="0" r="1" gradientUnits="userSpaceOnUse" gradientTransform="translate(55.7725 20.5438) rotate(-138.233) scale(12.4497 55.1645)">
<stop stop-color="#FBF9FE"/>
<stop offset="1" stop-color="#F0ECF1" stop-opacity="0"/>
</radialGradient>
<linearGradient id="paint15_linear_37_448" x1="45.5772" y1="29.0083" x2="21.71" y2="37.7691" gradientUnits="userSpaceOnUse">
<stop stop-color="#347BD7"/>
<stop offset="1" stop-color="#3477CB"/>
</linearGradient>
</defs>
</svg>
