<svg width="424" height="698" viewBox="0 0 424 698" fill="none" xmlns="http://www.w3.org/2000/svg">
<g filter="url(#filter0_i_37_328)">
<path d="M-35.6231 142.234C-36.7159 142.252 -37.7993 141.969 -38.8038 141.406C-39.8083 140.843 -40.7116 140.01 -41.4556 138.963C-44.7885 134.6 -44.7885 127.839 -41.4556 123.477C-1.96119 72.0037 50.3648 43.6498 106.19 43.6498C126.687 43.6498 147.184 47.5757 166.682 55.4276C168.772 56.283 170.522 58.1815 171.551 60.7123C172.58 63.2431 172.806 66.2026 172.181 68.9502C170.848 74.8391 166.182 78.1107 161.849 76.1477C143.784 69.1094 125.039 65.5101 106.19 65.4605C54.8641 65.4605 6.53762 91.6333 -29.6239 139.181C-31.2904 141.362 -33.4567 142.234 -35.6231 142.234Z" fill="url(#paint0_radial_37_328)"/>
</g>
<g filter="url(#filter1_i_37_328)">
<path d="M-68.1185 359.469C-72.7845 359.469 -76.4507 354.67 -76.4507 348.563C-76.4507 216.827 5.53777 109.518 106.19 109.518C110.856 109.518 114.522 114.317 114.522 120.424C114.522 126.531 110.856 131.329 106.19 131.329C14.7031 131.329 -59.7864 228.823 -59.7864 348.563C-59.7864 354.67 -63.4525 359.469 -68.1185 359.469Z" fill="url(#paint1_linear_37_328)"/>
</g>
<path d="M-26.4577 349.218V411.814C-26.4577 545.95 56.6972 654.785 159.183 654.785H286.498C297.997 654.785 307.329 642.571 307.329 627.522V613.781C307.329 479.645 224.174 370.81 121.688 370.81H-9.79342L-26.4577 349.218Z" fill="url(#paint2_linear_37_328)"/>
<path d="M-26.4577 349.218V411.814C-26.4577 545.95 56.6972 654.785 159.183 654.785H286.498C297.997 654.785 307.329 642.571 307.329 627.522V613.781C307.329 479.645 224.174 370.81 121.688 370.81H-9.79342L-26.4577 349.218Z" fill="url(#paint3_linear_37_328)"/>
<g filter="url(#filter2_f_37_328)">
<path d="M-4.54416 377.397V428.434C-4.54416 537.836 67.6957 626.606 156.716 626.606H267.318C277.316 626.606 285.415 616.638 285.415 604.359V593.17C285.415 483.768 213.175 394.998 124.154 394.998H9.93713L-4.54416 377.397Z" fill="url(#paint4_linear_37_328)"/>
</g>
<g filter="url(#filter3_f_37_328)">
<path d="M192.195 577.576L16.1696 448.456C11.3919 445.043 7.84583 439.286 6.31137 432.451C4.77692 425.616 5.3798 418.264 7.9874 412.011C10.595 405.757 14.9937 401.116 20.2158 399.108C25.438 397.1 31.0558 397.889 35.8335 401.301L214.075 525.077C216.709 526.958 219.034 529.498 220.917 532.555C222.801 535.611 224.206 539.123 225.052 542.89C225.899 546.657 226.17 550.606 225.85 554.51C225.531 558.414 224.627 562.198 223.19 565.645C221.754 569.092 219.812 572.135 217.477 574.6C215.142 577.065 212.459 578.904 209.58 580.012C206.702 581.12 203.685 581.475 200.702 581.057C197.719 580.639 194.829 579.456 192.195 577.576Z" fill="url(#paint5_linear_37_328)"/>
</g>
<g filter="url(#filter4_i_37_328)">
<path d="M270.334 369.283C265.668 369.283 262.002 364.485 262.002 358.378C262.002 352.271 265.668 347.473 270.334 347.473C291.664 347.473 312.161 338.967 329.659 323.045C343.174 310.474 354.201 293.863 361.824 274.592C369.447 255.321 373.445 233.947 373.486 212.246C373.486 206.139 377.152 201.341 381.818 201.341C386.484 201.341 390.15 206.358 390.15 212.246C390.15 263.283 371.153 311.267 339.157 340.711C319.057 359.403 294.991 369.394 270.334 369.283Z" fill="url(#paint6_linear_37_328)"/>
</g>
<g filter="url(#filter5_i_37_328)">
<path d="M356.822 97.7404V140.271C356.822 161.896 353.567 183.309 347.244 203.288C340.922 223.267 331.654 241.42 319.971 256.711C296.376 287.593 264.374 304.942 231.006 304.942H144.518C140.761 304.942 137.159 302.989 134.502 299.512C131.846 296.035 130.354 291.32 130.354 286.403V277.024C130.354 186.074 186.679 109.082 256.169 109.082H345.323L356.822 97.7404Z" fill="url(#paint7_linear_37_328)"/>
</g>
<g filter="url(#filter6_f_37_328)">
<path d="M344.623 121.514L334.575 147.818C334.575 222.999 288.015 288.344 230.589 288.344H154.267C152.728 288.347 151.203 287.952 149.781 287.183C148.359 286.413 147.066 285.284 145.978 283.859C144.89 282.435 144.027 280.744 143.439 278.882C142.851 277.02 142.55 275.025 142.552 273.011V265.268C142.552 190.109 193.961 126.465 251.386 126.465L334.575 128.275L344.623 121.514Z" fill="url(#paint8_linear_37_328)"/>
</g>
<g filter="url(#filter7_f_37_328)">
<path d="M197.961 143.499C177.997 157.349 137.802 201.428 135.469 291.048" stroke="url(#paint9_linear_37_328)" stroke-width="0.2" stroke-linecap="round"/>
</g>
<g filter="url(#filter8_f_37_328)">
<path d="M267.717 277.678C298.796 258.114 344.307 207.099 342.29 132.594" stroke="url(#paint10_linear_37_328)" stroke-width="0.6" stroke-linecap="round"/>
</g>
<path d="M197.344 248.888C198.677 248.888 200.177 248.452 201.343 247.58L335.991 151.395C348.823 142.016 356.822 124.567 356.822 105.374V55.2094C356.822 49.1024 352.989 44.0859 348.323 44.0859C343.657 44.0859 339.824 49.1024 339.824 55.2094V105.156C339.824 116.279 335.158 126.312 327.826 131.765L193.178 227.95C189.012 230.785 187.512 237.547 189.845 242.999C191.345 246.707 194.344 248.888 197.344 248.888Z" fill="url(#paint11_linear_37_328)"/>
<path d="M197.344 248.888C198.677 248.888 200.177 248.452 201.343 247.58L335.991 151.395C348.823 142.016 356.822 124.567 356.822 105.374V55.2094C356.822 49.1024 352.989 44.0859 348.323 44.0859C343.657 44.0859 339.824 49.1024 339.824 55.2094V105.156C339.824 116.279 335.158 126.312 327.826 131.765L193.178 227.95C189.012 230.785 187.512 237.547 189.845 242.999C191.345 246.707 194.344 248.888 197.344 248.888Z" fill="url(#paint12_radial_37_328)"/>
<path d="M197.344 248.888C198.677 248.888 200.177 248.452 201.343 247.58L335.991 151.395C348.823 142.016 356.822 124.567 356.822 105.374V55.2094C356.822 49.1024 352.989 44.0859 348.323 44.0859C343.657 44.0859 339.824 49.1024 339.824 55.2094V105.156C339.824 116.279 335.158 126.312 327.826 131.765L193.178 227.95C189.012 230.785 187.512 237.547 189.845 242.999C191.345 246.707 194.344 248.888 197.344 248.888Z" fill="url(#paint13_radial_37_328)"/>
<g filter="url(#filter9_f_37_328)">
<path d="M202.293 239.27L334.291 143.63C339.501 139.858 343.844 134.329 346.869 127.617C349.893 120.904 351.489 113.254 351.489 105.461V54.5552" stroke="url(#paint14_linear_37_328)" stroke-width="0.25" stroke-linecap="round"/>
</g>
<g filter="url(#filter10_f_37_328)">
<path d="M385.484 212.355C386.151 238.506 374.602 306.752 329.159 339.076" stroke="url(#paint15_linear_37_328)" stroke-width="0.2" stroke-linecap="round"/>
</g>
<g filter="url(#filter11_f_37_328)">
<path d="M267.401 361.083C282.765 361.65 318.744 354.256 344.307 327.014" stroke="url(#paint16_linear_37_328)" stroke-width="0.2" stroke-linecap="round"/>
</g>
<g filter="url(#filter12_f_37_328)">
<path d="M168.765 401.585C210.259 415.108 293.397 479.013 293.914 626.606" stroke="url(#paint17_linear_37_328)" stroke-width="0.5" stroke-linecap="round"/>
</g>
<g filter="url(#filter13_f_37_328)">
<path d="M3.20477 455.916C8.704 499.319 41.816 591.949 130.354 615.395" stroke="url(#paint18_radial_37_328)" stroke-width="0.5" stroke-linecap="round"/>
</g>
<g filter="url(#filter14_ii_37_328)">
<path fill-rule="evenodd" clip-rule="evenodd" d="M-8.12699 265.53C-3.26537 265.53 1.39713 268.058 4.83481 272.557C8.2725 277.056 10.2038 283.159 10.2038 289.522V368.564C10.2054 372.016 10.9027 375.406 12.2251 378.393C13.5476 381.38 15.4484 383.858 17.736 385.576L221.657 538.556C223.805 540.081 225.699 542.153 227.226 544.649C228.754 547.146 229.884 550.017 230.551 553.094C231.219 556.171 231.409 559.391 231.112 562.565C230.815 565.74 230.035 568.805 228.82 571.579C227.604 574.354 225.977 576.782 224.034 578.722C222.091 580.662 219.871 582.073 217.505 582.874C215.14 583.674 212.675 583.847 210.257 583.383C207.84 582.919 205.517 581.827 203.427 580.171L-0.461401 427.213C-8.35868 421.296 -14.9218 412.755 -19.4868 402.452C-24.0517 392.149 -26.4565 380.452 -26.4577 368.542V289.522C-26.4577 283.159 -24.5265 277.056 -21.0888 272.557C-17.6511 268.058 -12.9886 265.53 -8.12699 265.53Z" fill="url(#paint19_linear_37_328)"/>
</g>
<path fill-rule="evenodd" clip-rule="evenodd" d="M-8.12699 265.53C-3.26537 265.53 1.39713 268.058 4.83481 272.557C8.2725 277.056 10.2038 283.159 10.2038 289.522V368.564C10.2054 372.016 10.9027 375.406 12.2251 378.393C13.5476 381.38 15.4484 383.858 17.736 385.576L221.657 538.556C223.805 540.081 225.699 542.153 227.226 544.649C228.754 547.146 229.884 550.017 230.551 553.094C231.219 556.171 231.409 559.391 231.112 562.565C230.815 565.74 230.035 568.805 228.82 571.579C227.604 574.354 225.977 576.782 224.034 578.722C222.091 580.662 219.871 582.073 217.505 582.874C215.14 583.674 212.675 583.847 210.257 583.383C207.84 582.919 205.517 581.827 203.427 580.171L-0.461401 427.213C-8.35868 421.296 -14.9218 412.755 -19.4868 402.452C-24.0517 392.149 -26.4565 380.452 -26.4577 368.542V289.522C-26.4577 283.159 -24.5265 277.056 -21.0888 272.557C-17.6511 268.058 -12.9886 265.53 -8.12699 265.53Z" fill="url(#paint20_linear_37_328)"/>
<path fill-rule="evenodd" clip-rule="evenodd" d="M-8.12699 265.53C-3.26537 265.53 1.39713 268.058 4.83481 272.557C8.2725 277.056 10.2038 283.159 10.2038 289.522V368.564C10.2054 372.016 10.9027 375.406 12.2251 378.393C13.5476 381.38 15.4484 383.858 17.736 385.576L221.657 538.556C223.805 540.081 225.699 542.153 227.226 544.649C228.754 547.146 229.884 550.017 230.551 553.094C231.219 556.171 231.409 559.391 231.112 562.565C230.815 565.74 230.035 568.805 228.82 571.579C227.604 574.354 225.977 576.782 224.034 578.722C222.091 580.662 219.871 582.073 217.505 582.874C215.14 583.674 212.675 583.847 210.257 583.383C207.84 582.919 205.517 581.827 203.427 580.171L-0.461401 427.213C-8.35868 421.296 -14.9218 412.755 -19.4868 402.452C-24.0517 392.149 -26.4565 380.452 -26.4577 368.542V289.522C-26.4577 283.159 -24.5265 277.056 -21.0888 272.557C-17.6511 268.058 -12.9886 265.53 -8.12699 265.53Z" fill="url(#paint21_radial_37_328)"/>
<path fill-rule="evenodd" clip-rule="evenodd" d="M-8.12699 265.53C-3.26537 265.53 1.39713 268.058 4.83481 272.557C8.2725 277.056 10.2038 283.159 10.2038 289.522V368.564C10.2054 372.016 10.9027 375.406 12.2251 378.393C13.5476 381.38 15.4484 383.858 17.736 385.576L221.657 538.556C223.805 540.081 225.699 542.153 227.226 544.649C228.754 547.146 229.884 550.017 230.551 553.094C231.219 556.171 231.409 559.391 231.112 562.565C230.815 565.74 230.035 568.805 228.82 571.579C227.604 574.354 225.977 576.782 224.034 578.722C222.091 580.662 219.871 582.073 217.505 582.874C215.14 583.674 212.675 583.847 210.257 583.383C207.84 582.919 205.517 581.827 203.427 580.171L-0.461401 427.213C-8.35868 421.296 -14.9218 412.755 -19.4868 402.452C-24.0517 392.149 -26.4565 380.452 -26.4577 368.542V289.522C-26.4577 283.159 -24.5265 277.056 -21.0888 272.557C-17.6511 268.058 -12.9886 265.53 -8.12699 265.53Z" fill="url(#paint22_radial_37_328)"/>
<g filter="url(#filter15_f_37_328)">
<path d="M-1.51123 289.522V366.186C-1.51071 374.025 0.103729 381.719 3.1623 388.459C6.22087 395.199 10.6105 400.735 15.8696 404.486L220.474 550.312" stroke="url(#paint23_radial_37_328)" stroke-width="0.5" stroke-linecap="round"/>
<path d="M-1.51123 289.522V366.186C-1.51071 374.025 0.103729 381.719 3.1623 388.459C6.22087 395.199 10.6105 400.735 15.8696 404.486L220.474 550.312" stroke="url(#paint24_linear_37_328)" stroke-width="0.5" stroke-linecap="round"/>
<path d="M-1.51123 289.522V366.186C-1.51071 374.025 0.103729 381.719 3.1623 388.459C6.22087 395.199 10.6105 400.735 15.8696 404.486L220.474 550.312" stroke="url(#paint25_linear_37_328)" stroke-width="0.5" stroke-linecap="round"/>
</g>
<g filter="url(#filter16_f_37_328)">
<path d="M108.123 117.501C64.1462 117.501 20.1857 138.286 -8.5769 172.9" stroke="url(#paint26_linear_37_328)" stroke-width="0.25" stroke-linecap="round"/>
</g>
<g filter="url(#filter17_f_37_328)">
<path d="M167.298 64.719C151.867 59.3754 113.006 49.8441 81.0105 54.3371" stroke="url(#paint27_linear_37_328)" stroke-width="0.25" stroke-linecap="round"/>
</g>
<g filter="url(#filter18_f_37_328)">
<path d="M-37.0062 132.201C-27.9742 119.115 -2.42777 89.1251 27.4513 74.2502" stroke="url(#paint28_linear_37_328)" stroke-width="0.25" stroke-linecap="round"/>
</g>
<defs>
<filter id="filter0_i_37_328" x="-44.1053" y="43.5498" width="216.633" height="98.6851" filterUnits="userSpaceOnUse" color-interpolation-filters="sRGB">
<feFlood flood-opacity="0" result="BackgroundImageFix"/>
<feBlend mode="normal" in="SourceGraphic" in2="BackgroundImageFix" result="shape"/>
<feColorMatrix in="SourceAlpha" type="matrix" values="0 0 0 0 0 0 0 0 0 0 0 0 0 0 0 0 0 0 127 0" result="hardAlpha"/>
<feOffset dx="-0.15" dy="-0.1"/>
<feGaussianBlur stdDeviation="0.125"/>
<feComposite in2="hardAlpha" operator="arithmetic" k2="-1" k3="1"/>
<feColorMatrix type="matrix" values="0 0 0 0 0.776471 0 0 0 0 0.733333 0 0 0 0 0.847059 0 0 0 1 0"/>
<feBlend mode="normal" in2="shape" result="effect1_innerShadow_37_328"/>
</filter>
<filter id="filter1_i_37_328" x="-76.4507" y="109.368" width="190.973" height="250.101" filterUnits="userSpaceOnUse" color-interpolation-filters="sRGB">
<feFlood flood-opacity="0" result="BackgroundImageFix"/>
<feBlend mode="normal" in="SourceGraphic" in2="BackgroundImageFix" result="shape"/>
<feColorMatrix in="SourceAlpha" type="matrix" values="0 0 0 0 0 0 0 0 0 0 0 0 0 0 0 0 0 0 127 0" result="hardAlpha"/>
<feOffset dy="-0.15"/>
<feGaussianBlur stdDeviation="0.075"/>
<feComposite in2="hardAlpha" operator="arithmetic" k2="-1" k3="1"/>
<feColorMatrix type="matrix" values="0 0 0 0 0.720229 0 0 0 0 0.669826 0 0 0 0 0.795833 0 0 0 1 0"/>
<feBlend mode="normal" in2="shape" result="effect1_innerShadow_37_328"/>
</filter>
<filter id="filter2_f_37_328" x="-5.54416" y="376.397" width="291.959" height="251.209" filterUnits="userSpaceOnUse" color-interpolation-filters="sRGB">
<feFlood flood-opacity="0" result="BackgroundImageFix"/>
<feBlend mode="normal" in="SourceGraphic" in2="BackgroundImageFix" result="shape"/>
<feGaussianBlur stdDeviation="0.5" result="effect1_foregroundBlur_37_328"/>
</filter>
<filter id="filter3_f_37_328" x="4.47891" y="397.018" width="222.501" height="185.209" filterUnits="userSpaceOnUse" color-interpolation-filters="sRGB">
<feFlood flood-opacity="0" result="BackgroundImageFix"/>
<feBlend mode="normal" in="SourceGraphic" in2="BackgroundImageFix" result="shape"/>
<feGaussianBlur stdDeviation="0.5" result="effect1_foregroundBlur_37_328"/>
</filter>
<filter id="filter4_i_37_328" x="262.002" y="201.341" width="128.149" height="168.093" filterUnits="userSpaceOnUse" color-interpolation-filters="sRGB">
<feFlood flood-opacity="0" result="BackgroundImageFix"/>
<feBlend mode="normal" in="SourceGraphic" in2="BackgroundImageFix" result="shape"/>
<feColorMatrix in="SourceAlpha" type="matrix" values="0 0 0 0 0 0 0 0 0 0 0 0 0 0 0 0 0 0 127 0" result="hardAlpha"/>
<feOffset dy="0.15"/>
<feGaussianBlur stdDeviation="0.125"/>
<feComposite in2="hardAlpha" operator="arithmetic" k2="-1" k3="1"/>
<feColorMatrix type="matrix" values="0 0 0 0 0.701961 0 0 0 0 0.690196 0 0 0 0 0.764706 0 0 0 1 0"/>
<feBlend mode="normal" in2="shape" result="effect1_innerShadow_37_328"/>
</filter>
<filter id="filter5_i_37_328" x="130.354" y="97.7404" width="226.468" height="207.202" filterUnits="userSpaceOnUse" color-interpolation-filters="sRGB">
<feFlood flood-opacity="0" result="BackgroundImageFix"/>
<feBlend mode="normal" in="SourceGraphic" in2="BackgroundImageFix" result="shape"/>
<feColorMatrix in="SourceAlpha" type="matrix" values="0 0 0 0 0 0 0 0 0 0 0 0 0 0 0 0 0 0 127 0" result="hardAlpha"/>
<feOffset/>
<feGaussianBlur stdDeviation="0.5"/>
<feComposite in2="hardAlpha" operator="arithmetic" k2="-1" k3="1"/>
<feColorMatrix type="matrix" values="0 0 0 0 0.309804 0 0 0 0 0.654902 0 0 0 0 0.537255 0 0 0 1 0"/>
<feBlend mode="normal" in2="shape" result="effect1_innerShadow_37_328"/>
</filter>
<filter id="filter6_f_37_328" x="142.052" y="121.014" width="203.072" height="167.83" filterUnits="userSpaceOnUse" color-interpolation-filters="sRGB">
<feFlood flood-opacity="0" result="BackgroundImageFix"/>
<feBlend mode="normal" in="SourceGraphic" in2="BackgroundImageFix" result="shape"/>
<feGaussianBlur stdDeviation="0.25" result="effect1_foregroundBlur_37_328"/>
</filter>
<filter id="filter7_f_37_328" x="134.969" y="142.999" width="63.4912" height="148.549" filterUnits="userSpaceOnUse" color-interpolation-filters="sRGB">
<feFlood flood-opacity="0" result="BackgroundImageFix"/>
<feBlend mode="normal" in="SourceGraphic" in2="BackgroundImageFix" result="shape"/>
<feGaussianBlur stdDeviation="0.2" result="effect1_foregroundBlur_37_328"/>
</filter>
<filter id="filter8_f_37_328" x="266.817" y="131.694" width="76.4376" height="146.885" filterUnits="userSpaceOnUse" color-interpolation-filters="sRGB">
<feFlood flood-opacity="0" result="BackgroundImageFix"/>
<feBlend mode="normal" in="SourceGraphic" in2="BackgroundImageFix" result="shape"/>
<feGaussianBlur stdDeviation="0.3" result="effect1_foregroundBlur_37_328"/>
</filter>
<filter id="filter9_f_37_328" x="201.918" y="54.1802" width="149.946" height="185.465" filterUnits="userSpaceOnUse" color-interpolation-filters="sRGB">
<feFlood flood-opacity="0" result="BackgroundImageFix"/>
<feBlend mode="normal" in="SourceGraphic" in2="BackgroundImageFix" result="shape"/>
<feGaussianBlur stdDeviation="0.125" result="effect1_foregroundBlur_37_328"/>
</filter>
<filter id="filter10_f_37_328" x="328.859" y="212.055" width="56.9522" height="127.32" filterUnits="userSpaceOnUse" color-interpolation-filters="sRGB">
<feFlood flood-opacity="0" result="BackgroundImageFix"/>
<feBlend mode="normal" in="SourceGraphic" in2="BackgroundImageFix" result="shape"/>
<feGaussianBlur stdDeviation="0.1" result="effect1_foregroundBlur_37_328"/>
</filter>
<filter id="filter11_f_37_328" x="267.101" y="326.714" width="77.5058" height="34.6981" filterUnits="userSpaceOnUse" color-interpolation-filters="sRGB">
<feFlood flood-opacity="0" result="BackgroundImageFix"/>
<feBlend mode="normal" in="SourceGraphic" in2="BackgroundImageFix" result="shape"/>
<feGaussianBlur stdDeviation="0.1" result="effect1_foregroundBlur_37_328"/>
</filter>
<filter id="filter12_f_37_328" x="167.915" y="400.735" width="126.849" height="226.721" filterUnits="userSpaceOnUse" color-interpolation-filters="sRGB">
<feFlood flood-opacity="0" result="BackgroundImageFix"/>
<feBlend mode="normal" in="SourceGraphic" in2="BackgroundImageFix" result="shape"/>
<feGaussianBlur stdDeviation="0.3" result="effect1_foregroundBlur_37_328"/>
</filter>
<filter id="filter13_f_37_328" x="1.95474" y="454.666" width="129.649" height="161.98" filterUnits="userSpaceOnUse" color-interpolation-filters="sRGB">
<feFlood flood-opacity="0" result="BackgroundImageFix"/>
<feBlend mode="normal" in="SourceGraphic" in2="BackgroundImageFix" result="shape"/>
<feGaussianBlur stdDeviation="0.5" result="effect1_foregroundBlur_37_328"/>
</filter>
<filter id="filter14_ii_37_328" x="-26.4577" y="265.28" width="257.906" height="318.357" filterUnits="userSpaceOnUse" color-interpolation-filters="sRGB">
<feFlood flood-opacity="0" result="BackgroundImageFix"/>
<feBlend mode="normal" in="SourceGraphic" in2="BackgroundImageFix" result="shape"/>
<feColorMatrix in="SourceAlpha" type="matrix" values="0 0 0 0 0 0 0 0 0 0 0 0 0 0 0 0 0 0 127 0" result="hardAlpha"/>
<feOffset dx="0.2" dy="-0.25"/>
<feGaussianBlur stdDeviation="0.25"/>
<feComposite in2="hardAlpha" operator="arithmetic" k2="-1" k3="1"/>
<feColorMatrix type="matrix" values="0 0 0 0 0.109804 0 0 0 0 0.529412 0 0 0 0 0.356863 0 0 0 1 0"/>
<feBlend mode="normal" in2="shape" result="effect1_innerShadow_37_328"/>
<feColorMatrix in="SourceAlpha" type="matrix" values="0 0 0 0 0 0 0 0 0 0 0 0 0 0 0 0 0 0 127 0" result="hardAlpha"/>
<feOffset/>
<feGaussianBlur stdDeviation="0.5"/>
<feComposite in2="hardAlpha" operator="arithmetic" k2="-1" k3="1"/>
<feColorMatrix type="matrix" values="0 0 0 0 0.14902 0 0 0 0 0.670588 0 0 0 0 0.392157 0 0 0 1 0"/>
<feBlend mode="normal" in2="effect1_innerShadow_37_328" result="effect2_innerShadow_37_328"/>
</filter>
<filter id="filter15_f_37_328" x="-2.26123" y="288.772" width="223.485" height="262.291" filterUnits="userSpaceOnUse" color-interpolation-filters="sRGB">
<feFlood flood-opacity="0" result="BackgroundImageFix"/>
<feBlend mode="normal" in="SourceGraphic" in2="BackgroundImageFix" result="shape"/>
<feGaussianBlur stdDeviation="0.25" result="effect1_foregroundBlur_37_328"/>
</filter>
<filter id="filter16_f_37_328" x="-8.9519" y="117.126" width="117.45" height="56.1492" filterUnits="userSpaceOnUse" color-interpolation-filters="sRGB">
<feFlood flood-opacity="0" result="BackgroundImageFix"/>
<feBlend mode="normal" in="SourceGraphic" in2="BackgroundImageFix" result="shape"/>
<feGaussianBlur stdDeviation="0.125" result="effect1_foregroundBlur_37_328"/>
</filter>
<filter id="filter17_f_37_328" x="80.6354" y="52.7927" width="87.0379" height="12.3013" filterUnits="userSpaceOnUse" color-interpolation-filters="sRGB">
<feFlood flood-opacity="0" result="BackgroundImageFix"/>
<feBlend mode="normal" in="SourceGraphic" in2="BackgroundImageFix" result="shape"/>
<feGaussianBlur stdDeviation="0.125" result="effect1_foregroundBlur_37_328"/>
</filter>
<filter id="filter18_f_37_328" x="-37.3812" y="73.8752" width="65.2076" height="58.701" filterUnits="userSpaceOnUse" color-interpolation-filters="sRGB">
<feFlood flood-opacity="0" result="BackgroundImageFix"/>
<feBlend mode="normal" in="SourceGraphic" in2="BackgroundImageFix" result="shape"/>
<feGaussianBlur stdDeviation="0.125" result="effect1_foregroundBlur_37_328"/>
</filter>
<radialGradient id="paint0_radial_37_328" cx="0" cy="0" r="1" gradientUnits="userSpaceOnUse" gradientTransform="translate(59.1969 79.8555) rotate(-100.494) scale(29.0434 151.254)">
<stop offset="0.006" stop-color="#CBBDDC"/>
<stop offset="1" stop-color="#D2CCDB"/>
</radialGradient>
<linearGradient id="paint1_linear_37_328" x1="-76.4507" y1="320.384" x2="152.775" y2="177.11" gradientUnits="userSpaceOnUse">
<stop offset="0.006" stop-color="#CCC3D9"/>
<stop offset="1" stop-color="#CABDDD"/>
</linearGradient>
<linearGradient id="paint2_linear_37_328" x1="107.823" y1="680.064" x2="195.495" y2="449.748" gradientUnits="userSpaceOnUse">
<stop stop-color="#459589"/>
<stop offset="1" stop-color="#5AB57A"/>
</linearGradient>
<linearGradient id="paint3_linear_37_328" x1="150.651" y1="668.853" x2="150.651" y2="628.329" gradientUnits="userSpaceOnUse">
<stop stop-color="#528289"/>
<stop offset="1" stop-color="#528289" stop-opacity="0"/>
</linearGradient>
<linearGradient id="paint4_linear_37_328" x1="10.3371" y1="393.82" x2="261.362" y2="540.838" gradientUnits="userSpaceOnUse">
<stop stop-color="#4BBC85"/>
<stop offset="1" stop-color="#46AF84"/>
</linearGradient>
<linearGradient id="paint5_linear_37_328" x1="89.3759" y1="498.141" x2="110.228" y2="465.568" gradientUnits="userSpaceOnUse">
<stop stop-color="#33A171"/>
<stop offset="1" stop-color="#3FB774"/>
</linearGradient>
<linearGradient id="paint6_linear_37_328" x1="271.85" y1="380.669" x2="422.845" y2="280.02" gradientUnits="userSpaceOnUse">
<stop offset="0.006" stop-color="#C2B4D9"/>
<stop offset="1" stop-color="#C8C4D5"/>
</linearGradient>
<linearGradient id="paint7_linear_37_328" x1="137.336" y1="276.85" x2="395.042" y2="179.351" gradientUnits="userSpaceOnUse">
<stop stop-color="#4FC679"/>
<stop offset="1" stop-color="#4DBF82"/>
</linearGradient>
<linearGradient id="paint8_linear_37_328" x1="153.184" y1="265.116" x2="366.158" y2="184.552" gradientUnits="userSpaceOnUse">
<stop stop-color="#4FC886"/>
<stop offset="1" stop-color="#4EBD8E"/>
</linearGradient>
<linearGradient id="paint9_linear_37_328" x1="156.467" y1="213.272" x2="124.644" y2="219.34" gradientUnits="userSpaceOnUse">
<stop offset="0.809" stop-color="#84D59E"/>
<stop offset="1" stop-color="#84D49E" stop-opacity="0"/>
</linearGradient>
<linearGradient id="paint10_linear_37_328" x1="296.93" y1="269.936" x2="364.67" y2="258.793" gradientUnits="userSpaceOnUse">
<stop stop-color="#63D393" stop-opacity="0"/>
<stop offset="1" stop-color="#63D393"/>
</linearGradient>
<linearGradient id="paint11_linear_37_328" x1="371.619" y1="109.256" x2="187.056" y2="184.108" gradientUnits="userSpaceOnUse">
<stop stop-color="#269D63"/>
<stop offset="1" stop-color="#34C075"/>
</linearGradient>
<radialGradient id="paint12_radial_37_328" cx="0" cy="0" r="1" gradientUnits="userSpaceOnUse" gradientTransform="translate(356.822 52.1559) rotate(139.339) scale(10.9834 12.0817)">
<stop stop-color="#66B386"/>
<stop offset="1" stop-color="#66B386" stop-opacity="0"/>
</radialGradient>
<radialGradient id="paint13_radial_37_328" cx="0" cy="0" r="1" gradientUnits="userSpaceOnUse" gradientTransform="translate(332.608 112.877) rotate(46.2561) scale(14.1714 18.1996)">
<stop stop-color="#60A576"/>
<stop offset="1" stop-color="#60A576" stop-opacity="0"/>
</radialGradient>
<linearGradient id="paint14_linear_37_328" x1="163.749" y1="273.993" x2="377.527" y2="299.231" gradientUnits="userSpaceOnUse">
<stop stop-color="#53CD8B"/>
<stop offset="1" stop-color="#5BB180"/>
</linearGradient>
<linearGradient id="paint15_linear_37_328" x1="403.265" y1="180.883" x2="310.176" y2="333.462" gradientUnits="userSpaceOnUse">
<stop stop-color="#DBD8E4"/>
<stop offset="1" stop-color="#DBD8E4" stop-opacity="0"/>
</linearGradient>
<linearGradient id="paint16_linear_37_328" x1="252.586" y1="366.666" x2="270.703" y2="334.408" gradientUnits="userSpaceOnUse">
<stop stop-color="#DBD8E4" stop-opacity="0.5"/>
<stop offset="1" stop-color="#DBD8E4" stop-opacity="0"/>
</linearGradient>
<linearGradient id="paint17_linear_37_328" x1="300.496" y1="605.929" x2="112.606" y2="452.655" gradientUnits="userSpaceOnUse">
<stop stop-color="#6CC995"/>
<stop offset="1" stop-color="#6CC995" stop-opacity="0"/>
</linearGradient>
<radialGradient id="paint18_radial_37_328" cx="0" cy="0" r="1" gradientUnits="userSpaceOnUse" gradientTransform="translate(47.3485 557.641) rotate(-57.7676) scale(104.98 95.2822)">
<stop stop-color="#6CC995"/>
<stop offset="1" stop-color="#6CC995" stop-opacity="0"/>
</radialGradient>
<linearGradient id="paint19_linear_37_328" x1="-12.0598" y1="336.938" x2="281.766" y2="503.372" gradientUnits="userSpaceOnUse">
<stop stop-color="#269C64"/>
<stop offset="1" stop-color="#45C68E"/>
</linearGradient>
<linearGradient id="paint20_linear_37_328" x1="230.873" y1="583.355" x2="190.983" y2="566.766" gradientUnits="userSpaceOnUse">
<stop stop-color="#32C37E"/>
<stop offset="1" stop-color="#32C37E" stop-opacity="0"/>
</linearGradient>
<radialGradient id="paint21_radial_37_328" cx="0" cy="0" r="1" gradientUnits="userSpaceOnUse" gradientTransform="translate(102.207 439.95) rotate(114.053) scale(13.69 104.735)">
<stop stop-color="#23A965"/>
<stop offset="1" stop-color="#23A965" stop-opacity="0"/>
</radialGradient>
<radialGradient id="paint22_radial_37_328" cx="0" cy="0" r="1" gradientUnits="userSpaceOnUse" gradientTransform="translate(222.474 552.122) rotate(-176.516) scale(11.217 15.5334)">
<stop stop-color="#65D69C"/>
<stop offset="1" stop-color="#65D69C" stop-opacity="0"/>
</radialGradient>
<radialGradient id="paint23_radial_37_328" cx="0" cy="0" r="1" gradientUnits="userSpaceOnUse" gradientTransform="translate(7.03756 388.651) rotate(-42.8072) scale(58.3618 48.9271)">
<stop stop-color="#62B78C"/>
<stop offset="1" stop-color="#62B78C" stop-opacity="0"/>
</radialGradient>
<linearGradient id="paint24_linear_37_328" x1="215.858" y1="542.984" x2="-14.6152" y2="446.021" gradientUnits="userSpaceOnUse">
<stop stop-color="#69D79E"/>
<stop offset="1" stop-color="#69D79E" stop-opacity="0"/>
</linearGradient>
<linearGradient id="paint25_linear_37_328" x1="68.3123" y1="273.993" x2="-12.8586" y2="358.06" gradientUnits="userSpaceOnUse">
<stop stop-color="#69D79E"/>
<stop offset="1" stop-color="#69D79E" stop-opacity="0"/>
</linearGradient>
<linearGradient id="paint26_linear_37_328" x1="111.756" y1="124.437" x2="12.7114" y2="150.897" gradientUnits="userSpaceOnUse">
<stop stop-color="#DCD2EA"/>
<stop offset="1" stop-color="#DCD2EA" stop-opacity="0"/>
</linearGradient>
<linearGradient id="paint27_linear_37_328" x1="169.981" y1="54.6206" x2="128.611" y2="93.7695" gradientUnits="userSpaceOnUse">
<stop stop-color="#E2D9F0" stop-opacity="0.6"/>
<stop offset="1" stop-color="#DCD2EA" stop-opacity="0"/>
</linearGradient>
<linearGradient id="paint28_linear_37_328" x1="-44.6218" y1="132.223" x2="36.3352" y2="122.88" gradientUnits="userSpaceOnUse">
<stop stop-color="#E2D9F0" stop-opacity="0.6"/>
<stop offset="1" stop-color="#DCD2EA" stop-opacity="0"/>
</linearGradient>
</defs>
</svg>
