<svg width="40" height="40" viewBox="0 0 40 40" fill="none" xmlns="http://www.w3.org/2000/svg">
<path d="M21.6663 21.6666H18.333V11.6666H21.6663M21.6663 28.3333H18.333V25H21.6663M19.9997 3.33331C17.811 3.33331 15.6437 3.76441 13.6216 4.60199C11.5995 5.43957 9.7622 6.66722 8.21456 8.21487C5.08896 11.3405 3.33301 15.5797 3.33301 20C3.33301 24.4203 5.08896 28.6595 8.21456 31.7851C9.7622 33.3327 11.5995 34.5604 13.6216 35.398C15.6437 36.2355 17.811 36.6666 19.9997 36.6666C24.4199 36.6666 28.6592 34.9107 31.7848 31.7851C34.9104 28.6595 36.6663 24.4203 36.6663 20C36.6663 17.8113 36.2352 15.644 35.3977 13.6219C34.5601 11.5998 33.3324 9.76251 31.7848 8.21487C30.2371 6.66722 28.3998 5.43957 26.3777 4.60199C24.3556 3.76441 22.1884 3.33331 19.9997 3.33331Z" fill="#85B6FF"/>
</svg>
