<svg width="51" height="51" viewBox="0 0 51 51" fill="none" xmlns="http://www.w3.org/2000/svg">
<g clip-path="url(#clip0_73_39)">
<path d="M50.0127 25.5259C50.0127 11.7188 38.8197 0.525879 25.0127 0.525879C11.2057 0.525879 0.0126953 11.7188 0.0126953 25.5259C0.0126953 38.004 9.15488 48.3468 21.1064 50.2222V32.7524H14.7588V25.5259H21.1064V20.0181C21.1064 13.7524 24.8389 10.2915 30.5494 10.2915C33.2846 10.2915 36.1455 10.7798 36.1455 10.7798V16.9321H32.9932C29.8875 16.9321 28.9189 18.8593 28.9189 20.8364V25.5259H35.8525L34.7441 32.7524H28.9189V50.2222C40.8705 48.3468 50.0127 38.0042 50.0127 25.5259Z" fill="#1877F2"/>
<path d="M34.7441 32.7524L35.8525 25.5259H28.9189V20.8364C28.9189 18.8591 29.8875 16.9321 32.9932 16.9321H36.1455V10.7798C36.1455 10.7798 33.2846 10.2915 30.5492 10.2915C24.8389 10.2915 21.1064 13.7524 21.1064 20.0181V25.5259H14.7588V32.7524H21.1064V50.2222C22.3987 50.4246 23.7047 50.5262 25.0127 50.5259C26.3207 50.5262 27.6267 50.4246 28.9189 50.2222V32.7524H34.7441Z" fill="white"/>
</g>
<defs>
<clipPath id="clip0_73_39">
<rect width="50" height="50" fill="white" transform="translate(0.0126953 0.525879)"/>
</clipPath>
</defs>
</svg>
