<svg width="51" height="51" viewBox="0 0 51 51" fill="none" xmlns="http://www.w3.org/2000/svg">
<g clip-path="url(#clip0_73_24)">
<path d="M37.0673 18.5295C40.7154 20.8304 45.1845 22.1841 50.0113 22.1841V13.9893C49.0977 13.9896 48.1866 13.9055 47.2929 13.7383V20.1888C42.4665 20.1888 37.998 18.8352 34.3492 16.5345V33.2579C34.3492 41.624 26.6625 48.4054 17.1812 48.4054C13.6435 48.4054 10.3552 47.4617 7.62378 45.8433C10.7414 48.6559 15.089 50.4005 19.8988 50.4005C29.3808 50.4005 37.0677 43.6192 37.0677 35.2528V18.5295H37.0673ZM40.4208 10.2619C38.5564 8.46484 37.3322 6.14243 37.0673 3.57484V2.52087H34.4914C35.1398 5.78415 37.3517 8.57208 40.4208 10.2619ZM13.6207 39.4236C12.5789 38.2188 12.0159 36.7445 12.0185 35.2288C12.0185 31.4026 15.5343 28.3002 19.872 28.3002C20.6803 28.2998 21.4838 28.4093 22.2542 28.6248V20.2467C21.3539 20.1379 20.4453 20.0916 19.5371 20.1086V26.6297C18.7662 26.4141 17.9623 26.3046 17.1537 26.3052C12.8162 26.3052 9.30054 29.4073 9.30054 33.234C9.30054 35.9398 11.0578 38.2824 13.6207 39.4236Z" fill="#FF004F"/>
<path d="M34.3492 16.5343C37.9982 18.835 42.4664 20.1886 47.2929 20.1886V13.7381C44.5988 13.2317 42.2138 11.9897 40.4207 10.2619C37.3513 8.57191 35.1398 5.78398 34.4914 2.52087H27.7252V35.2524C27.7097 39.0683 24.2 42.1579 19.8717 42.1579C17.3213 42.1579 15.0552 41.0854 13.6203 39.4235C11.0578 38.2824 9.30037 35.9397 9.30037 33.2341C9.30037 29.4078 12.816 26.3054 17.1535 26.3054C17.9845 26.3054 18.7855 26.4195 19.5369 26.6298V20.1088C10.222 20.2786 2.73083 26.9938 2.73083 35.2526C2.73083 39.3754 4.59626 43.1128 7.624 45.8436C10.3554 47.4617 13.6435 48.4057 17.1814 48.4057C26.6629 48.4057 34.3494 41.6238 34.3494 33.2579L34.3492 16.5343Z" fill="black"/>
<path d="M47.293 13.7379V11.9942C44.8635 11.9973 42.482 11.397 40.4207 10.2619C42.2453 12.0243 44.6479 13.2397 47.293 13.7383M34.4912 2.52071C34.4294 2.20891 34.382 1.89503 34.349 1.57984V0.525879H25.0064V33.2578C24.9916 37.0733 21.4818 40.1629 17.1533 40.1629C15.9262 40.1646 14.7159 39.9114 13.6201 39.4238C15.0551 41.0854 17.3211 42.1578 19.8715 42.1578C24.1996 42.1578 27.7098 39.0685 27.725 35.2526V2.52088L34.4912 2.52071ZM19.5373 20.1086V18.2519C18.7566 18.1578 17.9696 18.1107 17.1816 18.1109C7.69922 18.1109 0.0126953 24.8926 0.0126953 33.2578C0.0126953 38.5024 3.03359 43.1245 7.62422 45.8433C4.59648 43.1126 2.73105 39.375 2.73105 35.2524C2.73105 26.9938 10.2221 20.2785 19.5373 20.1086Z" fill="#00F2EA"/>
</g>
<defs>
<clipPath id="clip0_73_24">
<rect width="50" height="50" fill="white" transform="translate(0.0126953 0.525879)"/>
</clipPath>
</defs>
</svg>
