<svg width="60" height="59" viewBox="0 0 60 59" fill="none" xmlns="http://www.w3.org/2000/svg">
<path d="M53.2283 17.7367C52.9544 16.7343 52.4142 15.8195 51.6619 15.0839C50.9095 14.3482 49.9715 13.8176 48.9416 13.545C45.1608 12.554 30 12.554 30 12.554C30 12.554 14.8391 12.554 11.0583 13.545C10.0285 13.8176 9.09039 14.3482 8.33807 15.0839C7.58574 15.8195 7.04556 16.7343 6.77163 17.7367C5.7583 21.4337 5.7583 29.1482 5.7583 29.1482C5.7583 29.1482 5.7583 36.8628 6.77163 40.5606C7.04556 41.5629 7.58574 42.4777 8.33807 43.2134C9.09039 43.949 10.0285 44.4797 11.0583 44.7523C14.8391 45.7425 30 45.7425 30 45.7425C30 45.7425 45.1608 45.7425 48.9416 44.7523C49.9715 44.4797 50.9095 43.949 51.6619 43.2134C52.4142 42.4777 52.9544 41.5629 53.2283 40.5606C54.2416 36.8628 54.2416 29.1482 54.2416 29.1482C54.2416 29.1482 54.2416 21.4337 53.2283 17.7367Z" fill="#EA5A47"/>
<path d="M25.0416 36.1519L37.7133 29.1482L25.0416 22.1445V36.1519Z" fill="white"/>
<path d="M53.2283 17.7367C52.9544 16.7343 52.4142 15.8195 51.6619 15.0839C50.9095 14.3482 49.9715 13.8176 48.9416 13.545C45.1608 12.554 30 12.554 30 12.554C30 12.554 14.8391 12.554 11.0583 13.545C10.0285 13.8176 9.09039 14.3482 8.33807 15.0839C7.58574 15.8195 7.04556 16.7343 6.77163 17.7367C5.7583 21.4337 5.7583 29.1482 5.7583 29.1482C5.7583 29.1482 5.7583 36.8628 6.77163 40.5606C7.04556 41.5629 7.58574 42.4777 8.33807 43.2134C9.09039 43.949 10.0285 44.4797 11.0583 44.7523C14.8391 45.7425 30 45.7425 30 45.7425C30 45.7425 45.1608 45.7425 48.9416 44.7523C49.9715 44.4797 50.9095 43.949 51.6619 43.2134C52.4142 42.4777 52.9544 41.5629 53.2283 40.5606C54.2416 36.8628 54.2416 29.1482 54.2416 29.1482C54.2416 29.1482 54.2416 21.4337 53.2283 17.7367Z" stroke="black" stroke-width="2" stroke-miterlimit="10"/>
<path d="M25.0416 36.1519L37.7133 29.1482L25.0416 22.1445V36.1519Z" stroke="black" stroke-width="2" stroke-miterlimit="10" stroke-linecap="round" stroke-linejoin="round"/>
</svg>
