<svg width="51" height="51" viewBox="0 0 51 51" fill="none" xmlns="http://www.w3.org/2000/svg">
<g clip-path="url(#clip0_73_34)">
<path d="M38.2939 0.525879H11.7314C5.25936 0.525879 0.0126953 5.77254 0.0126953 12.2446V38.8071C0.0126953 45.2792 5.25936 50.5259 11.7314 50.5259H38.2939C44.766 50.5259 50.0127 45.2792 50.0127 38.8071V12.2446C50.0127 5.77254 44.766 0.525879 38.2939 0.525879Z" fill="url(#paint0_radial_73_34)"/>
<path d="M38.2939 0.525879H11.7314C5.25936 0.525879 0.0126953 5.77254 0.0126953 12.2446V38.8071C0.0126953 45.2792 5.25936 50.5259 11.7314 50.5259H38.2939C44.766 50.5259 50.0127 45.2792 50.0127 38.8071V12.2446C50.0127 5.77254 44.766 0.525879 38.2939 0.525879Z" fill="url(#paint1_radial_73_34)"/>
<path d="M25.0145 5.99463C19.7102 5.99463 19.0443 6.01787 16.9611 6.1126C14.8818 6.20791 13.4625 6.53701 12.2207 7.02002C10.9359 7.51885 9.84629 8.18623 8.76074 9.27217C7.67422 10.3579 7.00684 11.4476 6.50645 12.7317C6.02207 13.9739 5.69258 15.3938 5.59902 17.4722C5.50586 19.5556 5.48145 20.2216 5.48145 25.5261C5.48145 30.8306 5.50488 31.4942 5.59941 33.5774C5.69512 35.6567 6.02422 37.0761 6.50684 38.3179C7.00605 39.6026 7.67344 40.6923 8.75938 41.7778C9.84473 42.8644 10.9344 43.5333 12.2182 44.0321C13.4609 44.5151 14.8805 44.8442 16.9594 44.9395C19.0428 45.0343 19.708 45.0575 25.0121 45.0575C30.317 45.0575 30.9807 45.0343 33.0639 44.9395C35.1432 44.8442 36.5641 44.5151 37.8068 44.0321C39.091 43.5333 40.1791 42.8644 41.2643 41.7778C42.3508 40.6923 43.018 39.6026 43.5186 38.3185C43.9986 37.0761 44.3283 35.6563 44.426 33.5778C44.5195 31.4946 44.5439 30.8306 44.5439 25.5261C44.5439 20.2216 44.5195 19.556 44.426 17.4726C44.3283 15.3933 43.9986 13.9741 43.5186 12.7323C43.018 11.4476 42.3508 10.3579 41.2643 9.27217C40.1779 8.18584 39.0914 7.51846 37.8057 7.02021C36.5605 6.53701 35.1404 6.20771 33.0611 6.1126C30.9777 6.01787 30.3145 5.99463 25.0084 5.99463H25.0145ZM23.2623 9.51436C23.7824 9.51357 24.3627 9.51436 25.0145 9.51436C30.2295 9.51436 30.8475 9.53311 32.9068 9.62666C34.8111 9.71377 35.8447 10.0319 36.5332 10.2993C37.4447 10.6532 38.0945 11.0765 38.7777 11.7603C39.4613 12.4438 39.8844 13.0948 40.2393 14.0063C40.5066 14.6938 40.8252 15.7274 40.9119 17.6317C41.0055 19.6907 41.0258 20.3091 41.0258 25.5216C41.0258 30.7341 41.0055 31.3526 40.9119 33.4114C40.8248 35.3157 40.5066 36.3493 40.2393 37.037C39.8854 37.9485 39.4613 38.5976 38.7777 39.2808C38.0941 39.9644 37.4451 40.3874 36.5332 40.7415C35.8455 41.0101 34.8111 41.3274 32.9068 41.4146C30.8479 41.5081 30.2295 41.5284 25.0145 41.5284C19.7992 41.5284 19.1811 41.5081 17.1223 41.4146C15.218 41.3267 14.1844 41.0085 13.4953 40.7411C12.584 40.387 11.9328 39.964 11.2492 39.2804C10.5656 38.5968 10.1426 37.9474 9.7877 37.0354C9.52031 36.3478 9.20176 35.3142 9.11504 33.4099C9.02148 31.3509 9.00273 30.7325 9.00273 25.5167C9.00273 20.3011 9.02148 19.6858 9.11504 17.6269C9.20215 15.7226 9.52031 14.689 9.7877 14.0005C10.1418 13.089 10.5656 12.438 11.2494 11.7544C11.933 11.0708 12.584 10.6476 13.4955 10.2929C14.184 10.0243 15.218 9.70693 17.1223 9.61943C18.924 9.53799 19.6223 9.51357 23.2623 9.50947V9.51436ZM35.4402 12.7573C34.1463 12.7573 33.0965 13.8062 33.0965 15.1003C33.0965 16.3942 34.1463 17.444 35.4402 17.444C36.7342 17.444 37.784 16.3942 37.784 15.1003C37.784 13.8063 36.7342 12.7565 35.4402 12.7565V12.7573ZM25.0145 15.4958C19.4754 15.4958 14.9844 19.9868 14.9844 25.5261C14.9844 31.0653 19.4754 35.5542 25.0145 35.5542C30.5537 35.5542 35.0432 31.0653 35.0432 25.5261C35.0432 19.987 30.5533 15.4958 25.0141 15.4958H25.0145ZM25.0145 19.0155C28.61 19.0155 31.525 21.9302 31.525 25.5261C31.525 29.1216 28.61 32.0366 25.0145 32.0366C21.4188 32.0366 18.5041 29.1216 18.5041 25.5261C18.5041 21.9302 21.4188 19.0155 25.0145 19.0155Z" fill="white"/>
</g>
<defs>
<radialGradient id="paint0_radial_73_34" cx="0" cy="0" r="1" gradientUnits="userSpaceOnUse" gradientTransform="translate(13.2939 54.3769) rotate(-90) scale(49.5537 46.0889)">
<stop stop-color="#FFDD55"/>
<stop offset="0.1" stop-color="#FFDD55"/>
<stop offset="0.5" stop-color="#FF543E"/>
<stop offset="1" stop-color="#C837AB"/>
</radialGradient>
<radialGradient id="paint1_radial_73_34" cx="0" cy="0" r="1" gradientUnits="userSpaceOnUse" gradientTransform="translate(-8.3625 4.12764) rotate(78.681) scale(22.1508 91.3062)">
<stop stop-color="#3771C8"/>
<stop offset="0.128" stop-color="#3771C8"/>
<stop offset="1" stop-color="#6600FF" stop-opacity="0"/>
</radialGradient>
<clipPath id="clip0_73_34">
<rect width="50" height="50" fill="white" transform="translate(0.0126953 0.525879)"/>
</clipPath>
</defs>
</svg>
