<svg width="53" height="53" viewBox="0 0 53 53" fill="none" xmlns="http://www.w3.org/2000/svg">
<g filter="url(#filter0_iii_37_106)">
<path d="M43.354 3.39038H9.72222C6.24627 3.39038 3.42847 6.20819 3.42847 9.68413V43.3159C3.42847 46.7919 6.24627 49.6097 9.72222 49.6097H43.354C46.83 49.6097 49.6478 46.7919 49.6478 43.3159V9.68413C49.6478 6.20819 46.83 3.39038 43.354 3.39038Z" fill="#D8D1E0"/>
</g>
<path d="M43.354 3.39038H9.72222C6.24627 3.39038 3.42847 6.20819 3.42847 9.68413V43.3159C3.42847 46.7919 6.24627 49.6097 9.72222 49.6097H43.354C46.83 49.6097 49.6478 46.7919 49.6478 43.3159V9.68413C49.6478 6.20819 46.83 3.39038 43.354 3.39038Z" fill="url(#paint0_linear_37_106)"/>
<path d="M43.354 3.39038H9.72222C6.24627 3.39038 3.42847 6.20819 3.42847 9.68413V43.3159C3.42847 46.7919 6.24627 49.6097 9.72222 49.6097H43.354C46.83 49.6097 49.6478 46.7919 49.6478 43.3159V9.68413C49.6478 6.20819 46.83 3.39038 43.354 3.39038Z" fill="url(#paint1_radial_37_106)"/>
<path d="M43.354 3.39038H9.72222C6.24627 3.39038 3.42847 6.20819 3.42847 9.68413V43.3159C3.42847 46.7919 6.24627 49.6097 9.72222 49.6097H43.354C46.83 49.6097 49.6478 46.7919 49.6478 43.3159V9.68413C49.6478 6.20819 46.83 3.39038 43.354 3.39038Z" fill="url(#paint2_radial_37_106)"/>
<path fill-rule="evenodd" clip-rule="evenodd" d="M19.1247 3.39038H17.4685V17.2863H3.42847V18.9426H17.4685V33.7991H3.42847V35.4554H17.4685V49.6097H19.1247V35.4537H34.031V49.6097H35.6872V35.4537H49.6494V33.7975H35.6872V18.9442H49.6494V17.288H35.6872V3.39038H34.031V17.2863H19.1247V3.39038ZM34.031 18.9426V33.7991H19.1247V18.9426H34.031Z" fill="url(#paint3_linear_37_106)"/>
<path fill-rule="evenodd" clip-rule="evenodd" d="M19.1247 3.39038H17.4685V17.2863H3.42847V18.9426H17.4685V33.7991H3.42847V35.4554H17.4685V49.6097H19.1247V35.4537H34.031V49.6097H35.6872V35.4537H49.6494V33.7975H35.6872V18.9442H49.6494V17.288H35.6872V3.39038H34.031V17.2863H19.1247V3.39038ZM34.031 18.9426V33.7991H19.1247V18.9426H34.031Z" fill="url(#paint4_linear_37_106)"/>
<path fill-rule="evenodd" clip-rule="evenodd" d="M19.1247 3.39038H17.4685V17.2863H3.42847V18.9426H17.4685V33.7991H3.42847V35.4554H17.4685V49.6097H19.1247V35.4537H34.031V49.6097H35.6872V35.4537H49.6494V33.7975H35.6872V18.9442H49.6494V17.288H35.6872V3.39038H34.031V17.2863H19.1247V3.39038ZM34.031 18.9426V33.7991H19.1247V18.9426H34.031Z" fill="url(#paint5_linear_37_106)"/>
<path fill-rule="evenodd" clip-rule="evenodd" d="M19.1247 3.39038H17.4685V17.2863H3.42847V18.9426H17.4685V33.7991H3.42847V35.4554H17.4685V49.6097H19.1247V35.4537H34.031V49.6097H35.6872V35.4537H49.6494V33.7975H35.6872V18.9442H49.6494V17.288H35.6872V3.39038H34.031V17.2863H19.1247V3.39038ZM34.031 18.9426V33.7991H19.1247V18.9426H34.031Z" fill="url(#paint6_linear_37_106)"/>
<g filter="url(#filter1_f_37_106)">
<path d="M5.07312 44.689C4.90362 44.134 4.81766 43.5568 4.81806 42.9765V40.5865L15.7261 29.6801C16.4377 28.9676 17.4001 28.5623 18.407 28.5512C19.4139 28.54 20.3851 28.9239 21.1122 29.6205L24.0786 32.4626C24.224 32.6017 24.418 32.6783 24.6192 32.6761C24.8204 32.674 25.0128 32.5932 25.1551 32.451L47.5609 10.0668C47.7116 10.5868 47.7928 11.1367 47.7928 11.7065V14.1875L27.3348 34.6323C26.6229 35.3433 25.6609 35.7474 24.6548 35.7579C23.6488 35.7684 22.6785 35.3846 21.952 34.6886L18.9823 31.8465C18.8369 31.7074 18.6429 31.6307 18.4417 31.6329C18.2405 31.6351 18.0481 31.7159 17.9057 31.8581L5.07312 44.689Z" fill="#B19AA4"/>
<path d="M5.07312 44.689C4.90362 44.134 4.81766 43.5568 4.81806 42.9765V40.5865L15.7261 29.6801C16.4377 28.9676 17.4001 28.5623 18.407 28.5512C19.4139 28.54 20.3851 28.9239 21.1122 29.6205L24.0786 32.4626C24.224 32.6017 24.418 32.6783 24.6192 32.6761C24.8204 32.674 25.0128 32.5932 25.1551 32.451L47.5609 10.0668C47.7116 10.5868 47.7928 11.1367 47.7928 11.7065V14.1875L27.3348 34.6323C26.6229 35.3433 25.6609 35.7474 24.6548 35.7579C23.6488 35.7684 22.6785 35.3846 21.952 34.6886L18.9823 31.8465C18.8369 31.7074 18.6429 31.6307 18.4417 31.6329C18.2405 31.6351 18.0481 31.7159 17.9057 31.8581L5.07312 44.689Z" fill="url(#paint7_radial_37_106)"/>
</g>
<g filter="url(#filter2_i_37_106)">
<path d="M3.7034 45.1577C3.52094 44.5608 3.42828 43.9401 3.42847 43.3159V40.7454L15.1613 29.0142C15.9268 28.2491 16.9614 27.814 18.0436 27.8023C19.1259 27.7905 20.1697 28.2029 20.9516 28.9513L24.1432 32.0087C24.2997 32.1587 24.5088 32.2413 24.7256 32.2388C24.9423 32.2364 25.1495 32.149 25.3026 31.9955L49.3993 7.92188C49.5617 8.48003 49.6478 9.07297 49.6478 9.68413V12.354L27.6428 34.3391C26.8772 35.104 25.8424 35.5387 24.7602 35.5502C23.678 35.5616 22.6343 35.1489 21.8526 34.4003L18.661 31.3446C18.5045 31.1946 18.2954 31.112 18.0786 31.1144C17.8618 31.1169 17.6547 31.2043 17.5016 31.3578L3.7034 45.1577Z" fill="url(#paint8_linear_37_106)"/>
</g>
<g filter="url(#filter3_f_37_106)">
<path d="M5.62463 41.0502L16.5277 30.0311C16.9863 29.5677 17.6087 29.3031 18.2606 29.2944C18.9125 29.2857 19.5417 29.5337 20.0125 29.9848L23.1974 33.0339C23.6658 33.4822 24.2908 33.7297 24.9391 33.7235C25.5874 33.7173 26.2076 33.458 26.6673 33.0008L48.9273 10.8385" stroke="url(#paint9_radial_37_106)" stroke-width="0.5"/>
<path d="M5.62463 41.0502L16.5277 30.0311C16.9863 29.5677 17.6087 29.3031 18.2606 29.2944C18.9125 29.2857 19.5417 29.5337 20.0125 29.9848L23.1974 33.0339C23.6658 33.4822 24.2908 33.7297 24.9391 33.7235C25.5874 33.7173 26.2076 33.458 26.6673 33.0008L48.9273 10.8385" stroke="url(#paint10_linear_37_106)" stroke-width="0.5"/>
</g>
<defs>
<filter id="filter0_iii_37_106" x="2.42847" y="2.39038" width="48.2193" height="48.2194" filterUnits="userSpaceOnUse" color-interpolation-filters="sRGB">
<feFlood flood-opacity="0" result="BackgroundImageFix"/>
<feBlend mode="normal" in="SourceGraphic" in2="BackgroundImageFix" result="shape"/>
<feColorMatrix in="SourceAlpha" type="matrix" values="0 0 0 0 0 0 0 0 0 0 0 0 0 0 0 0 0 0 127 0" result="hardAlpha"/>
<feOffset dx="-1" dy="1"/>
<feGaussianBlur stdDeviation="1"/>
<feComposite in2="hardAlpha" operator="arithmetic" k2="-1" k3="1"/>
<feColorMatrix type="matrix" values="0 0 0 0 0.878431 0 0 0 0 0.87451 0 0 0 0 0.886275 0 0 0 1 0"/>
<feBlend mode="normal" in2="shape" result="effect1_innerShadow_37_106"/>
<feColorMatrix in="SourceAlpha" type="matrix" values="0 0 0 0 0 0 0 0 0 0 0 0 0 0 0 0 0 0 127 0" result="hardAlpha"/>
<feOffset dx="1" dy="-1"/>
<feGaussianBlur stdDeviation="1"/>
<feComposite in2="hardAlpha" operator="arithmetic" k2="-1" k3="1"/>
<feColorMatrix type="matrix" values="0 0 0 0 0.72549 0 0 0 0 0.698039 0 0 0 0 0.74902 0 0 0 1 0"/>
<feBlend mode="normal" in2="effect1_innerShadow_37_106" result="effect2_innerShadow_37_106"/>
<feColorMatrix in="SourceAlpha" type="matrix" values="0 0 0 0 0 0 0 0 0 0 0 0 0 0 0 0 0 0 127 0" result="hardAlpha"/>
<feOffset dx="0.25"/>
<feGaussianBlur stdDeviation="0.25"/>
<feComposite in2="hardAlpha" operator="arithmetic" k2="-1" k3="1"/>
<feColorMatrix type="matrix" values="0 0 0 0 0.729412 0 0 0 0 0.729412 0 0 0 0 0.729412 0 0 0 1 0"/>
<feBlend mode="normal" in2="effect2_innerShadow_37_106" result="effect3_innerShadow_37_106"/>
</filter>
<filter id="filter1_f_37_106" x="3.81805" y="9.06677" width="44.9747" height="36.6222" filterUnits="userSpaceOnUse" color-interpolation-filters="sRGB">
<feFlood flood-opacity="0" result="BackgroundImageFix"/>
<feBlend mode="normal" in="SourceGraphic" in2="BackgroundImageFix" result="shape"/>
<feGaussianBlur stdDeviation="0.5" result="effect1_foregroundBlur_37_106"/>
</filter>
<filter id="filter2_i_37_106" x="3.42847" y="7.92188" width="46.4693" height="37.4858" filterUnits="userSpaceOnUse" color-interpolation-filters="sRGB">
<feFlood flood-opacity="0" result="BackgroundImageFix"/>
<feBlend mode="normal" in="SourceGraphic" in2="BackgroundImageFix" result="shape"/>
<feColorMatrix in="SourceAlpha" type="matrix" values="0 0 0 0 0 0 0 0 0 0 0 0 0 0 0 0 0 0 127 0" result="hardAlpha"/>
<feOffset dx="0.25" dy="0.25"/>
<feGaussianBlur stdDeviation="0.25"/>
<feComposite in2="hardAlpha" operator="arithmetic" k2="-1" k3="1"/>
<feColorMatrix type="matrix" values="0 0 0 0 0.835294 0 0 0 0 0.239216 0 0 0 0 0.356863 0 0 0 1 0"/>
<feBlend mode="normal" in2="shape" result="effect1_innerShadow_37_106"/>
</filter>
<filter id="filter3_f_37_106" x="4.8469" y="10.0614" width="44.8568" height="31.7646" filterUnits="userSpaceOnUse" color-interpolation-filters="sRGB">
<feFlood flood-opacity="0" result="BackgroundImageFix"/>
<feBlend mode="normal" in="SourceGraphic" in2="BackgroundImageFix" result="shape"/>
<feGaussianBlur stdDeviation="0.3" result="effect1_foregroundBlur_37_106"/>
</filter>
<linearGradient id="paint0_linear_37_106" x1="35.6077" y1="50.0453" x2="35.6077" y2="46.2392" gradientUnits="userSpaceOnUse">
<stop stop-color="#A88AC4"/>
<stop offset="1" stop-color="#CDBCE0" stop-opacity="0"/>
</linearGradient>
<radialGradient id="paint1_radial_37_106" cx="0" cy="0" r="1" gradientUnits="userSpaceOnUse" gradientTransform="translate(49.6494 27.1543) rotate(177.86) scale(9.26255 36.1126)">
<stop stop-color="#F2EDF5"/>
<stop offset="1" stop-color="#DED3E7" stop-opacity="0"/>
</radialGradient>
<radialGradient id="paint2_radial_37_106" cx="0" cy="0" r="1" gradientUnits="userSpaceOnUse" gradientTransform="translate(49.0416 4.78329) rotate(138.434) scale(8.16864 8.45514)">
<stop stop-color="#F7F4F7"/>
<stop offset="1" stop-color="#E2DCE5" stop-opacity="0"/>
</radialGradient>
<linearGradient id="paint3_linear_37_106" x1="26.5398" y1="7.21963" x2="26.5398" y2="49.6097" gradientUnits="userSpaceOnUse">
<stop stop-color="#C2BEC6"/>
<stop offset="1" stop-color="#BAACC6"/>
</linearGradient>
<linearGradient id="paint4_linear_37_106" x1="36.0102" y1="50.7939" x2="36.0102" y2="45.0285" gradientUnits="userSpaceOnUse">
<stop stop-color="#9E83B7"/>
<stop offset="1" stop-color="#9E83B7" stop-opacity="0"/>
</linearGradient>
<linearGradient id="paint5_linear_37_106" x1="1.82522" y1="28.7509" x2="10.6232" y2="28.7509" gradientUnits="userSpaceOnUse">
<stop stop-color="#96909C"/>
<stop offset="1" stop-color="#96909C" stop-opacity="0"/>
</linearGradient>
<linearGradient id="paint6_linear_37_106" x1="50.9943" y1="29.8904" x2="44.6807" y2="29.8904" gradientUnits="userSpaceOnUse">
<stop stop-color="#D6D1DA"/>
<stop offset="1" stop-color="#D6D1DA" stop-opacity="0"/>
</linearGradient>
<radialGradient id="paint7_radial_37_106" cx="0" cy="0" r="1" gradientUnits="userSpaceOnUse" gradientTransform="translate(17.977 32.2572) rotate(71.9277) scale(4.99938 6.20563)">
<stop offset="0.578" stop-color="#814F7C"/>
<stop offset="1" stop-color="#814F7C" stop-opacity="0"/>
</radialGradient>
<linearGradient id="paint8_linear_37_106" x1="45.8185" y1="22.2302" x2="6.79397" y2="38.3787" gradientUnits="userSpaceOnUse">
<stop stop-color="#DA267D"/>
<stop offset="1" stop-color="#DF2B49"/>
</linearGradient>
<radialGradient id="paint9_radial_37_106" cx="0" cy="0" r="1" gradientUnits="userSpaceOnUse" gradientTransform="translate(22.1159 30.9023) rotate(122.6) scale(11.7717 15.939)">
<stop stop-color="#F35571"/>
<stop offset="1" stop-color="#F35571" stop-opacity="0"/>
</radialGradient>
<linearGradient id="paint10_linear_37_106" x1="50.3103" y1="10.8385" x2="27.2751" y2="35.5729" gradientUnits="userSpaceOnUse">
<stop stop-color="#EE4591"/>
<stop offset="1" stop-color="#EE4591" stop-opacity="0"/>
</linearGradient>
</defs>
</svg>
