<svg width="63" height="63" viewBox="0 0 63 63" fill="none" xmlns="http://www.w3.org/2000/svg">
<path d="M23.7579 17.01L15.4399 23.7382L19.2937 39.9164L23.5266 44.3756L39.8524 43.2436L44.3904 38.6318C44.3904 38.6318 43.8588 22.4536 43.6324 22.3059C43.406 22.1534 39.9262 18.9788 39.9262 18.9788L23.7579 17.01Z" fill="#8FD0EB"/>
<path d="M25.5987 37.6376C26.1105 38.2183 28.5961 35.5901 31.5049 35.5458C34.4285 35.5015 36.732 37.7262 37.0962 37.3619C37.4604 36.9977 35.3686 34.2267 35.3686 31.3179C35.3686 28.409 38.0461 25.8595 37.6622 25.4067C37.2094 24.8702 34.7287 27.2278 31.4557 27.2721C28.1827 27.3164 26.1056 24.7472 25.3673 25.2246C24.6241 25.702 27.277 28.5862 27.1835 31.5886C27.0998 34.5909 25.2345 37.229 25.5987 37.6376Z" fill="#FEFEFE"/>
<path d="M31.372 1.4618C30.4959 1.49625 27.8726 4.91696 25.5544 7.09735C23.2362 9.27774 20.2387 12.2801 20.7359 16.1438C21.233 20.0074 25.2344 24.3682 31.9184 24.4174C38.6023 24.4666 42.4955 18.7819 42.5545 15.9173C42.6431 11.5073 38.5481 8.24907 36.2841 6.09821C33.7788 3.72586 32.3564 1.42243 31.372 1.4618Z" fill="url(#paint0_radial_37_58)"/>
<path d="M38.238 31.7018C38.0018 40.0395 45.109 44.1788 50.6461 41.0977C56.1832 38.0166 61.0903 31.7756 61.1592 31.1456C61.1937 30.8356 59.2101 28.793 56.8132 26.5191C54.3375 24.1713 51.8372 21.6809 47.8406 21.2625C43.6816 20.8146 38.4546 24.132 38.238 31.7018Z" fill="url(#paint1_radial_37_58)"/>
<path d="M1.71773 31.7018C1.54546 32.3417 4.23773 34.5663 7.75195 37.6228C10.4393 39.9607 13.1463 42.2149 16.0896 42.146C18.964 42.0771 24.0089 39.2717 23.94 31.2096C23.8612 21.9516 18.1371 19.8056 15.1052 20.2732C12.2456 20.7162 9.87819 22.7883 7.35819 25.2542C4.68562 27.8726 1.93429 30.9045 1.71773 31.7018Z" fill="url(#paint2_radial_37_58)"/>
<path d="M31.4409 38.6416C26.0416 38.5924 20.3667 42.4265 21.0656 48.8053C21.3708 51.591 23.5019 53.7813 25.6922 55.9567C28.5173 58.7622 31.5591 61.2035 32.0709 61.2822C32.5237 61.3511 35.6688 58.3192 38.3119 54.9724C40.1182 52.6837 41.7867 50.2621 41.8162 48.5247C41.8851 44.2476 38.9419 38.7105 31.4409 38.6416Z" fill="url(#paint3_radial_37_58)"/>
<path d="M42.2444 17.0247C41.7276 17.069 39.6801 22.2272 40.4135 22.9162C41.1567 23.6151 46.3542 21.5775 46.2607 20.6964C46.177 19.8204 43.0812 16.9607 42.2444 17.0247ZM20.9081 16.0797C20.096 15.7647 16.7885 18.8261 16.8574 20.0468C16.9066 20.913 22.0106 23.0393 22.808 22.3157C23.5955 21.5873 21.6218 16.3554 20.9081 16.0797ZM23.0984 39.877C22.6012 39.3356 17.704 40.6005 17.6794 41.954C17.6498 43.8096 20.2437 45.5864 21.1099 45.3403C21.9959 45.0893 24.0581 40.9204 23.0984 39.877ZM39.6506 40.0788C38.9074 40.822 40.7039 45.4584 41.5701 45.6307C43.1304 45.9457 45.4978 42.6972 45.2517 41.9294C44.9269 40.9303 40.1723 39.5571 39.6506 40.0788Z" fill="#034EAC"/>
<defs>
<radialGradient id="paint0_radial_37_58" cx="0" cy="0" r="1" gradientUnits="userSpaceOnUse" gradientTransform="translate(31.6181 25.5145) scale(17.6735 17.6735)">
<stop offset="0.427" stop-color="#1F87FB"/>
<stop offset="0.816" stop-color="#05BFEA"/>
</radialGradient>
<radialGradient id="paint1_radial_37_58" cx="0" cy="0" r="1" gradientUnits="userSpaceOnUse" gradientTransform="translate(34.5668 31.3725) scale(18.8695)">
<stop offset="0.427" stop-color="#1F87FB"/>
<stop offset="0.816" stop-color="#05BFEA"/>
</radialGradient>
<radialGradient id="paint2_radial_37_58" cx="0" cy="0" r="1" gradientUnits="userSpaceOnUse" gradientTransform="translate(25.8452 30.9817) scale(18.0308 18.0308)">
<stop offset="0.427" stop-color="#1F87FB"/>
<stop offset="0.816" stop-color="#05BFEA"/>
</radialGradient>
<radialGradient id="paint3_radial_37_58" cx="0" cy="0" r="1" gradientUnits="userSpaceOnUse" gradientTransform="translate(31.4429 38.4014) scale(16.0133)">
<stop offset="0.427" stop-color="#1F87FB"/>
<stop offset="0.816" stop-color="#05BFEA"/>
</radialGradient>
</defs>
</svg>
