<svg width="48" height="42" viewBox="0 0 48 42" fill="none" xmlns="http://www.w3.org/2000/svg">
<g filter="url(#filter0_i_37_265)">
<path d="M8.49863 1.91812C9.26138 1.5418 11.2661 0.753742 14.5382 1.05412C19.9905 1.84387 24.1704 2.47499 25.6116 2.70787L22.1066 4.82062C22.9282 5.64363 23.6339 6.57468 24.2042 7.58812L24.8539 6.84224L43.1751 22.8651C43.7824 23.3972 44.2024 24.1108 44.3729 24.9001C44.5433 25.6895 44.4552 26.5127 44.1216 27.2481C43.788 27.9836 43.2265 28.5921 42.5203 28.9837C41.814 29.3753 41.0005 29.5292 40.2 29.4227C40.5728 30.1536 40.7157 30.9803 40.6101 31.794C40.5044 32.6077 40.1551 33.3704 39.608 33.9819C39.0609 34.5934 38.3417 35.0252 37.5447 35.2204C36.7477 35.4156 35.9104 35.3652 35.1426 35.0758C35.1202 35.7841 34.9132 36.4743 34.5419 37.078C34.1707 37.6817 33.6481 38.1778 33.026 38.5174C32.404 38.8569 31.704 39.0279 30.9954 39.0136C30.2869 38.9993 29.5944 38.8 28.9866 38.4356C28.8482 39.1494 28.5241 39.8141 28.047 40.3628C27.57 40.9115 26.9567 41.3248 26.2691 41.5611C25.5815 41.7974 24.8438 41.8483 24.1302 41.7087C23.4166 41.5691 22.7524 41.244 22.2045 40.7661L7.28026 27.7554C6.80014 27.3377 6.42256 26.8152 6.17676 26.2282C5.93096 25.6412 5.82352 25.0055 5.86276 24.3703C3.94225 23.0551 2.41782 21.2399 1.45432 19.121C0.490813 17.0021 0.124892 14.6601 0.396125 12.3483C0.667358 10.0365 1.56542 7.8428 2.99321 6.00446C4.421 4.16612 6.32586 2.75307 8.49863 1.91812Z" fill="url(#paint0_linear_37_265)"/>
<path d="M8.49863 1.91812C9.26138 1.5418 11.2661 0.753742 14.5382 1.05412C19.9905 1.84387 24.1704 2.47499 25.6116 2.70787L22.1066 4.82062C22.9282 5.64363 23.6339 6.57468 24.2042 7.58812L24.8539 6.84224L43.1751 22.8651C43.7824 23.3972 44.2024 24.1108 44.3729 24.9001C44.5433 25.6895 44.4552 26.5127 44.1216 27.2481C43.788 27.9836 43.2265 28.5921 42.5203 28.9837C41.814 29.3753 41.0005 29.5292 40.2 29.4227C40.5728 30.1536 40.7157 30.9803 40.6101 31.794C40.5044 32.6077 40.1551 33.3704 39.608 33.9819C39.0609 34.5934 38.3417 35.0252 37.5447 35.2204C36.7477 35.4156 35.9104 35.3652 35.1426 35.0758C35.1202 35.7841 34.9132 36.4743 34.5419 37.078C34.1707 37.6817 33.6481 38.1778 33.026 38.5174C32.404 38.8569 31.704 39.0279 30.9954 39.0136C30.2869 38.9993 29.5944 38.8 28.9866 38.4356C28.8482 39.1494 28.5241 39.8141 28.047 40.3628C27.57 40.9115 26.9567 41.3248 26.2691 41.5611C25.5815 41.7974 24.8438 41.8483 24.1302 41.7087C23.4166 41.5691 22.7524 41.244 22.2045 40.7661L7.28026 27.7554C6.80014 27.3377 6.42256 26.8152 6.17676 26.2282C5.93096 25.6412 5.82352 25.0055 5.86276 24.3703C3.94225 23.0551 2.41782 21.2399 1.45432 19.121C0.490813 17.0021 0.124892 14.6601 0.396125 12.3483C0.667358 10.0365 1.56542 7.8428 2.99321 6.00446C4.421 4.16612 6.32586 2.75307 8.49863 1.91812Z" fill="url(#paint1_radial_37_265)"/>
</g>
<path d="M8.49863 1.91812C9.26138 1.5418 11.2661 0.753742 14.5382 1.05412C19.9905 1.84387 24.1704 2.47499 25.6116 2.70787L22.1066 4.82062C22.9282 5.64363 23.6339 6.57468 24.2042 7.58812L24.8539 6.84224L43.1751 22.8651C43.7824 23.3972 44.2024 24.1108 44.3729 24.9001C44.5433 25.6895 44.4552 26.5127 44.1216 27.2481C43.788 27.9836 43.2265 28.5921 42.5203 28.9837C41.814 29.3753 41.0005 29.5292 40.2 29.4227C40.5728 30.1536 40.7157 30.9803 40.6101 31.794C40.5044 32.6077 40.1551 33.3704 39.608 33.9819C39.0609 34.5934 38.3417 35.0252 37.5447 35.2204C36.7477 35.4156 35.9104 35.3652 35.1426 35.0758C35.1202 35.7841 34.9132 36.4743 34.5419 37.078C34.1707 37.6817 33.6481 38.1778 33.026 38.5174C32.404 38.8569 31.704 39.0279 30.9954 39.0136C30.2869 38.9993 29.5944 38.8 28.9866 38.4356C28.8482 39.1494 28.5241 39.8141 28.047 40.3628C27.57 40.9115 26.9567 41.3248 26.2691 41.5611C25.5815 41.7974 24.8438 41.8483 24.1302 41.7087C23.4166 41.5691 22.7524 41.244 22.2045 40.7661L7.28026 27.7554C6.80014 27.3377 6.42256 26.8152 6.17676 26.2282C5.93096 25.6412 5.82352 25.0055 5.86276 24.3703C3.94225 23.0551 2.41782 21.2399 1.45432 19.121C0.490813 17.0021 0.124892 14.6601 0.396125 12.3483C0.667358 10.0365 1.56542 7.8428 2.99321 6.00446C4.421 4.16612 6.32586 2.75307 8.49863 1.91812Z" fill="url(#paint2_radial_37_265)"/>
<path d="M8.49863 1.91812C9.26138 1.5418 11.2661 0.753742 14.5382 1.05412C19.9905 1.84387 24.1704 2.47499 25.6116 2.70787L22.1066 4.82062C22.9282 5.64363 23.6339 6.57468 24.2042 7.58812L24.8539 6.84224L43.1751 22.8651C43.7824 23.3972 44.2024 24.1108 44.3729 24.9001C44.5433 25.6895 44.4552 26.5127 44.1216 27.2481C43.788 27.9836 43.2265 28.5921 42.5203 28.9837C41.814 29.3753 41.0005 29.5292 40.2 29.4227C40.5728 30.1536 40.7157 30.9803 40.6101 31.794C40.5044 32.6077 40.1551 33.3704 39.608 33.9819C39.0609 34.5934 38.3417 35.0252 37.5447 35.2204C36.7477 35.4156 35.9104 35.3652 35.1426 35.0758C35.1202 35.7841 34.9132 36.4743 34.5419 37.078C34.1707 37.6817 33.6481 38.1778 33.026 38.5174C32.404 38.8569 31.704 39.0279 30.9954 39.0136C30.2869 38.9993 29.5944 38.8 28.9866 38.4356C28.8482 39.1494 28.5241 39.8141 28.047 40.3628C27.57 40.9115 26.9567 41.3248 26.2691 41.5611C25.5815 41.7974 24.8438 41.8483 24.1302 41.7087C23.4166 41.5691 22.7524 41.244 22.2045 40.7661L7.28026 27.7554C6.80014 27.3377 6.42256 26.8152 6.17676 26.2282C5.93096 25.6412 5.82352 25.0055 5.86276 24.3703C3.94225 23.0551 2.41782 21.2399 1.45432 19.121C0.490813 17.0021 0.124892 14.6601 0.396125 12.3483C0.667358 10.0365 1.56542 7.8428 2.99321 6.00446C4.421 4.16612 6.32586 2.75307 8.49863 1.91812Z" fill="url(#paint3_radial_37_265)"/>
<path d="M8.49863 1.91812C9.26138 1.5418 11.2661 0.753742 14.5382 1.05412C19.9905 1.84387 24.1704 2.47499 25.6116 2.70787L22.1066 4.82062C22.9282 5.64363 23.6339 6.57468 24.2042 7.58812L24.8539 6.84224L43.1751 22.8651C43.7824 23.3972 44.2024 24.1108 44.3729 24.9001C44.5433 25.6895 44.4552 26.5127 44.1216 27.2481C43.788 27.9836 43.2265 28.5921 42.5203 28.9837C41.814 29.3753 41.0005 29.5292 40.2 29.4227C40.5728 30.1536 40.7157 30.9803 40.6101 31.794C40.5044 32.6077 40.1551 33.3704 39.608 33.9819C39.0609 34.5934 38.3417 35.0252 37.5447 35.2204C36.7477 35.4156 35.9104 35.3652 35.1426 35.0758C35.1202 35.7841 34.9132 36.4743 34.5419 37.078C34.1707 37.6817 33.6481 38.1778 33.026 38.5174C32.404 38.8569 31.704 39.0279 30.9954 39.0136C30.2869 38.9993 29.5944 38.8 28.9866 38.4356C28.8482 39.1494 28.5241 39.8141 28.047 40.3628C27.57 40.9115 26.9567 41.3248 26.2691 41.5611C25.5815 41.7974 24.8438 41.8483 24.1302 41.7087C23.4166 41.5691 22.7524 41.244 22.2045 40.7661L7.28026 27.7554C6.80014 27.3377 6.42256 26.8152 6.17676 26.2282C5.93096 25.6412 5.82352 25.0055 5.86276 24.3703C3.94225 23.0551 2.41782 21.2399 1.45432 19.121C0.490813 17.0021 0.124892 14.6601 0.396125 12.3483C0.667358 10.0365 1.56542 7.8428 2.99321 6.00446C4.421 4.16612 6.32586 2.75307 8.49863 1.91812Z" fill="url(#paint4_radial_37_265)"/>
<path d="M8.49863 1.91812C9.26138 1.5418 11.2661 0.753742 14.5382 1.05412C19.9905 1.84387 24.1704 2.47499 25.6116 2.70787L22.1066 4.82062C22.9282 5.64363 23.6339 6.57468 24.2042 7.58812L24.8539 6.84224L43.1751 22.8651C43.7824 23.3972 44.2024 24.1108 44.3729 24.9001C44.5433 25.6895 44.4552 26.5127 44.1216 27.2481C43.788 27.9836 43.2265 28.5921 42.5203 28.9837C41.814 29.3753 41.0005 29.5292 40.2 29.4227C40.5728 30.1536 40.7157 30.9803 40.6101 31.794C40.5044 32.6077 40.1551 33.3704 39.608 33.9819C39.0609 34.5934 38.3417 35.0252 37.5447 35.2204C36.7477 35.4156 35.9104 35.3652 35.1426 35.0758C35.1202 35.7841 34.9132 36.4743 34.5419 37.078C34.1707 37.6817 33.6481 38.1778 33.026 38.5174C32.404 38.8569 31.704 39.0279 30.9954 39.0136C30.2869 38.9993 29.5944 38.8 28.9866 38.4356C28.8482 39.1494 28.5241 39.8141 28.047 40.3628C27.57 40.9115 26.9567 41.3248 26.2691 41.5611C25.5815 41.7974 24.8438 41.8483 24.1302 41.7087C23.4166 41.5691 22.7524 41.244 22.2045 40.7661L7.28026 27.7554C6.80014 27.3377 6.42256 26.8152 6.17676 26.2282C5.93096 25.6412 5.82352 25.0055 5.86276 24.3703C3.94225 23.0551 2.41782 21.2399 1.45432 19.121C0.490813 17.0021 0.124892 14.6601 0.396125 12.3483C0.667358 10.0365 1.56542 7.8428 2.99321 6.00446C4.421 4.16612 6.32586 2.75307 8.49863 1.91812Z" fill="url(#paint5_radial_37_265)"/>
<path d="M8.49863 1.91812C9.26138 1.5418 11.2661 0.753742 14.5382 1.05412C19.9905 1.84387 24.1704 2.47499 25.6116 2.70787L22.1066 4.82062C22.9282 5.64363 23.6339 6.57468 24.2042 7.58812L24.8539 6.84224L43.1751 22.8651C43.7824 23.3972 44.2024 24.1108 44.3729 24.9001C44.5433 25.6895 44.4552 26.5127 44.1216 27.2481C43.788 27.9836 43.2265 28.5921 42.5203 28.9837C41.814 29.3753 41.0005 29.5292 40.2 29.4227C40.5728 30.1536 40.7157 30.9803 40.6101 31.794C40.5044 32.6077 40.1551 33.3704 39.608 33.9819C39.0609 34.5934 38.3417 35.0252 37.5447 35.2204C36.7477 35.4156 35.9104 35.3652 35.1426 35.0758C35.1202 35.7841 34.9132 36.4743 34.5419 37.078C34.1707 37.6817 33.6481 38.1778 33.026 38.5174C32.404 38.8569 31.704 39.0279 30.9954 39.0136C30.2869 38.9993 29.5944 38.8 28.9866 38.4356C28.8482 39.1494 28.5241 39.8141 28.047 40.3628C27.57 40.9115 26.9567 41.3248 26.2691 41.5611C25.5815 41.7974 24.8438 41.8483 24.1302 41.7087C23.4166 41.5691 22.7524 41.244 22.2045 40.7661L7.28026 27.7554C6.80014 27.3377 6.42256 26.8152 6.17676 26.2282C5.93096 25.6412 5.82352 25.0055 5.86276 24.3703C3.94225 23.0551 2.41782 21.2399 1.45432 19.121C0.490813 17.0021 0.124892 14.6601 0.396125 12.3483C0.667358 10.0365 1.56542 7.8428 2.99321 6.00446C4.421 4.16612 6.32586 2.75307 8.49863 1.91812Z" fill="url(#paint6_radial_37_265)"/>
<g filter="url(#filter1_f_37_265)">
<path fill-rule="evenodd" clip-rule="evenodd" d="M4.9009 21.8003C4.31859 22.3916 3.9768 23.1782 3.94187 24.0074C3.90694 24.8366 4.18138 25.6491 4.7119 26.2873C5.10689 26.7681 5.62258 27.1352 6.20613 27.351C6.78969 27.5669 7.42014 27.6238 8.0329 27.5158C7.73538 28.1285 7.63645 28.8187 7.74988 29.4902C7.86332 30.1617 8.18347 30.7812 8.66571 31.2621C9.59721 32.1902 10.9894 32.526 12.169 32.148C11.9665 33.1538 12.444 34.2962 13.2608 35.1146C14.0674 35.9196 15.333 36.1238 16.3388 35.8031C16.2122 36.7178 16.4856 37.71 17.0914 38.4373C18.222 39.7975 20.4208 40.1366 21.8164 38.9706L24.0827 36.63C25.237 35.4977 25.1458 33.3191 24.0827 32.1008C23.3622 31.2722 22.3378 30.906 21.3658 31.0461C22.0223 29.9003 21.7624 28.3663 20.944 27.4298C20.1171 26.4848 18.9898 26.1186 17.9908 26.3329C18.2524 25.7057 18.3222 25.015 18.1912 24.3482C18.0602 23.6813 17.7345 23.0683 17.2551 22.5866C16.197 21.5488 14.5753 21.3953 13.3232 22.0804C13.4639 21.3677 13.3711 20.6286 13.0586 19.9728C12.7461 19.317 12.2305 18.7794 11.5883 18.4397C10.9462 18.1001 10.2116 17.9765 9.49363 18.0872C8.77566 18.198 8.11252 18.5373 7.60259 19.0547L4.9009 21.8003Z" fill="#FFB21A"/>
</g>
<g filter="url(#filter2_f_37_265)">
<path d="M22.3867 34.6235L26.4553 38.2618" stroke="url(#paint7_linear_37_265)" stroke-width="1.5" stroke-linecap="round"/>
</g>
<g filter="url(#filter3_f_37_265)">
<path d="M19.2885 4.69739C18.2872 4.97759 17.2995 5.3042 16.3286 5.67614L16.332 5.68458C15.8104 5.92705 15.3685 6.31277 15.0578 6.79678C14.7471 7.2808 14.5803 7.84316 14.577 8.41832C14.577 10.0991 15.9726 11.4592 17.6921 11.4592C18.1106 11.4592 18.5106 11.3782 18.8751 11.2314C19.1704 11.1403 19.4826 11.0407 19.8082 10.9378H19.8133L20.6841 10.6576C26.5869 8.75751 23.6541 8.08926 19.2885 4.69739Z" fill="#D77A15"/>
</g>
<g filter="url(#filter4_f_37_265)">
<path d="M27.5775 11.9587L42.0259 24.8259" stroke="url(#paint8_linear_37_265)" stroke-width="1.5" stroke-linecap="round"/>
</g>
<g filter="url(#filter5_f_37_265)">
<path d="M34.3781 27.3876L38.4501 31.0258" stroke="url(#paint9_linear_37_265)" stroke-width="1.5" stroke-linecap="round"/>
</g>
<g filter="url(#filter6_f_37_265)">
<path d="M28.8887 31.7228L32.959 35.3627" stroke="url(#paint10_linear_37_265)" stroke-width="1.5" stroke-linecap="round"/>
</g>
<path d="M2.74933 26.8746C2.16092 26.1672 1.85649 25.2662 1.89516 24.3469C1.93383 23.4275 2.31284 22.5554 2.95858 21.8999L5.95389 18.8573C6.3013 18.5064 6.71466 18.2276 7.1702 18.037C7.62573 17.8464 8.11445 17.7478 8.60825 17.7467C9.10204 17.7457 9.59117 17.8423 10.0475 18.0309C10.5038 18.2196 10.9184 18.4966 11.2673 18.8461C11.6162 19.1955 11.8925 19.6105 12.0805 20.0671C12.2684 20.5238 12.3642 21.013 12.3624 21.5068C12.3606 22.0006 12.2611 22.4892 12.0698 22.9444C11.8785 23.3996 11.599 23.8126 11.2476 24.1594L8.20839 27.3083C6.65927 28.827 4.13646 28.5419 2.74933 26.8746Z" fill="url(#paint11_linear_37_265)"/>
<path d="M2.74933 26.8746C2.16092 26.1672 1.85649 25.2662 1.89516 24.3469C1.93383 23.4275 2.31284 22.5554 2.95858 21.8999L5.95389 18.8573C6.3013 18.5064 6.71466 18.2276 7.1702 18.037C7.62573 17.8464 8.11445 17.7478 8.60825 17.7467C9.10204 17.7457 9.59117 17.8423 10.0475 18.0309C10.5038 18.2196 10.9184 18.4966 11.2673 18.8461C11.6162 19.1955 11.8925 19.6105 12.0805 20.0671C12.2684 20.5238 12.3642 21.013 12.3624 21.5068C12.3606 22.0006 12.2611 22.4892 12.0698 22.9444C11.8785 23.3996 11.599 23.8126 11.2476 24.1594L8.20839 27.3083C6.65927 28.827 4.13646 28.5419 2.74933 26.8746Z" fill="url(#paint12_linear_37_265)"/>
<path d="M2.74933 26.8746C2.16092 26.1672 1.85649 25.2662 1.89516 24.3469C1.93383 23.4275 2.31284 22.5554 2.95858 21.8999L5.95389 18.8573C6.3013 18.5064 6.71466 18.2276 7.1702 18.037C7.62573 17.8464 8.11445 17.7478 8.60825 17.7467C9.10204 17.7457 9.59117 17.8423 10.0475 18.0309C10.5038 18.2196 10.9184 18.4966 11.2673 18.8461C11.6162 19.1955 11.8925 19.6105 12.0805 20.0671C12.2684 20.5238 12.3642 21.013 12.3624 21.5068C12.3606 22.0006 12.2611 22.4892 12.0698 22.9444C11.8785 23.3996 11.599 23.8126 11.2476 24.1594L8.20839 27.3083C6.65927 28.827 4.13646 28.5419 2.74933 26.8746Z" fill="url(#paint13_radial_37_265)"/>
<path d="M2.74933 26.8746C2.16092 26.1672 1.85649 25.2662 1.89516 24.3469C1.93383 23.4275 2.31284 22.5554 2.95858 21.8999L5.95389 18.8573C6.3013 18.5064 6.71466 18.2276 7.1702 18.037C7.62573 17.8464 8.11445 17.7478 8.60825 17.7467C9.10204 17.7457 9.59117 17.8423 10.0475 18.0309C10.5038 18.2196 10.9184 18.4966 11.2673 18.8461C11.6162 19.1955 11.8925 19.6105 12.0805 20.0671C12.2684 20.5238 12.3642 21.013 12.3624 21.5068C12.3606 22.0006 12.2611 22.4892 12.0698 22.9444C11.8785 23.3996 11.599 23.8126 11.2476 24.1594L8.20839 27.3083C6.65927 28.827 4.13646 28.5419 2.74933 26.8746Z" fill="url(#paint14_radial_37_265)"/>
<path d="M7.13344 32.3944C6.45595 31.7189 6.07265 30.8032 6.06696 29.8466C6.06127 28.8899 6.43365 27.9698 7.10306 27.2863L11.4366 22.8651C12.8473 21.4256 15.2182 21.3615 16.6577 22.7722C18.1005 24.1897 18.1461 26.6181 16.7201 28.0541L12.3562 32.5547C10.9421 33.9772 8.55262 33.8068 7.13175 32.391" fill="url(#paint15_linear_37_265)"/>
<path d="M7.13344 32.3944C6.45595 31.7189 6.07265 30.8032 6.06696 29.8466C6.06127 28.8899 6.43365 27.9698 7.10306 27.2863L11.4366 22.8651C12.8473 21.4256 15.2182 21.3615 16.6577 22.7722C18.1005 24.1897 18.1461 26.6181 16.7201 28.0541L12.3562 32.5547C10.9421 33.9772 8.55262 33.8068 7.13175 32.391" fill="url(#paint16_linear_37_265)"/>
<path d="M7.13344 32.3944C6.45595 31.7189 6.07265 30.8032 6.06696 29.8466C6.06127 28.8899 6.43365 27.9698 7.10306 27.2863L11.4366 22.8651C12.8473 21.4256 15.2182 21.3615 16.6577 22.7722C18.1005 24.1897 18.1461 26.6181 16.7201 28.0541L12.3562 32.5547C10.9421 33.9772 8.55262 33.8068 7.13175 32.391" fill="url(#paint17_radial_37_265)"/>
<path d="M7.13344 32.3944C6.45595 31.7189 6.07265 30.8032 6.06696 29.8466C6.06127 28.8899 6.43365 27.9698 7.10306 27.2863L11.4366 22.8651C12.8473 21.4256 15.2182 21.3615 16.6577 22.7722C18.1005 24.1897 18.1461 26.6181 16.7201 28.0541L12.3562 32.5547C10.9421 33.9772 8.55262 33.8068 7.13175 32.391" fill="url(#paint18_radial_37_265)"/>
<path d="M16.4738 40.3475C15.3718 39.0228 15.2655 36.9084 16.4738 35.6799L19.3729 33.098C20.7566 31.6923 22.9335 31.8324 24.2278 33.3208C25.4057 34.6708 25.507 37.0873 24.2278 38.3428L21.7168 40.9415C20.1677 42.2325 17.7293 41.8562 16.4738 40.3475Z" fill="url(#paint19_linear_37_265)"/>
<path d="M16.4738 40.3475C15.3718 39.0228 15.2655 36.9084 16.4738 35.6799L19.3729 33.098C20.7566 31.6923 22.9335 31.8324 24.2278 33.3208C25.4057 34.6708 25.507 37.0873 24.2278 38.3428L21.7168 40.9415C20.1677 42.2325 17.7293 41.8562 16.4738 40.3475Z" fill="url(#paint20_linear_37_265)"/>
<path d="M16.4738 40.3475C15.3718 39.0228 15.2655 36.9084 16.4738 35.6799L19.3729 33.098C20.7566 31.6923 22.9335 31.8324 24.2278 33.3208C25.4057 34.6708 25.507 37.0873 24.2278 38.3428L21.7168 40.9415C20.1677 42.2325 17.7293 41.8562 16.4738 40.3475Z" fill="url(#paint21_radial_37_265)"/>
<path d="M16.4738 40.3475C15.3718 39.0228 15.2655 36.9084 16.4738 35.6799L19.3729 33.098C20.7566 31.6923 22.9335 31.8324 24.2278 33.3208C25.4057 34.6708 25.507 37.0873 24.2278 38.3428L21.7168 40.9415C20.1677 42.2325 17.7293 41.8562 16.4738 40.3475Z" fill="url(#paint22_radial_37_265)"/>
<path d="M12.228 36.6638C10.9506 35.3863 10.4224 33.3934 11.6981 32.1176L16.0131 27.7234C17.2905 26.4476 19.3847 26.5826 20.7482 28.1419C21.8113 29.3586 22.024 31.4882 20.7482 32.7656L16.8501 36.6638C15.8173 37.8518 13.5038 37.9395 12.2263 36.6638" fill="url(#paint23_linear_37_265)"/>
<path d="M12.228 36.6638C10.9506 35.3863 10.4224 33.3934 11.6981 32.1176L16.0131 27.7234C17.2905 26.4476 19.3847 26.5826 20.7482 28.1419C21.8113 29.3586 22.024 31.4882 20.7482 32.7656L16.8501 36.6638C15.8173 37.8518 13.5038 37.9395 12.2263 36.6638" fill="url(#paint24_linear_37_265)"/>
<path d="M12.228 36.6638C10.9506 35.3863 10.4224 33.3934 11.6981 32.1176L16.0131 27.7234C17.2905 26.4476 19.3847 26.5826 20.7482 28.1419C21.8113 29.3586 22.024 31.4882 20.7482 32.7656L16.8501 36.6638C15.8173 37.8518 13.5038 37.9395 12.2263 36.6638" fill="url(#paint25_radial_37_265)"/>
<path d="M12.228 36.6638C10.9506 35.3863 10.4224 33.3934 11.6981 32.1176L16.0131 27.7234C17.2905 26.4476 19.3847 26.5826 20.7482 28.1419C21.8113 29.3586 22.024 31.4882 20.7482 32.7656L16.8501 36.6638C15.8173 37.8518 13.5038 37.9395 12.2263 36.6638" fill="url(#paint26_radial_37_265)"/>
<g filter="url(#filter7_i_37_265)">
<path d="M17.466 4.56071L17.4694 4.57083C16.6349 4.96694 15.9886 5.67395 15.6687 6.54055C15.3489 7.40716 15.3809 8.36453 15.758 9.2078C16.1351 10.0511 16.8273 10.7133 17.6864 11.0527C18.5455 11.3921 19.5034 11.3817 20.355 11.0238L21.4148 10.6813L21.4198 10.6796C23.0297 10.1581 25.4006 9.33633 26.6933 9.07983C27.0949 8.99883 27.4897 9.14733 27.7986 9.41733L43.143 22.8515C45.9206 20.4114 47.7752 17.0887 47.7752 13.2361C47.7752 6.51315 42.4528 1.06421 35.5087 1.06421C30.7466 1.30046 23.1849 2.2944 17.466 4.56071Z" fill="#FBB439"/>
<path d="M17.466 4.56071L17.4694 4.57083C16.6349 4.96694 15.9886 5.67395 15.6687 6.54055C15.3489 7.40716 15.3809 8.36453 15.758 9.2078C16.1351 10.0511 16.8273 10.7133 17.6864 11.0527C18.5455 11.3921 19.5034 11.3817 20.355 11.0238L21.4148 10.6813L21.4198 10.6796C23.0297 10.1581 25.4006 9.33633 26.6933 9.07983C27.0949 8.99883 27.4897 9.14733 27.7986 9.41733L43.143 22.8515C45.9206 20.4114 47.7752 17.0887 47.7752 13.2361C47.7752 6.51315 42.4528 1.06421 35.5087 1.06421C30.7466 1.30046 23.1849 2.2944 17.466 4.56071Z" fill="url(#paint27_radial_37_265)"/>
<path d="M17.466 4.56071L17.4694 4.57083C16.6349 4.96694 15.9886 5.67395 15.6687 6.54055C15.3489 7.40716 15.3809 8.36453 15.758 9.2078C16.1351 10.0511 16.8273 10.7133 17.6864 11.0527C18.5455 11.3921 19.5034 11.3817 20.355 11.0238L21.4148 10.6813L21.4198 10.6796C23.0297 10.1581 25.4006 9.33633 26.6933 9.07983C27.0949 8.99883 27.4897 9.14733 27.7986 9.41733L43.143 22.8515C45.9206 20.4114 47.7752 17.0887 47.7752 13.2361C47.7752 6.51315 42.4528 1.06421 35.5087 1.06421C30.7466 1.30046 23.1849 2.2944 17.466 4.56071Z" fill="url(#paint28_radial_37_265)"/>
<path d="M17.466 4.56071L17.4694 4.57083C16.6349 4.96694 15.9886 5.67395 15.6687 6.54055C15.3489 7.40716 15.3809 8.36453 15.758 9.2078C16.1351 10.0511 16.8273 10.7133 17.6864 11.0527C18.5455 11.3921 19.5034 11.3817 20.355 11.0238L21.4148 10.6813L21.4198 10.6796C23.0297 10.1581 25.4006 9.33633 26.6933 9.07983C27.0949 8.99883 27.4897 9.14733 27.7986 9.41733L43.143 22.8515C45.9206 20.4114 47.7752 17.0887 47.7752 13.2361C47.7752 6.51315 42.4528 1.06421 35.5087 1.06421C30.7466 1.30046 23.1849 2.2944 17.466 4.56071Z" fill="url(#paint29_radial_37_265)"/>
</g>
<path d="M17.466 4.56071L17.4694 4.57083C16.6349 4.96694 15.9886 5.67395 15.6687 6.54055C15.3489 7.40716 15.3809 8.36453 15.758 9.2078C16.1351 10.0511 16.8273 10.7133 17.6864 11.0527C18.5455 11.3921 19.5034 11.3817 20.355 11.0238L21.4148 10.6813L21.4198 10.6796C23.0297 10.1581 25.4006 9.33633 26.6933 9.07983C27.0949 8.99883 27.4897 9.14733 27.7986 9.41733L43.143 22.8515C45.9206 20.4114 47.7752 17.0887 47.7752 13.2361C47.7752 6.51315 42.4528 1.06421 35.5087 1.06421C30.7466 1.30046 23.1849 2.2944 17.466 4.56071Z" fill="url(#paint30_radial_37_265)"/>
<g filter="url(#filter8_f_37_265)">
<path d="M28.617 7.04474C26.4148 7.58474 23.7334 8.40487 21.7742 9.04949C21.5003 9.14063 21.211 9.17579 20.9233 9.15287C20.6356 9.12996 20.3554 9.04944 20.0995 8.91611C19.8435 8.78277 19.6169 8.59934 19.4333 8.37672C19.2496 8.15409 19.1126 7.89682 19.0303 7.62018C18.7367 6.60262 19.2531 5.5243 20.2537 5.1733C22.7681 4.2958 25.8326 3.50099 28.0264 3.0538C29.0777 2.83949 30.0598 3.55668 30.2488 4.61306C30.4462 5.71837 29.7071 6.77812 28.617 7.04305" fill="#FFE746"/>
</g>
<defs>
<filter id="filter0_i_37_265" x="0.309113" y="-0.512695" width="45.6485" height="42.2983" filterUnits="userSpaceOnUse" color-interpolation-filters="sRGB">
<feFlood flood-opacity="0" result="BackgroundImageFix"/>
<feBlend mode="normal" in="SourceGraphic" in2="BackgroundImageFix" result="shape"/>
<feColorMatrix in="SourceAlpha" type="matrix" values="0 0 0 0 0 0 0 0 0 0 0 0 0 0 0 0 0 0 127 0" result="hardAlpha"/>
<feOffset dx="1.5" dy="-1.5"/>
<feGaussianBlur stdDeviation="1.5"/>
<feComposite in2="hardAlpha" operator="arithmetic" k2="-1" k3="1"/>
<feColorMatrix type="matrix" values="0 0 0 0 0.945098 0 0 0 0 0.615686 0 0 0 0 0.156863 0 0 0 1 0"/>
<feBlend mode="normal" in2="shape" result="effect1_innerShadow_37_265"/>
</filter>
<filter id="filter1_f_37_265" x="3.1889" y="17.2977" width="22.4757" height="23.1315" filterUnits="userSpaceOnUse" color-interpolation-filters="sRGB">
<feFlood flood-opacity="0" result="BackgroundImageFix"/>
<feBlend mode="normal" in="SourceGraphic" in2="BackgroundImageFix" result="shape"/>
<feGaussianBlur stdDeviation="0.375" result="effect1_foregroundBlur_37_265"/>
</filter>
<filter id="filter2_f_37_265" x="20.1367" y="32.3735" width="8.56857" height="8.13831" filterUnits="userSpaceOnUse" color-interpolation-filters="sRGB">
<feFlood flood-opacity="0" result="BackgroundImageFix"/>
<feBlend mode="normal" in="SourceGraphic" in2="BackgroundImageFix" result="shape"/>
<feGaussianBlur stdDeviation="0.75" result="effect1_foregroundBlur_37_265"/>
</filter>
<filter id="filter3_f_37_265" x="13.717" y="3.83739" width="11.1432" height="8.48184" filterUnits="userSpaceOnUse" color-interpolation-filters="sRGB">
<feFlood flood-opacity="0" result="BackgroundImageFix"/>
<feBlend mode="normal" in="SourceGraphic" in2="BackgroundImageFix" result="shape"/>
<feGaussianBlur stdDeviation="0.43" result="effect1_foregroundBlur_37_265"/>
</filter>
<filter id="filter4_f_37_265" x="25.3275" y="9.70874" width="18.9484" height="17.3672" filterUnits="userSpaceOnUse" color-interpolation-filters="sRGB">
<feFlood flood-opacity="0" result="BackgroundImageFix"/>
<feBlend mode="normal" in="SourceGraphic" in2="BackgroundImageFix" result="shape"/>
<feGaussianBlur stdDeviation="0.75" result="effect1_foregroundBlur_37_265"/>
</filter>
<filter id="filter5_f_37_265" x="32.1281" y="25.1376" width="8.57196" height="8.13831" filterUnits="userSpaceOnUse" color-interpolation-filters="sRGB">
<feFlood flood-opacity="0" result="BackgroundImageFix"/>
<feBlend mode="normal" in="SourceGraphic" in2="BackgroundImageFix" result="shape"/>
<feGaussianBlur stdDeviation="0.75" result="effect1_foregroundBlur_37_265"/>
</filter>
<filter id="filter6_f_37_265" x="26.6387" y="29.4728" width="8.57028" height="8.13989" filterUnits="userSpaceOnUse" color-interpolation-filters="sRGB">
<feFlood flood-opacity="0" result="BackgroundImageFix"/>
<feBlend mode="normal" in="SourceGraphic" in2="BackgroundImageFix" result="shape"/>
<feGaussianBlur stdDeviation="0.75" result="effect1_foregroundBlur_37_265"/>
</filter>
<filter id="filter7_i_37_265" x="15.45" y="1.06421" width="32.3251" height="21.9374" filterUnits="userSpaceOnUse" color-interpolation-filters="sRGB">
<feFlood flood-opacity="0" result="BackgroundImageFix"/>
<feBlend mode="normal" in="SourceGraphic" in2="BackgroundImageFix" result="shape"/>
<feColorMatrix in="SourceAlpha" type="matrix" values="0 0 0 0 0 0 0 0 0 0 0 0 0 0 0 0 0 0 127 0" result="hardAlpha"/>
<feOffset dy="0.15"/>
<feGaussianBlur stdDeviation="0.5"/>
<feComposite in2="hardAlpha" operator="arithmetic" k2="-1" k3="1"/>
<feColorMatrix type="matrix" values="0 0 0 0 0.917647 0 0 0 0 0.615686 0 0 0 0 0.137255 0 0 0 1 0"/>
<feBlend mode="normal" in2="shape" result="effect1_innerShadow_37_265"/>
</filter>
<filter id="filter8_f_37_265" x="16.9484" y="1.01587" width="15.3323" height="10.1438" filterUnits="userSpaceOnUse" color-interpolation-filters="sRGB">
<feFlood flood-opacity="0" result="BackgroundImageFix"/>
<feBlend mode="normal" in="SourceGraphic" in2="BackgroundImageFix" result="shape"/>
<feGaussianBlur stdDeviation="1" result="effect1_foregroundBlur_37_265"/>
</filter>
<linearGradient id="paint0_linear_37_265" x1="35.1173" y1="14.679" x2="23.8329" y2="31.2367" gradientUnits="userSpaceOnUse">
<stop stop-color="#FFD741"/>
<stop offset="1" stop-color="#FFBE37"/>
</linearGradient>
<radialGradient id="paint1_radial_37_265" cx="0" cy="0" r="1" gradientUnits="userSpaceOnUse" gradientTransform="translate(30.6876 8.66812) rotate(122.645) scale(8.01631 11.1468)">
<stop stop-color="#FFDC38"/>
<stop offset="1" stop-color="#FFDC38" stop-opacity="0"/>
</radialGradient>
<radialGradient id="paint2_radial_37_265" cx="0" cy="0" r="1" gradientUnits="userSpaceOnUse" gradientTransform="translate(41.55 31.7649) rotate(-136.375) scale(4.66243 3.72065)">
<stop stop-color="#FFCB41"/>
<stop offset="1" stop-color="#FFCB41" stop-opacity="0"/>
</radialGradient>
<radialGradient id="paint3_radial_37_265" cx="0" cy="0" r="1" gradientUnits="userSpaceOnUse" gradientTransform="translate(42.6587 29.7619) rotate(-138.778) scale(7.92245 2.16425)">
<stop stop-color="#F48E5A"/>
<stop offset="1" stop-color="#F48E5A" stop-opacity="0"/>
</radialGradient>
<radialGradient id="paint4_radial_37_265" cx="0" cy="0" r="1" gradientUnits="userSpaceOnUse" gradientTransform="translate(38.2821 36.6157) rotate(-134.193) scale(10.5911 2.89327)">
<stop stop-color="#F48E5A"/>
<stop offset="1" stop-color="#F48E5A" stop-opacity="0"/>
</radialGradient>
<radialGradient id="paint5_radial_37_265" cx="0" cy="0" r="1" gradientUnits="userSpaceOnUse" gradientTransform="translate(30.8985 39.7282) rotate(-133.968) scale(8.27948 2.62529)">
<stop stop-color="#F48E5A"/>
<stop offset="1" stop-color="#F48E5A" stop-opacity="0"/>
</radialGradient>
<radialGradient id="paint6_radial_37_265" cx="0" cy="0" r="1" gradientUnits="userSpaceOnUse" gradientTransform="translate(25.1509 43.0492) rotate(-139.295) scale(9.46065 2.7731)">
<stop stop-color="#F48E5A"/>
<stop offset="1" stop-color="#F48E5A" stop-opacity="0"/>
</radialGradient>
<linearGradient id="paint7_linear_37_265" x1="26.4553" y1="38.2618" x2="20.3297" y2="32.2509" gradientUnits="userSpaceOnUse">
<stop stop-color="#FFCD43"/>
<stop offset="1" stop-color="#FFCD43" stop-opacity="0"/>
</linearGradient>
<linearGradient id="paint8_linear_37_265" x1="42.0259" y1="24.8259" x2="26.7321" y2="11.5369" gradientUnits="userSpaceOnUse">
<stop stop-color="#FFE647"/>
<stop offset="1" stop-color="#FFE647" stop-opacity="0"/>
</linearGradient>
<linearGradient id="paint9_linear_37_265" x1="38.4501" y1="31.0258" x2="32.3228" y2="25.0149" gradientUnits="userSpaceOnUse">
<stop stop-color="#FFD941"/>
<stop offset="1" stop-color="#FFD941" stop-opacity="0"/>
</linearGradient>
<linearGradient id="paint10_linear_37_265" x1="32.959" y1="35.3627" x2="26.8316" y2="29.3502" gradientUnits="userSpaceOnUse">
<stop stop-color="#FFD63F"/>
<stop offset="1" stop-color="#FFD63F" stop-opacity="0"/>
</linearGradient>
<linearGradient id="paint11_linear_37_265" x1="9.96339" y1="19.9525" x2="2.63289" y2="27.018" gradientUnits="userSpaceOnUse">
<stop stop-color="#FFBC41"/>
<stop offset="1" stop-color="#E69429"/>
</linearGradient>
<linearGradient id="paint12_linear_37_265" x1="9.30358" y1="26.7295" x2="7.67008" y2="24.988" gradientUnits="userSpaceOnUse">
<stop stop-color="#E08407"/>
<stop offset="1" stop-color="#E08407" stop-opacity="0"/>
</linearGradient>
<radialGradient id="paint13_radial_37_265" cx="0" cy="0" r="1" gradientUnits="userSpaceOnUse" gradientTransform="translate(5.90327 29.497) rotate(-88.8767) scale(5.37994 4.86499)">
<stop stop-color="#DA725B"/>
<stop offset="1" stop-color="#DA725B" stop-opacity="0"/>
</radialGradient>
<radialGradient id="paint14_radial_37_265" cx="0" cy="0" r="1" gradientUnits="userSpaceOnUse" gradientTransform="translate(11.3592 18.7389) rotate(136.229) scale(4.34514 4.20226)">
<stop stop-color="#FFE43E"/>
<stop offset="1" stop-color="#FFE43E" stop-opacity="0"/>
</radialGradient>
<linearGradient id="paint15_linear_37_265" x1="15.0782" y1="24.2184" x2="6.89381" y2="32.1092" gradientUnits="userSpaceOnUse">
<stop stop-color="#FFBC41"/>
<stop offset="1" stop-color="#E69429"/>
</linearGradient>
<linearGradient id="paint16_linear_37_265" x1="14.3424" y1="31.7869" x2="12.5166" y2="29.8429" gradientUnits="userSpaceOnUse">
<stop stop-color="#E08407"/>
<stop offset="1" stop-color="#E08407" stop-opacity="0"/>
</linearGradient>
<radialGradient id="paint17_radial_37_265" cx="0" cy="0" r="1" gradientUnits="userSpaceOnUse" gradientTransform="translate(9.75244 34.6117) rotate(-83.0945) scale(7.01768 8.29308)">
<stop stop-color="#E8766E"/>
<stop offset="1" stop-color="#E8766E" stop-opacity="0"/>
</radialGradient>
<radialGradient id="paint18_radial_37_265" cx="0" cy="0" r="1" gradientUnits="userSpaceOnUse" gradientTransform="translate(16.0815 23.3805) rotate(136.026) scale(4.09219 3.95766)">
<stop stop-color="#FFE43E"/>
<stop offset="1" stop-color="#FFE43E" stop-opacity="0"/>
</radialGradient>
<linearGradient id="paint19_linear_37_265" x1="22.9588" y1="34.1325" x2="16.2915" y2="40.5669" gradientUnits="userSpaceOnUse">
<stop stop-color="#FFBC41"/>
<stop offset="1" stop-color="#E69429"/>
</linearGradient>
<linearGradient id="paint20_linear_37_265" x1="17.3462" y1="35.0876" x2="19.7171" y2="36.6198" gradientUnits="userSpaceOnUse">
<stop offset="0.156" stop-color="#E08407"/>
<stop offset="1" stop-color="#E08407" stop-opacity="0"/>
</linearGradient>
<radialGradient id="paint21_radial_37_265" cx="0" cy="0" r="1" gradientUnits="userSpaceOnUse" gradientTransform="translate(18.5595 43.0492) rotate(-84.1036) scale(6.15995 7.29043)">
<stop stop-color="#E8766E"/>
<stop offset="1" stop-color="#E8766E" stop-opacity="0"/>
</radialGradient>
<radialGradient id="paint22_radial_37_265" cx="0" cy="0" r="1" gradientUnits="userSpaceOnUse" gradientTransform="translate(23.7756 33.449) rotate(136.071) scale(3.33566 3.22581)">
<stop stop-color="#FFE43E"/>
<stop offset="1" stop-color="#FFE43E" stop-opacity="0"/>
</radialGradient>
<linearGradient id="paint23_linear_37_265" x1="19.1788" y1="29.1071" x2="11.7319" y2="36.2976" gradientUnits="userSpaceOnUse">
<stop stop-color="#FFBC41"/>
<stop offset="1" stop-color="#E69429"/>
</linearGradient>
<linearGradient id="paint24_linear_37_265" x1="18.9814" y1="36.4056" x2="17.4272" y2="34.7417" gradientUnits="userSpaceOnUse">
<stop stop-color="#E08407"/>
<stop offset="1" stop-color="#E08407" stop-opacity="0"/>
</linearGradient>
<radialGradient id="paint25_radial_37_265" cx="0" cy="0" r="1" gradientUnits="userSpaceOnUse" gradientTransform="translate(14.3261 38.5611) rotate(-83.082) scale(6.38376 7.55759)">
<stop stop-color="#E8766E"/>
<stop offset="1" stop-color="#E8766E" stop-opacity="0"/>
</radialGradient>
<radialGradient id="paint26_radial_37_265" cx="0" cy="0" r="1" gradientUnits="userSpaceOnUse" gradientTransform="translate(20.0908 28.3455) rotate(136.08) scale(3.72602 3.60328)">
<stop stop-color="#FFE43E"/>
<stop offset="1" stop-color="#FFE43E" stop-opacity="0"/>
</radialGradient>
<radialGradient id="paint27_radial_37_265" cx="0" cy="0" r="1" gradientUnits="userSpaceOnUse" gradientTransform="translate(29.3629 19.8461) rotate(-33.6901) scale(20.4668 32.1673)">
<stop offset="0.361" stop-color="#FFE949" stop-opacity="0"/>
<stop offset="1" stop-color="#FFE949"/>
</radialGradient>
<radialGradient id="paint28_radial_37_265" cx="0" cy="0" r="1" gradientUnits="userSpaceOnUse" gradientTransform="translate(15.4781 9.11527) rotate(-21.4028) scale(7.29157 11.7087)">
<stop stop-color="#EE9226"/>
<stop offset="1" stop-color="#EE9226" stop-opacity="0"/>
</radialGradient>
<radialGradient id="paint29_radial_37_265" cx="0" cy="0" r="1" gradientUnits="userSpaceOnUse" gradientTransform="translate(28.5629 20.2019) rotate(-38.55) scale(14.5167 13.8534)">
<stop stop-color="#F7A91E"/>
<stop offset="1" stop-color="#F7A91E" stop-opacity="0"/>
</radialGradient>
<radialGradient id="paint30_radial_37_265" cx="0" cy="0" r="1" gradientUnits="userSpaceOnUse" gradientTransform="translate(31.1364 17.1866) rotate(-35.9316) scale(19.4977 30.5059)">
<stop offset="0.661" stop-color="#FFEA49" stop-opacity="0"/>
<stop offset="1" stop-color="#FFEA49"/>
</radialGradient>
</defs>
</svg>
