<svg width="58" height="58" viewBox="0 0 58 58" fill="none" xmlns="http://www.w3.org/2000/svg">
<path d="M22.7559 16.1947C25.5417 11.8501 27.1911 7.83721 28.0502 4.99884C28.3801 3.91134 29.7721 3.46728 30.5986 4.24665C43.0559 15.9935 47.1286 24.9635 47.9388 35.3274C48.5333 45.3523 43.6069 54.2735 30.3811 54.2735C17.9655 54.2735 8.79968 45.6079 10.0449 31.871C10.7916 23.664 13.9834 17.409 16.5336 13.6862C17.3275 12.528 18.9823 12.5117 19.8976 13.5774L22.1796 16.2345C22.3372 16.4176 22.6254 16.3977 22.7559 16.1947Z" fill="url(#paint0_radial_37_223)"/>
<path d="M22.7559 16.1947C25.5417 11.8501 27.1911 7.83721 28.0502 4.99884C28.3801 3.91134 29.7721 3.46728 30.5986 4.24665C43.0559 15.9935 47.1286 24.9635 47.9388 35.3274C48.5333 45.3523 43.6069 54.2735 30.3811 54.2735C17.9655 54.2735 8.79968 45.6079 10.0449 31.871C10.7916 23.664 13.9834 17.409 16.5336 13.6862C17.3275 12.528 18.9823 12.5117 19.8976 13.5774L22.1796 16.2345C22.3372 16.4176 22.6254 16.3977 22.7559 16.1947Z" fill="url(#paint1_radial_37_223)"/>
<path d="M22.7559 16.1947C25.5417 11.8501 27.1911 7.83721 28.0502 4.99884C28.3801 3.91134 29.7721 3.46728 30.5986 4.24665C43.0559 15.9935 47.1286 24.9635 47.9388 35.3274C48.5333 45.3523 43.6069 54.2735 30.3811 54.2735C17.9655 54.2735 8.79968 45.6079 10.0449 31.871C10.7916 23.664 13.9834 17.409 16.5336 13.6862C17.3275 12.528 18.9823 12.5117 19.8976 13.5774L22.1796 16.2345C22.3372 16.4176 22.6254 16.3977 22.7559 16.1947Z" fill="url(#paint2_linear_37_223)"/>
<path d="M22.7559 16.1947C25.5417 11.8501 27.1911 7.83721 28.0502 4.99884C28.3801 3.91134 29.7721 3.46728 30.5986 4.24665C43.0559 15.9935 47.1286 24.9635 47.9388 35.3274C48.5333 45.3523 43.6069 54.2735 30.3811 54.2735C17.9655 54.2735 8.79968 45.6079 10.0449 31.871C10.7916 23.664 13.9834 17.409 16.5336 13.6862C17.3275 12.528 18.9823 12.5117 19.8976 13.5774L22.1796 16.2345C22.3372 16.4176 22.6254 16.3977 22.7559 16.1947Z" fill="url(#paint3_radial_37_223)"/>
<path d="M22.7559 16.1947C25.5417 11.8501 27.1911 7.83721 28.0502 4.99884C28.3801 3.91134 29.7721 3.46728 30.5986 4.24665C43.0559 15.9935 47.1286 24.9635 47.9388 35.3274C48.5333 45.3523 43.6069 54.2735 30.3811 54.2735C17.9655 54.2735 8.79968 45.6079 10.0449 31.871C10.7916 23.664 13.9834 17.409 16.5336 13.6862C17.3275 12.528 18.9823 12.5117 19.8976 13.5774L22.1796 16.2345C22.3372 16.4176 22.6254 16.3977 22.7559 16.1947Z" fill="url(#paint4_radial_37_223)"/>
<path d="M22.7559 16.1947C25.5417 11.8501 27.1911 7.83721 28.0502 4.99884C28.3801 3.91134 29.7721 3.46728 30.5986 4.24665C43.0559 15.9935 47.1286 24.9635 47.9388 35.3274C48.5333 45.3523 43.6069 54.2735 30.3811 54.2735C17.9655 54.2735 8.79968 45.6079 10.0449 31.871C10.7916 23.664 13.9834 17.409 16.5336 13.6862C17.3275 12.528 18.9823 12.5117 19.8976 13.5774L22.1796 16.2345C22.3372 16.4176 22.6254 16.3977 22.7559 16.1947Z" fill="url(#paint5_radial_37_223)"/>
<path d="M22.7559 16.1947C25.5417 11.8501 27.1911 7.83721 28.0502 4.99884C28.3801 3.91134 29.7721 3.46728 30.5986 4.24665C43.0559 15.9935 47.1286 24.9635 47.9388 35.3274C48.5333 45.3523 43.6069 54.2735 30.3811 54.2735C17.9655 54.2735 8.79968 45.6079 10.0449 31.871C10.7916 23.664 13.9834 17.409 16.5336 13.6862C17.3275 12.528 18.9823 12.5117 19.8976 13.5774L22.1796 16.2345C22.3372 16.4176 22.6254 16.3977 22.7559 16.1947Z" fill="url(#paint6_radial_37_223)"/>
<path d="M22.7559 16.1947C25.5417 11.8501 27.1911 7.83721 28.0502 4.99884C28.3801 3.91134 29.7721 3.46728 30.5986 4.24665C43.0559 15.9935 47.1286 24.9635 47.9388 35.3274C48.5333 45.3523 43.6069 54.2735 30.3811 54.2735C17.9655 54.2735 8.79968 45.6079 10.0449 31.871C10.7916 23.664 13.9834 17.409 16.5336 13.6862C17.3275 12.528 18.9823 12.5117 19.8976 13.5774L22.1796 16.2345C22.3372 16.4176 22.6254 16.3977 22.7559 16.1947Z" fill="url(#paint7_radial_37_223)"/>
<g filter="url(#filter0_i_37_223)">
<path d="M18.4476 36.0271C20.8075 30.4083 25.6523 24.1933 28.9239 20.8202C29.3676 20.3663 29.9717 20.1048 30.6063 20.0919C31.2409 20.079 31.8551 20.3158 32.3169 20.7513C38.5899 26.5314 40.4786 31.7568 42.0808 37.8396C43.7483 44.1688 42.0808 54.3659 29.5365 54.3659C18.734 54.3659 14.9894 44.2558 18.4476 36.0271Z" fill="url(#paint8_radial_37_223)"/>
<path d="M18.4476 36.0271C20.8075 30.4083 25.6523 24.1933 28.9239 20.8202C29.3676 20.3663 29.9717 20.1048 30.6063 20.0919C31.2409 20.079 31.8551 20.3158 32.3169 20.7513C38.5899 26.5314 40.4786 31.7568 42.0808 37.8396C43.7483 44.1688 42.0808 54.3659 29.5365 54.3659C18.734 54.3659 14.9894 44.2558 18.4476 36.0271Z" fill="url(#paint9_radial_37_223)"/>
<path d="M18.4476 36.0271C20.8075 30.4083 25.6523 24.1933 28.9239 20.8202C29.3676 20.3663 29.9717 20.1048 30.6063 20.0919C31.2409 20.079 31.8551 20.3158 32.3169 20.7513C38.5899 26.5314 40.4786 31.7568 42.0808 37.8396C43.7483 44.1688 42.0808 54.3659 29.5365 54.3659C18.734 54.3659 14.9894 44.2558 18.4476 36.0271Z" fill="url(#paint10_radial_37_223)"/>
</g>
<path d="M18.4476 36.0271C20.8075 30.4083 25.6523 24.1933 28.9239 20.8202C29.3676 20.3663 29.9717 20.1048 30.6063 20.0919C31.2409 20.079 31.8551 20.3158 32.3169 20.7513C38.5899 26.5314 40.4786 31.7568 42.0808 37.8396C43.7483 44.1688 42.0808 54.3659 29.5365 54.3659C18.734 54.3659 14.9894 44.2558 18.4476 36.0271Z" fill="url(#paint11_linear_37_223)"/>
<path d="M18.4476 36.0271C20.8075 30.4083 25.6523 24.1933 28.9239 20.8202C29.3676 20.3663 29.9717 20.1048 30.6063 20.0919C31.2409 20.079 31.8551 20.3158 32.3169 20.7513C38.5899 26.5314 40.4786 31.7568 42.0808 37.8396C43.7483 44.1688 42.0808 54.3659 29.5365 54.3659C18.734 54.3659 14.9894 44.2558 18.4476 36.0271Z" fill="url(#paint12_radial_37_223)"/>
<g filter="url(#filter1_f_37_223)">
<path d="M21.4129 20.9144C25.6088 14.77 28.0647 8.12178 28.8133 6.48328C27.7204 14.8824 24.5358 21.034 18.5401 28.9547C13.7442 35.2912 12.8778 40.7142 12.9195 42.0355C11.4206 31.9543 16.1657 28.594 21.4129 20.9144Z" fill="url(#paint13_linear_37_223)"/>
</g>
<g filter="url(#filter2_f_37_223)">
<path d="M17.7879 14.2716C15.4316 17.197 10.7481 25.3097 10.8641 34.3614C13.1841 25.0777 18.6126 22.1524 17.7879 14.2716Z" fill="url(#paint14_linear_37_223)"/>
</g>
<defs>
<filter id="filter0_i_37_223" x="17.2004" y="20.0914" width="25.9206" height="34.2745" filterUnits="userSpaceOnUse" color-interpolation-filters="sRGB">
<feFlood flood-opacity="0" result="BackgroundImageFix"/>
<feBlend mode="normal" in="SourceGraphic" in2="BackgroundImageFix" result="shape"/>
<feColorMatrix in="SourceAlpha" type="matrix" values="0 0 0 0 0 0 0 0 0 0 0 0 0 0 0 0 0 0 127 0" result="hardAlpha"/>
<feOffset dx="0.5"/>
<feGaussianBlur stdDeviation="0.25"/>
<feComposite in2="hardAlpha" operator="arithmetic" k2="-1" k3="1"/>
<feColorMatrix type="matrix" values="0 0 0 0 0.952941 0 0 0 0 0.615686 0 0 0 0 0.364706 0 0 0 1 0"/>
<feBlend mode="normal" in2="shape" result="effect1_innerShadow_37_223"/>
</filter>
<filter id="filter1_f_37_223" x="11.3887" y="5.23328" width="18.6745" height="38.0522" filterUnits="userSpaceOnUse" color-interpolation-filters="sRGB">
<feFlood flood-opacity="0" result="BackgroundImageFix"/>
<feBlend mode="normal" in="SourceGraphic" in2="BackgroundImageFix" result="shape"/>
<feGaussianBlur stdDeviation="0.625" result="effect1_foregroundBlur_37_223"/>
</filter>
<filter id="filter2_f_37_223" x="9.36197" y="12.7716" width="10.0103" height="23.0897" filterUnits="userSpaceOnUse" color-interpolation-filters="sRGB">
<feFlood flood-opacity="0" result="BackgroundImageFix"/>
<feBlend mode="normal" in="SourceGraphic" in2="BackgroundImageFix" result="shape"/>
<feGaussianBlur stdDeviation="0.75" result="effect1_foregroundBlur_37_223"/>
</filter>
<radialGradient id="paint0_radial_37_223" cx="0" cy="0" r="1" gradientUnits="userSpaceOnUse" gradientTransform="translate(43.5027 35.7428) rotate(-179.474) scale(30.9916 46.7373)">
<stop stop-color="#FF953D"/>
<stop offset="1" stop-color="#FF5141"/>
</radialGradient>
<radialGradient id="paint1_radial_37_223" cx="0" cy="0" r="1" gradientUnits="userSpaceOnUse" gradientTransform="translate(18.7997 28.373) rotate(-157.937) scale(18.7487 32.3522)">
<stop stop-color="#CE5327"/>
<stop offset="1" stop-color="#CE5327" stop-opacity="0"/>
</radialGradient>
<linearGradient id="paint2_linear_37_223" x1="33.234" y1="54.2735" x2="33.234" y2="45.0333" gradientUnits="userSpaceOnUse">
<stop stop-color="#FF7583"/>
<stop offset="1" stop-color="#FF7583" stop-opacity="0"/>
</linearGradient>
<radialGradient id="paint3_radial_37_223" cx="0" cy="0" r="1" gradientUnits="userSpaceOnUse" gradientTransform="translate(8.98555 26.0847) rotate(24.015) scale(5.62718 46.5796)">
<stop stop-color="#FFAA7B"/>
<stop offset="1" stop-color="#FFAA7B" stop-opacity="0"/>
</radialGradient>
<radialGradient id="paint4_radial_37_223" cx="0" cy="0" r="1" gradientUnits="userSpaceOnUse" gradientTransform="translate(16.8744 11.3281) rotate(77.3197) scale(6.96063 8.68528)">
<stop stop-color="#FF5E47"/>
<stop offset="1" stop-color="#FF5E47" stop-opacity="0"/>
</radialGradient>
<radialGradient id="paint5_radial_37_223" cx="0" cy="0" r="1" gradientUnits="userSpaceOnUse" gradientTransform="translate(29.7776 2.47584) rotate(87.8819) scale(18.374 17.0071)">
<stop stop-color="#FF2F3C"/>
<stop offset="1" stop-color="#FF2F3C" stop-opacity="0"/>
</radialGradient>
<radialGradient id="paint6_radial_37_223" cx="0" cy="0" r="1" gradientUnits="userSpaceOnUse" gradientTransform="translate(25.1937 8.69996) rotate(25.3283) scale(4.16684 8.362)">
<stop stop-color="#FF846C"/>
<stop offset="1" stop-color="#FF846C" stop-opacity="0"/>
</radialGradient>
<radialGradient id="paint7_radial_37_223" cx="0" cy="0" r="1" gradientUnits="userSpaceOnUse" gradientTransform="translate(22.5801 14.8806) rotate(113.224) scale(4.12954 0.946317)">
<stop stop-color="#FFA682"/>
<stop offset="1" stop-color="#FFA682" stop-opacity="0"/>
</radialGradient>
<radialGradient id="paint8_radial_37_223" cx="0" cy="0" r="1" gradientUnits="userSpaceOnUse" gradientTransform="translate(38.4321 44.182) rotate(-168.558) scale(18.1777 22.6365)">
<stop stop-color="#FFDA2F"/>
<stop offset="1" stop-color="#FF8E41"/>
</radialGradient>
<radialGradient id="paint9_radial_37_223" cx="0" cy="0" r="1" gradientUnits="userSpaceOnUse" gradientTransform="translate(22.475 15.573) rotate(69.044) scale(25.6333 22.2718)">
<stop stop-color="#FD5639"/>
<stop offset="1" stop-color="#FE5533" stop-opacity="0"/>
</radialGradient>
<radialGradient id="paint10_radial_37_223" cx="0" cy="0" r="1" gradientUnits="userSpaceOnUse" gradientTransform="translate(34.8707 37.3901) rotate(174.239) scale(17.7601 43.4844)">
<stop offset="0.628" stop-color="#D7812D" stop-opacity="0"/>
<stop offset="1" stop-color="#D7812D"/>
</radialGradient>
<linearGradient id="paint11_linear_37_223" x1="29.9117" y1="19.2343" x2="29.9117" y2="25.8444" gradientUnits="userSpaceOnUse">
<stop stop-color="#F95131"/>
<stop offset="1" stop-color="#F95131" stop-opacity="0"/>
</linearGradient>
<radialGradient id="paint12_radial_37_223" cx="0" cy="0" r="1" gradientUnits="userSpaceOnUse" gradientTransform="translate(41.662 34.0806) rotate(143.063) scale(29.099 21.0565)">
<stop offset="0.772" stop-color="#F18A52" stop-opacity="0"/>
<stop offset="1" stop-color="#F18A52"/>
</radialGradient>
<linearGradient id="paint13_linear_37_223" x1="27.1802" y1="7.71215" x2="13.8747" y2="41.2017" gradientUnits="userSpaceOnUse">
<stop stop-color="#FF7558"/>
<stop offset="1" stop-color="#F38758"/>
</linearGradient>
<linearGradient id="paint14_linear_37_223" x1="17.2931" y1="14.761" x2="10.1174" y2="35.3057" gradientUnits="userSpaceOnUse">
<stop stop-color="#FF815B"/>
<stop offset="1" stop-color="#FF9C6D"/>
</linearGradient>
</defs>
</svg>
