<svg width="54" height="54" viewBox="0 0 54 54" fill="none" xmlns="http://www.w3.org/2000/svg">
<path d="M27.0354 32.6025C25.7192 32.6025 24.4198 32.7375 23.1542 32.9907V50.5069H30.8829V32.9907C29.6342 32.7375 28.3517 32.6025 27.0354 32.6025Z" fill="url(#paint0_radial_37_125)"/>
<path d="M27.0354 32.6025C25.7192 32.6025 24.4198 32.7375 23.1542 32.9907V50.5069H30.8829V32.9907C29.6342 32.7375 28.3517 32.6025 27.0354 32.6025Z" fill="url(#paint1_radial_37_125)"/>
<path d="M23.1541 32.3966C22.1281 32.6227 21.1359 32.9197 20.1791 33.3028V50.5069H23.1541V32.3966Z" fill="url(#paint2_radial_37_125)"/>
<path d="M23.1541 32.3966C22.1281 32.6227 21.1359 32.9197 20.1791 33.3028V50.5069H23.1541V32.3966Z" fill="url(#paint3_radial_37_125)"/>
<path d="M23.1541 32.3966C22.1281 32.6227 21.1359 32.9197 20.1791 33.3028V50.5069H23.1541V32.3966Z" fill="url(#paint4_radial_37_125)"/>
<path d="M30.8458 32.3966C31.8718 32.6227 32.8623 32.9197 33.8208 33.3028V50.5069H30.8475L30.8458 32.3966Z" fill="url(#paint5_radial_37_125)"/>
<path d="M30.8458 32.3966C31.8718 32.6227 32.8623 32.9197 33.8208 33.3028V50.5069H30.8475L30.8458 32.3966Z" fill="url(#paint6_radial_37_125)"/>
<path d="M14.1564 37.1554C14.131 37.1789 14.1107 37.2073 14.0968 37.239C14.0828 37.2706 14.0756 37.3048 14.0754 37.3394V50.5069H16.8328V35.0494C15.8878 35.6738 14.9901 36.3826 14.1564 37.1554Z" fill="url(#paint7_linear_37_125)"/>
<path d="M14.1564 37.1554C14.131 37.1789 14.1107 37.2073 14.0968 37.239C14.0828 37.2706 14.0756 37.3048 14.0754 37.3394V50.5069H16.8328V35.0494C15.8878 35.6738 14.9901 36.3826 14.1564 37.1554Z" fill="url(#paint8_radial_37_125)"/>
<path d="M14.1564 37.1554C14.131 37.1789 14.1107 37.2073 14.0968 37.239C14.0828 37.2706 14.0756 37.3048 14.0754 37.3394V50.5069H16.8328V35.0494C15.8878 35.6738 14.9901 36.3826 14.1564 37.1554Z" fill="url(#paint9_radial_37_125)"/>
<path d="M39.9246 37.2297V50.5069H37.1672V35.0494C38.1426 35.6941 39.0673 36.4264 39.9246 37.2297Z" fill="url(#paint10_radial_37_125)"/>
<path d="M39.9246 37.2297V50.5069H37.1672V35.0494C38.1426 35.6941 39.0673 36.4264 39.9246 37.2297Z" fill="url(#paint11_radial_37_125)"/>
<path d="M16.8328 35.0494V50.5069H20.1791V33.3029C19.0012 33.7754 17.8925 34.3491 16.8328 35.0477" fill="#FFCA44"/>
<path d="M16.8328 35.0494V50.5069H20.1791V33.3029C19.0012 33.7754 17.8925 34.3491 16.8328 35.0477" fill="url(#paint12_radial_37_125)"/>
<path d="M37.1672 35.0494V50.5069H33.8209V33.3029C34.9987 33.7754 36.1074 34.3491 37.1672 35.0477" fill="url(#paint13_linear_37_125)"/>
<path d="M37.1672 35.0494V50.5069H33.8209V33.3029C34.9987 33.7754 36.1074 34.3491 37.1672 35.0477" fill="url(#paint14_radial_37_125)"/>
<path d="M7.76416 50.5069C8.00041 48.9088 8.33791 47.331 8.81041 45.8038C9.80221 42.5727 11.6165 39.6548 14.0754 37.3359V50.5052L7.76416 50.5069Z" fill="url(#paint15_radial_37_125)"/>
<path d="M7.76416 50.5069C8.00041 48.9088 8.33791 47.331 8.81041 45.8038C9.80221 42.5727 11.6165 39.6548 14.0754 37.3359V50.5052L7.76416 50.5069Z" fill="url(#paint16_linear_37_125)"/>
<path d="M46.2358 50.5069C45.9996 48.9088 45.6621 47.331 45.1896 45.8038C44.1978 42.5727 42.3835 39.6548 39.9246 37.3359V50.5052L46.2358 50.5069Z" fill="url(#paint17_radial_37_125)"/>
<path d="M46.2358 50.5069C45.9996 48.9088 45.6621 47.331 45.1896 45.8038C44.1978 42.5727 42.3835 39.6548 39.9246 37.3359V50.5052L46.2358 50.5069Z" fill="url(#paint18_radial_37_125)"/>
<path d="M23.3043 34.4352C23.4056 35.7177 24.2915 38.2861 27.0354 38.2861C29.7793 38.2861 30.6652 35.7194 30.7664 34.4352H23.3043Z" fill="url(#paint19_radial_37_125)"/>
<path d="M23.3043 34.4352C23.4056 35.7177 24.2915 38.2861 27.0354 38.2861C29.7793 38.2861 30.6652 35.7194 30.7664 34.4352H23.3043Z" fill="url(#paint20_radial_37_125)"/>
<path d="M23.3043 34.4352C23.4056 35.7177 24.2915 38.2861 27.0354 38.2861C29.7793 38.2861 30.6652 35.7194 30.7664 34.4352H23.3043Z" fill="url(#paint21_radial_37_125)"/>
<path d="M16.2084 19.6105H17.8166V21.4363H16.2084V19.6105Z" fill="url(#paint22_linear_37_125)"/>
<path d="M35.9943 19.6105H37.4051V21.4363H35.9943V19.6105Z" fill="url(#paint23_linear_37_125)"/>
<path d="M35.8762 26.2018C36.4854 26.1816 37.0575 25.9757 37.5232 25.6399V27.3358C37.5232 28.9626 36.5546 30.4121 35.0797 31.0146C35.3902 30.3531 35.6028 29.6342 35.7108 28.8647L35.8762 26.2018Z" fill="url(#paint24_radial_37_125)"/>
<path d="M18.1625 26.2018C17.5694 26.1825 16.9954 25.9868 16.5139 25.6399V27.3358C16.5139 28.9626 17.4825 30.4121 18.9574 31.0146C18.6398 30.3339 18.427 29.609 18.3262 28.8647L18.1625 26.2018Z" fill="url(#paint25_radial_37_125)"/>
<path d="M18.1625 26.2018C17.5694 26.1825 16.9954 25.9868 16.5139 25.6399V27.3358C16.5139 28.9626 17.4825 30.4121 18.9574 31.0146C18.6398 30.3339 18.427 29.609 18.3262 28.8647L18.1625 26.2018Z" fill="url(#paint26_radial_37_125)"/>
<path d="M18.1625 26.2018C17.5694 26.1825 16.9954 25.9868 16.5139 25.6399V27.3358C16.5139 28.9626 17.4825 30.4121 18.9574 31.0146C18.6398 30.3339 18.427 29.609 18.3262 28.8647L18.1625 26.2018Z" fill="url(#paint27_radial_37_125)"/>
<path d="M18.1625 26.2018C17.5694 26.1825 16.9954 25.9868 16.5139 25.6399V27.3358C16.5139 28.9626 17.4825 30.4121 18.9574 31.0146C18.6398 30.3339 18.427 29.609 18.3262 28.8647L18.1625 26.2018Z" fill="url(#paint28_radial_37_125)"/>
<g filter="url(#filter0_i_37_125)">
<path d="M18.2284 28.9626C18.4541 30.68 19.2968 32.2565 20.5994 33.3982C21.9019 34.5399 23.5753 35.1688 25.3074 35.1676H28.7449C30.477 35.1688 32.1504 34.5399 33.4529 33.3982C34.7555 32.2565 35.5982 30.68 35.8239 28.9626C36.0382 25.5303 36.2542 22.1114 36.4146 18.6824C36.4072 18.0092 36.143 17.3642 35.6759 16.8793C35.2089 16.3944 34.5743 16.1062 33.9019 16.0735H31.3504C30.4966 16.0719 29.6616 15.8227 28.9466 15.356C28.2316 14.8894 27.6674 14.2253 27.3223 13.4444C27.2329 13.2197 27.0782 13.0269 26.8782 12.8909C26.6782 12.7549 26.442 12.6821 26.2001 12.6816H23.8815C20.5183 12.6816 17.7947 15.4373 17.7947 18.8376C17.7947 22.2295 18.0056 25.564 18.2284 28.9626Z" fill="url(#paint29_radial_37_125)"/>
</g>
<path d="M18.2284 28.9626C18.4541 30.68 19.2968 32.2565 20.5994 33.3982C21.9019 34.5399 23.5753 35.1688 25.3074 35.1676H28.7449C30.477 35.1688 32.1504 34.5399 33.4529 33.3982C34.7555 32.2565 35.5982 30.68 35.8239 28.9626C36.0382 25.5303 36.2542 22.1114 36.4146 18.6824C36.4072 18.0092 36.143 17.3642 35.6759 16.8793C35.2089 16.3944 34.5743 16.1062 33.9019 16.0735H31.3504C30.4966 16.0719 29.6616 15.8227 28.9466 15.356C28.2316 14.8894 27.6674 14.2253 27.3223 13.4444C27.2329 13.2197 27.0782 13.0269 26.8782 12.8909C26.6782 12.7549 26.442 12.6821 26.2001 12.6816H23.8815C20.5183 12.6816 17.7947 15.4373 17.7947 18.8376C17.7947 22.2295 18.0056 25.564 18.2284 28.9626Z" fill="url(#paint30_linear_37_125)"/>
<path d="M18.2284 28.9626C18.4541 30.68 19.2968 32.2565 20.5994 33.3982C21.9019 34.5399 23.5753 35.1688 25.3074 35.1676H28.7449C30.477 35.1688 32.1504 34.5399 33.4529 33.3982C34.7555 32.2565 35.5982 30.68 35.8239 28.9626C36.0382 25.5303 36.2542 22.1114 36.4146 18.6824C36.4072 18.0092 36.143 17.3642 35.6759 16.8793C35.2089 16.3944 34.5743 16.1062 33.9019 16.0735H31.3504C30.4966 16.0719 29.6616 15.8227 28.9466 15.356C28.2316 14.8894 27.6674 14.2253 27.3223 13.4444C27.2329 13.2197 27.0782 13.0269 26.8782 12.8909C26.6782 12.7549 26.442 12.6821 26.2001 12.6816H23.8815C20.5183 12.6816 17.7947 15.4373 17.7947 18.8376C17.7947 22.2295 18.0056 25.564 18.2284 28.9626Z" fill="url(#paint31_radial_37_125)"/>
<path d="M18.2284 28.9626C18.4541 30.68 19.2968 32.2565 20.5994 33.3982C21.9019 34.5399 23.5753 35.1688 25.3074 35.1676H28.7449C30.477 35.1688 32.1504 34.5399 33.4529 33.3982C34.7555 32.2565 35.5982 30.68 35.8239 28.9626C36.0382 25.5303 36.2542 22.1114 36.4146 18.6824C36.4072 18.0092 36.143 17.3642 35.6759 16.8793C35.2089 16.3944 34.5743 16.1062 33.9019 16.0735H31.3504C30.4966 16.0719 29.6616 15.8227 28.9466 15.356C28.2316 14.8894 27.6674 14.2253 27.3223 13.4444C27.2329 13.2197 27.0782 13.0269 26.8782 12.8909C26.6782 12.7549 26.442 12.6821 26.2001 12.6816H23.8815C20.5183 12.6816 17.7947 15.4373 17.7947 18.8376C17.7947 22.2295 18.0056 25.564 18.2284 28.9626Z" fill="url(#paint32_radial_37_125)"/>
<path d="M18.2284 28.9626C18.4541 30.68 19.2968 32.2565 20.5994 33.3982C21.9019 34.5399 23.5753 35.1688 25.3074 35.1676H28.7449C30.477 35.1688 32.1504 34.5399 33.4529 33.3982C34.7555 32.2565 35.5982 30.68 35.8239 28.9626C36.0382 25.5303 36.2542 22.1114 36.4146 18.6824C36.4072 18.0092 36.143 17.3642 35.6759 16.8793C35.2089 16.3944 34.5743 16.1062 33.9019 16.0735H31.3504C30.4966 16.0719 29.6616 15.8227 28.9466 15.356C28.2316 14.8894 27.6674 14.2253 27.3223 13.4444C27.2329 13.2197 27.0782 13.0269 26.8782 12.8909C26.6782 12.7549 26.442 12.6821 26.2001 12.6816H23.8815C20.5183 12.6816 17.7947 15.4373 17.7947 18.8376C17.7947 22.2295 18.0056 25.564 18.2284 28.9626Z" fill="url(#paint33_radial_37_125)"/>
<path d="M18.2284 28.9626C18.4541 30.68 19.2968 32.2565 20.5994 33.3982C21.9019 34.5399 23.5753 35.1688 25.3074 35.1676H28.7449C30.477 35.1688 32.1504 34.5399 33.4529 33.3982C34.7555 32.2565 35.5982 30.68 35.8239 28.9626C36.0382 25.5303 36.2542 22.1114 36.4146 18.6824C36.4072 18.0092 36.143 17.3642 35.6759 16.8793C35.2089 16.3944 34.5743 16.1062 33.9019 16.0735H31.3504C30.4966 16.0719 29.6616 15.8227 28.9466 15.356C28.2316 14.8894 27.6674 14.2253 27.3223 13.4444C27.2329 13.2197 27.0782 13.0269 26.8782 12.8909C26.6782 12.7549 26.442 12.6821 26.2001 12.6816H23.8815C20.5183 12.6816 17.7947 15.4373 17.7947 18.8376C17.7947 22.2295 18.0056 25.564 18.2284 28.9626Z" fill="url(#paint34_radial_37_125)"/>
<path d="M18.2284 28.9626C18.4541 30.68 19.2968 32.2565 20.5994 33.3982C21.9019 34.5399 23.5753 35.1688 25.3074 35.1676H28.7449C30.477 35.1688 32.1504 34.5399 33.4529 33.3982C34.7555 32.2565 35.5982 30.68 35.8239 28.9626C36.0382 25.5303 36.2542 22.1114 36.4146 18.6824C36.4072 18.0092 36.143 17.3642 35.6759 16.8793C35.2089 16.3944 34.5743 16.1062 33.9019 16.0735H31.3504C30.4966 16.0719 29.6616 15.8227 28.9466 15.356C28.2316 14.8894 27.6674 14.2253 27.3223 13.4444C27.2329 13.2197 27.0782 13.0269 26.8782 12.8909C26.6782 12.7549 26.442 12.6821 26.2001 12.6816H23.8815C20.5183 12.6816 17.7947 15.4373 17.7947 18.8376C17.7947 22.2295 18.0056 25.564 18.2284 28.9626Z" fill="url(#paint35_radial_37_125)"/>
<path d="M18.2284 28.9626C18.4541 30.68 19.2968 32.2565 20.5994 33.3982C21.9019 34.5399 23.5753 35.1688 25.3074 35.1676H28.7449C30.477 35.1688 32.1504 34.5399 33.4529 33.3982C34.7555 32.2565 35.5982 30.68 35.8239 28.9626C36.0382 25.5303 36.2542 22.1114 36.4146 18.6824C36.4072 18.0092 36.143 17.3642 35.6759 16.8793C35.2089 16.3944 34.5743 16.1062 33.9019 16.0735H31.3504C30.4966 16.0719 29.6616 15.8227 28.9466 15.356C28.2316 14.8894 27.6674 14.2253 27.3223 13.4444C27.2329 13.2197 27.0782 13.0269 26.8782 12.8909C26.6782 12.7549 26.442 12.6821 26.2001 12.6816H23.8815C20.5183 12.6816 17.7947 15.4373 17.7947 18.8376C17.7947 22.2295 18.0056 25.564 18.2284 28.9626Z" fill="url(#paint36_radial_37_125)"/>
<path d="M18.2284 28.9626C18.4541 30.68 19.2968 32.2565 20.5994 33.3982C21.9019 34.5399 23.5753 35.1688 25.3074 35.1676H28.7449C30.477 35.1688 32.1504 34.5399 33.4529 33.3982C34.7555 32.2565 35.5982 30.68 35.8239 28.9626C36.0382 25.5303 36.2542 22.1114 36.4146 18.6824C36.4072 18.0092 36.143 17.3642 35.6759 16.8793C35.2089 16.3944 34.5743 16.1062 33.9019 16.0735H31.3504C30.4966 16.0719 29.6616 15.8227 28.9466 15.356C28.2316 14.8894 27.6674 14.2253 27.3223 13.4444C27.2329 13.2197 27.0782 13.0269 26.8782 12.8909C26.6782 12.7549 26.442 12.6821 26.2001 12.6816H23.8815C20.5183 12.6816 17.7947 15.4373 17.7947 18.8376C17.7947 22.2295 18.0056 25.564 18.2284 28.9626Z" fill="url(#paint37_radial_37_125)"/>
<path d="M18.2284 28.9626C18.4541 30.68 19.2968 32.2565 20.5994 33.3982C21.9019 34.5399 23.5753 35.1688 25.3074 35.1676H28.7449C30.477 35.1688 32.1504 34.5399 33.4529 33.3982C34.7555 32.2565 35.5982 30.68 35.8239 28.9626C36.0382 25.5303 36.2542 22.1114 36.4146 18.6824C36.4072 18.0092 36.143 17.3642 35.6759 16.8793C35.2089 16.3944 34.5743 16.1062 33.9019 16.0735H31.3504C30.4966 16.0719 29.6616 15.8227 28.9466 15.356C28.2316 14.8894 27.6674 14.2253 27.3223 13.4444C27.2329 13.2197 27.0782 13.0269 26.8782 12.8909C26.6782 12.7549 26.442 12.6821 26.2001 12.6816H23.8815C20.5183 12.6816 17.7947 15.4373 17.7947 18.8376C17.7947 22.2295 18.0056 25.564 18.2284 28.9626Z" fill="url(#paint38_linear_37_125)"/>
<g filter="url(#filter1_f_37_125)">
<path d="M26.2338 23.3129L24.9733 26.3285C24.7876 27.017 25.2315 27.7071 25.8592 27.7071H27.1991C27.8268 27.7071 28.269 27.0068 28.085 26.3285L27.1805 22.9788C26.9865 22.2363 26.438 22.5704 26.2338 23.3129Z" fill="#C48377"/>
</g>
<g filter="url(#filter2_f_37_125)">
<path d="M26.3216 22.6227L25.353 25.9724C25.1555 26.6609 25.6314 27.3494 26.303 27.3494H27.7357C28.4074 27.3494 28.8815 26.6507 28.6841 25.9724L27.7155 22.6227C27.5079 21.8802 26.5393 21.8802 26.3216 22.6227Z" fill="#CE9582"/>
<path d="M26.3216 22.6227L25.353 25.9724C25.1555 26.6609 25.6314 27.3494 26.303 27.3494H27.7357C28.4074 27.3494 28.8815 26.6507 28.6841 25.9724L27.7155 22.6227C27.5079 21.8802 26.5393 21.8802 26.3216 22.6227Z" fill="url(#paint39_linear_37_125)"/>
<path d="M26.3216 22.6227L25.353 25.9724C25.1555 26.6609 25.6314 27.3494 26.303 27.3494H27.7357C28.4074 27.3494 28.8815 26.6507 28.6841 25.9724L27.7155 22.6227C27.5079 21.8802 26.5393 21.8802 26.3216 22.6227Z" fill="url(#paint40_radial_37_125)"/>
<path d="M26.3216 22.6227L25.353 25.9724C25.1555 26.6609 25.6314 27.3494 26.303 27.3494H27.7357C28.4074 27.3494 28.8815 26.6507 28.6841 25.9724L27.7155 22.6227C27.5079 21.8802 26.5393 21.8802 26.3216 22.6227Z" fill="url(#paint41_linear_37_125)"/>
<path d="M26.3216 22.6227L25.353 25.9724C25.1555 26.6609 25.6314 27.3494 26.303 27.3494H27.7357C28.4074 27.3494 28.8815 26.6507 28.6841 25.9724L27.7155 22.6227C27.5079 21.8802 26.5393 21.8802 26.3216 22.6227Z" fill="url(#paint42_linear_37_125)"/>
</g>
<g filter="url(#filter3_f_37_125)">
<path d="M26.3216 22.3966L25.353 25.7446C25.1555 26.4348 25.6314 27.1233 26.303 27.1233H27.7357C28.4074 27.1233 28.8815 26.423 28.6841 25.7446L27.7155 22.3966C27.5079 21.6541 26.5393 21.6541 26.3216 22.3966Z" fill="url(#paint43_linear_37_125)"/>
</g>
<g filter="url(#filter4_f_37_125)">
<path d="M27.0186 29.2006C26.1414 29.2066 25.2755 29.0017 24.4941 28.6032C24.2443 28.4767 23.9777 28.7568 24.1346 28.9846C24.7438 29.9094 25.8069 30.5253 27.0202 30.5253C28.2302 30.5253 29.2933 29.9094 29.9042 28.9846C30.0611 28.7484 29.7928 28.4767 29.5431 28.6032C28.762 29.0028 27.8959 29.2078 27.0186 29.2006Z" stroke="url(#paint44_radial_37_125)" stroke-width="0.2"/>
</g>
<path d="M27.0186 29.2006C26.1414 29.2066 25.2755 29.0017 24.4941 28.6032C24.2443 28.4767 23.9777 28.7568 24.1346 28.9846C24.7438 29.9094 25.8069 30.5253 27.0202 30.5253C28.2302 30.5253 29.2933 29.9094 29.9042 28.9846C30.0611 28.7484 29.7928 28.4767 29.5431 28.6032C28.762 29.0028 27.8959 29.2078 27.0186 29.2006Z" fill="url(#paint45_radial_37_125)"/>
<path d="M31.374 20.8912C32.5654 20.8912 33.5694 21.7114 33.8428 22.82C33.8613 22.894 33.8627 22.9711 33.8468 23.0457C33.8309 23.1202 33.7982 23.1901 33.7511 23.2501C33.7041 23.31 33.6439 23.3584 33.5753 23.3915C33.5066 23.4246 33.4313 23.4415 33.3551 23.441H29.2899C29.2283 23.4411 29.1674 23.4275 29.1116 23.4014C29.0558 23.3753 29.0064 23.3372 28.967 23.2899C28.9275 23.2425 28.899 23.1871 28.8833 23.1275C28.8677 23.0679 28.8653 23.0055 28.8765 22.9449C28.9906 22.3664 29.302 21.8454 29.7575 21.4708C30.2129 21.0963 30.7843 20.8914 31.374 20.8912Z" fill="white"/>
<path d="M30.9994 21.3857C31.2493 21.3862 31.4957 21.4443 31.7195 21.5555C31.9434 21.6666 32.1386 21.8278 32.2901 22.0266C32.4415 22.2254 32.5451 22.4564 32.5929 22.7017C32.6406 22.947 32.6312 23.2 32.5654 23.4411H29.4232C29.3583 23.1994 29.3498 22.946 29.3984 22.7005C29.447 22.455 29.5515 22.2239 29.7037 22.0252C29.8559 21.8266 30.0518 21.6655 30.2761 21.5546C30.5005 21.4438 30.7474 21.386 30.9977 21.3857" fill="url(#paint46_radial_37_125)"/>
<path d="M30.0662 23.0124C30.0657 22.89 30.0895 22.7687 30.1362 22.6555C30.1828 22.5422 30.2514 22.4394 30.338 22.3528C30.4246 22.2662 30.5274 22.1976 30.6407 22.1509C30.7539 22.1043 30.8752 22.0805 30.9977 22.0809C31.1579 22.08 31.3157 22.1206 31.4557 22.1987C31.5956 22.2769 31.7129 22.39 31.7962 22.5269C31.8794 22.6639 31.9258 22.8201 31.9308 22.9803C31.9357 23.1405 31.8991 23.2992 31.8245 23.4411H30.1775C30.1028 23.3107 30.0644 23.1627 30.0662 23.0124Z" fill="black"/>
<g filter="url(#filter5_f_37_125)">
<path d="M30.8779 21.7299C30.9943 21.8852 30.7513 22.0742 30.4763 22.2801C30.2012 22.4859 29.997 22.6294 29.8806 22.4758C29.7658 22.3206 29.8941 22.0269 30.1691 21.8211C30.4459 21.6169 30.7631 21.5747 30.8779 21.7299Z" fill="#C7A7A3"/>
<path d="M30.8779 21.7299C30.9943 21.8852 30.7513 22.0742 30.4763 22.2801C30.2012 22.4859 29.997 22.6294 29.8806 22.4758C29.7658 22.3206 29.8941 22.0269 30.1691 21.8211C30.4459 21.6169 30.7631 21.5747 30.8779 21.7299Z" fill="url(#paint47_radial_37_125)"/>
</g>
<g filter="url(#filter6_f_37_125)">
<path d="M32.4455 22.7982C32.3973 22.4795 32.2497 22.1842 32.0236 21.9545L31.5511 22.4742L31.7655 22.891L32.4455 22.7982Z" fill="url(#paint48_linear_37_125)"/>
</g>
<path d="M22.6631 20.8912C21.4734 20.8912 20.4676 21.7114 20.1943 22.82C20.1757 22.894 20.1743 22.9711 20.1902 23.0457C20.2061 23.1202 20.2389 23.1901 20.2859 23.2501C20.333 23.31 20.3931 23.3584 20.4618 23.3915C20.5304 23.4246 20.6057 23.4415 20.682 23.441H24.7471C25.0053 23.441 25.2129 23.2048 25.1606 22.9466C25.0456 22.3683 24.7341 21.8477 24.2788 21.473C23.8236 21.0983 23.2527 20.8928 22.6631 20.8912Z" fill="white"/>
<path d="M23.0394 21.3857C22.7895 21.3862 22.5431 21.4443 22.3193 21.5555C22.0954 21.6666 21.9002 21.8278 21.7487 22.0266C21.5973 22.2254 21.4937 22.4564 21.4459 22.7017C21.3982 22.947 21.4076 23.2 21.4734 23.4411H24.6139C24.6521 23.3014 24.672 23.1573 24.6729 23.0125C24.6703 22.5807 24.4971 22.1675 24.1911 21.8628C23.8852 21.5581 23.4712 21.3866 23.0394 21.3857Z" fill="url(#paint49_radial_37_125)"/>
<path d="M23.9709 23.0124C23.9713 22.89 23.9475 22.7687 23.9009 22.6555C23.8542 22.5422 23.7856 22.4394 23.6991 22.3528C23.6125 22.2662 23.5096 22.1976 23.3964 22.1509C23.2832 22.1043 23.1618 22.0805 23.0394 22.0809C22.8791 22.08 22.7213 22.1206 22.5814 22.1987C22.4415 22.2769 22.3242 22.39 22.2409 22.5269C22.1576 22.6639 22.1113 22.8201 22.1063 22.9803C22.1013 23.1405 22.1379 23.2992 22.2125 23.4411H23.8595C23.9308 23.3093 23.969 23.1622 23.9709 23.0124Z" fill="black"/>
<g filter="url(#filter7_f_37_125)">
<path d="M24.5261 22.8218C24.5261 22.2953 24.0975 21.9443 23.9827 21.8397L23.4562 22.3477L23.7802 23.0058L24.5261 22.8218Z" fill="url(#paint50_linear_37_125)"/>
</g>
<g filter="url(#filter8_f_37_125)">
<path d="M22.7166 22.3986C23.0634 22.2149 23.2691 21.9238 23.1761 21.7484C23.0832 21.573 22.7268 21.5797 22.3801 21.7634C22.0334 21.947 21.8277 22.2381 21.9206 22.4136C22.0135 22.589 22.3699 22.5823 22.7166 22.3986Z" fill="#C7A7A3" fill-opacity="0.9"/>
<path d="M22.7166 22.3986C23.0634 22.2149 23.2691 21.9238 23.1761 21.7484C23.0832 21.573 22.7268 21.5797 22.3801 21.7634C22.0334 21.947 21.8277 22.2381 21.9206 22.4136C22.0135 22.589 22.3699 22.5823 22.7166 22.3986Z" fill="url(#paint51_radial_37_125)"/>
</g>
<path d="M35.9859 26.3673C36.104 24.4283 36.2221 22.4928 36.3234 20.5538C37.0288 20.6811 37.6632 21.0623 38.1067 21.6254C38.5503 22.1885 38.7722 22.8945 38.7307 23.6101C38.6891 24.3257 38.387 25.0013 37.8813 25.5093C37.3755 26.0173 36.7013 26.3225 35.9859 26.3673Z" fill="url(#paint52_linear_37_125)"/>
<path d="M35.9859 26.3673C36.104 24.4283 36.2221 22.4928 36.3234 20.5538C37.0288 20.6811 37.6632 21.0623 38.1067 21.6254C38.5503 22.1885 38.7722 22.8945 38.7307 23.6101C38.6891 24.3257 38.387 25.0013 37.8813 25.5093C37.3755 26.0173 36.7013 26.3225 35.9859 26.3673Z" fill="url(#paint53_radial_37_125)"/>
<path d="M35.9859 26.3673C36.104 24.4283 36.2221 22.4928 36.3234 20.5538C37.0288 20.6811 37.6632 21.0623 38.1067 21.6254C38.5503 22.1885 38.7722 22.8945 38.7307 23.6101C38.6891 24.3257 38.387 25.0013 37.8813 25.5093C37.3755 26.0173 36.7013 26.3225 35.9859 26.3673Z" fill="url(#paint54_radial_37_125)"/>
<path d="M17.8115 20.5369C17.0925 20.6413 16.4379 21.009 15.9745 21.5685C15.5111 22.1281 15.2718 22.8398 15.3031 23.5656C15.3344 24.2915 15.6341 24.9799 16.1439 25.4975C16.6538 26.0151 17.3376 26.325 18.063 26.3672C17.9448 24.4215 17.8486 22.4859 17.8098 20.5369" fill="url(#paint55_linear_37_125)"/>
<path d="M17.8115 20.5369C17.0925 20.6413 16.4379 21.009 15.9745 21.5685C15.5111 22.1281 15.2718 22.8398 15.3031 23.5656C15.3344 24.2915 15.6341 24.9799 16.1439 25.4975C16.6538 26.0151 17.3376 26.325 18.063 26.3672C17.9448 24.4215 17.8486 22.4859 17.8098 20.5369" fill="url(#paint56_radial_37_125)"/>
<g filter="url(#filter9_f_37_125)">
<path d="M17.8419 21.7418C17.443 21.8313 17.0882 22.0583 16.8398 22.3831C16.5914 22.7079 16.4652 23.1097 16.4833 23.5182C16.5014 23.9267 16.6627 24.3158 16.9388 24.6174C17.215 24.9189 17.5885 25.1136 17.9938 25.1674C17.9294 24.0262 17.8787 22.8843 17.8419 21.7418Z" fill="#B57562"/>
</g>
<g filter="url(#filter10_f_37_125)">
<path d="M36.0585 25.1809C36.1293 24.025 36.1968 22.8691 36.261 21.7131C36.6971 21.7707 37.0952 21.9913 37.3754 22.3304C37.6556 22.6695 37.7971 23.102 37.7714 23.5412C37.7458 23.9803 37.5549 24.3935 37.2372 24.6976C36.9194 25.0018 36.4983 25.1745 36.0585 25.1809Z" fill="#E6AA8B"/>
</g>
<path d="M16.4886 12.113C16.4886 10.278 17.2175 8.51819 18.515 7.22067C19.8125 5.92315 21.5723 5.19421 23.4073 5.19421H30.1371C31.0456 5.19421 31.9453 5.37317 32.7848 5.72087C33.6242 6.06857 34.3869 6.5782 35.0294 7.22067C35.6718 7.86313 36.1815 8.62585 36.5292 9.46527C36.8769 10.3047 37.0558 11.2044 37.0558 12.113V16.6388H16.4869L16.4886 12.113Z" fill="url(#paint57_radial_37_125)"/>
<path d="M16.4886 12.113C16.4886 10.278 17.2175 8.51819 18.515 7.22067C19.8125 5.92315 21.5723 5.19421 23.4073 5.19421H30.1371C31.0456 5.19421 31.9453 5.37317 32.7848 5.72087C33.6242 6.06857 34.3869 6.5782 35.0294 7.22067C35.6718 7.86313 36.1815 8.62585 36.5292 9.46527C36.8769 10.3047 37.0558 11.2044 37.0558 12.113V16.6388H16.4869L16.4886 12.113Z" fill="url(#paint58_radial_37_125)"/>
<path d="M16.4886 12.113C16.4886 10.278 17.2175 8.51819 18.515 7.22067C19.8125 5.92315 21.5723 5.19421 23.4073 5.19421H30.1371C31.0456 5.19421 31.9453 5.37317 32.7848 5.72087C33.6242 6.06857 34.3869 6.5782 35.0294 7.22067C35.6718 7.86313 36.1815 8.62585 36.5292 9.46527C36.8769 10.3047 37.0558 11.2044 37.0558 12.113V16.6388H16.4869L16.4886 12.113Z" fill="url(#paint59_radial_37_125)"/>
<path d="M16.4886 12.113C16.4886 10.278 17.2175 8.51819 18.515 7.22067C19.8125 5.92315 21.5723 5.19421 23.4073 5.19421H30.1371C31.0456 5.19421 31.9453 5.37317 32.7848 5.72087C33.6242 6.06857 34.3869 6.5782 35.0294 7.22067C35.6718 7.86313 36.1815 8.62585 36.5292 9.46527C36.8769 10.3047 37.0558 11.2044 37.0558 12.113V16.6388H16.4869L16.4886 12.113Z" fill="url(#paint60_radial_37_125)"/>
<path d="M16.4886 12.113C16.4886 10.278 17.2175 8.51819 18.515 7.22067C19.8125 5.92315 21.5723 5.19421 23.4073 5.19421H30.1371C31.0456 5.19421 31.9453 5.37317 32.7848 5.72087C33.6242 6.06857 34.3869 6.5782 35.0294 7.22067C35.6718 7.86313 36.1815 8.62585 36.5292 9.46527C36.8769 10.3047 37.0558 11.2044 37.0558 12.113V16.6388H16.4869L16.4886 12.113Z" fill="url(#paint61_radial_37_125)"/>
<path d="M16.4886 12.113C16.4886 10.278 17.2175 8.51819 18.515 7.22067C19.8125 5.92315 21.5723 5.19421 23.4073 5.19421H30.1371C31.0456 5.19421 31.9453 5.37317 32.7848 5.72087C33.6242 6.06857 34.3869 6.5782 35.0294 7.22067C35.6718 7.86313 36.1815 8.62585 36.5292 9.46527C36.8769 10.3047 37.0558 11.2044 37.0558 12.113V16.6388H16.4869L16.4886 12.113Z" fill="url(#paint62_radial_37_125)"/>
<path d="M16.4886 12.113C16.4886 10.278 17.2175 8.51819 18.515 7.22067C19.8125 5.92315 21.5723 5.19421 23.4073 5.19421H30.1371C31.0456 5.19421 31.9453 5.37317 32.7848 5.72087C33.6242 6.06857 34.3869 6.5782 35.0294 7.22067C35.6718 7.86313 36.1815 8.62585 36.5292 9.46527C36.8769 10.3047 37.0558 11.2044 37.0558 12.113V16.6388H16.4869L16.4886 12.113Z" fill="url(#paint63_linear_37_125)"/>
<path d="M16.4886 12.113C16.4886 10.278 17.2175 8.51819 18.515 7.22067C19.8125 5.92315 21.5723 5.19421 23.4073 5.19421H30.1371C31.0456 5.19421 31.9453 5.37317 32.7848 5.72087C33.6242 6.06857 34.3869 6.5782 35.0294 7.22067C35.6718 7.86313 36.1815 8.62585 36.5292 9.46527C36.8769 10.3047 37.0558 11.2044 37.0558 12.113V16.6388H16.4869L16.4886 12.113Z" fill="url(#paint64_radial_37_125)"/>
<g filter="url(#filter11_ii_37_125)">
<path d="M24.6628 3.49316H28.6959C30.0948 3.49316 31.2272 4.51073 31.2272 6.24885V17.7154H22.1315V6.24885C22.1315 4.51073 23.2638 3.49316 24.6628 3.49316Z" fill="url(#paint65_linear_37_125)"/>
<path d="M24.6628 3.49316H28.6959C30.0948 3.49316 31.2272 4.51073 31.2272 6.24885V17.7154H22.1315V6.24885C22.1315 4.51073 23.2638 3.49316 24.6628 3.49316Z" fill="url(#paint66_linear_37_125)"/>
<path d="M24.6628 3.49316H28.6959C30.0948 3.49316 31.2272 4.51073 31.2272 6.24885V17.7154H22.1315V6.24885C22.1315 4.51073 23.2638 3.49316 24.6628 3.49316Z" fill="url(#paint67_radial_37_125)"/>
<path d="M24.6628 3.49316H28.6959C30.0948 3.49316 31.2272 4.51073 31.2272 6.24885V17.7154H22.1315V6.24885C22.1315 4.51073 23.2638 3.49316 24.6628 3.49316Z" fill="url(#paint68_radial_37_125)"/>
</g>
<path d="M37.5738 16.6084H16.3215C15.8052 16.6084 15.3101 16.8135 14.9451 17.1786C14.58 17.5436 14.3749 18.0387 14.3749 18.555C14.3749 19.0712 14.58 19.5663 14.9451 19.9314C15.3101 20.2964 15.8052 20.5015 16.3215 20.5015H37.5738C38.6572 20.5015 39.5195 19.6223 39.5195 18.5558C39.5211 18.2998 39.4719 18.046 39.3746 17.8091C39.2774 17.5723 39.1342 17.357 38.9532 17.1759C38.7723 16.9948 38.5572 16.8514 38.3204 16.754C38.0836 16.6565 37.8299 16.6071 37.5738 16.6084Z" fill="url(#paint69_linear_37_125)"/>
<path d="M37.5738 16.6084H16.3215C15.8052 16.6084 15.3101 16.8135 14.9451 17.1786C14.58 17.5436 14.3749 18.0387 14.3749 18.555C14.3749 19.0712 14.58 19.5663 14.9451 19.9314C15.3101 20.2964 15.8052 20.5015 16.3215 20.5015H37.5738C38.6572 20.5015 39.5195 19.6223 39.5195 18.5558C39.5211 18.2998 39.4719 18.046 39.3746 17.8091C39.2774 17.5723 39.1342 17.357 38.9532 17.1759C38.7723 16.9948 38.5572 16.8514 38.3204 16.754C38.0836 16.6565 37.8299 16.6071 37.5738 16.6084Z" fill="url(#paint70_linear_37_125)"/>
<path d="M37.5738 16.6084H16.3215C15.8052 16.6084 15.3101 16.8135 14.9451 17.1786C14.58 17.5436 14.3749 18.0387 14.3749 18.555C14.3749 19.0712 14.58 19.5663 14.9451 19.9314C15.3101 20.2964 15.8052 20.5015 16.3215 20.5015H37.5738C38.6572 20.5015 39.5195 19.6223 39.5195 18.5558C39.5211 18.2998 39.4719 18.046 39.3746 17.8091C39.2774 17.5723 39.1342 17.357 38.9532 17.1759C38.7723 16.9948 38.5572 16.8514 38.3204 16.754C38.0836 16.6565 37.8299 16.6071 37.5738 16.6084Z" fill="url(#paint71_linear_37_125)"/>
<path d="M37.5738 16.6084H16.3215C15.8052 16.6084 15.3101 16.8135 14.9451 17.1786C14.58 17.5436 14.3749 18.0387 14.3749 18.555C14.3749 19.0712 14.58 19.5663 14.9451 19.9314C15.3101 20.2964 15.8052 20.5015 16.3215 20.5015H37.5738C38.6572 20.5015 39.5195 19.6223 39.5195 18.5558C39.5211 18.2998 39.4719 18.046 39.3746 17.8091C39.2774 17.5723 39.1342 17.357 38.9532 17.1759C38.7723 16.9948 38.5572 16.8514 38.3204 16.754C38.0836 16.6565 37.8299 16.6071 37.5738 16.6084Z" fill="url(#paint72_radial_37_125)"/>
<defs>
<filter id="filter0_i_37_125" x="17.7947" y="12.6816" width="19.3699" height="22.486" filterUnits="userSpaceOnUse" color-interpolation-filters="sRGB">
<feFlood flood-opacity="0" result="BackgroundImageFix"/>
<feBlend mode="normal" in="SourceGraphic" in2="BackgroundImageFix" result="shape"/>
<feColorMatrix in="SourceAlpha" type="matrix" values="0 0 0 0 0 0 0 0 0 0 0 0 0 0 0 0 0 0 127 0" result="hardAlpha"/>
<feOffset dx="0.75"/>
<feGaussianBlur stdDeviation="0.6"/>
<feComposite in2="hardAlpha" operator="arithmetic" k2="-1" k3="1"/>
<feColorMatrix type="matrix" values="0 0 0 0 0.843137 0 0 0 0 0.611765 0 0 0 0 0.498039 0 0 0 1 0"/>
<feBlend mode="normal" in2="shape" result="effect1_innerShadow_37_125"/>
</filter>
<filter id="filter1_f_37_125" x="23.9307" y="21.5616" width="5.19641" height="7.14551" filterUnits="userSpaceOnUse" color-interpolation-filters="sRGB">
<feFlood flood-opacity="0" result="BackgroundImageFix"/>
<feBlend mode="normal" in="SourceGraphic" in2="BackgroundImageFix" result="shape"/>
<feGaussianBlur stdDeviation="0.5" result="effect1_foregroundBlur_37_125"/>
</filter>
<filter id="filter2_f_37_125" x="25.2079" y="21.9658" width="3.62133" height="5.48357" filterUnits="userSpaceOnUse" color-interpolation-filters="sRGB">
<feFlood flood-opacity="0" result="BackgroundImageFix"/>
<feBlend mode="normal" in="SourceGraphic" in2="BackgroundImageFix" result="shape"/>
<feGaussianBlur stdDeviation="0.05" result="effect1_foregroundBlur_37_125"/>
</filter>
<filter id="filter3_f_37_125" x="25.2079" y="21.7397" width="3.62133" height="5.48357" filterUnits="userSpaceOnUse" color-interpolation-filters="sRGB">
<feFlood flood-opacity="0" result="BackgroundImageFix"/>
<feBlend mode="normal" in="SourceGraphic" in2="BackgroundImageFix" result="shape"/>
<feGaussianBlur stdDeviation="0.05" result="effect1_foregroundBlur_37_125"/>
</filter>
<filter id="filter4_f_37_125" x="23.8876" y="28.3709" width="6.26335" height="2.3543" filterUnits="userSpaceOnUse" color-interpolation-filters="sRGB">
<feFlood flood-opacity="0" result="BackgroundImageFix"/>
<feBlend mode="normal" in="SourceGraphic" in2="BackgroundImageFix" result="shape"/>
<feGaussianBlur stdDeviation="0.05" result="effect1_foregroundBlur_37_125"/>
</filter>
<filter id="filter5_f_37_125" x="29.7386" y="21.5361" width="1.26915" height="1.10405" filterUnits="userSpaceOnUse" color-interpolation-filters="sRGB">
<feFlood flood-opacity="0" result="BackgroundImageFix"/>
<feBlend mode="normal" in="SourceGraphic" in2="BackgroundImageFix" result="shape"/>
<feGaussianBlur stdDeviation="0.05" result="effect1_foregroundBlur_37_125"/>
</filter>
<filter id="filter6_f_37_125" x="31.3511" y="21.7545" width="1.29435" height="1.33652" filterUnits="userSpaceOnUse" color-interpolation-filters="sRGB">
<feFlood flood-opacity="0" result="BackgroundImageFix"/>
<feBlend mode="normal" in="SourceGraphic" in2="BackgroundImageFix" result="shape"/>
<feGaussianBlur stdDeviation="0.1" result="effect1_foregroundBlur_37_125"/>
</filter>
<filter id="filter7_f_37_125" x="23.2562" y="21.6397" width="1.46989" height="1.56602" filterUnits="userSpaceOnUse" color-interpolation-filters="sRGB">
<feFlood flood-opacity="0" result="BackgroundImageFix"/>
<feBlend mode="normal" in="SourceGraphic" in2="BackgroundImageFix" result="shape"/>
<feGaussianBlur stdDeviation="0.1" result="effect1_foregroundBlur_37_125"/>
</filter>
<filter id="filter8_f_37_125" x="21.7983" y="21.5211" width="1.50023" height="1.1198" filterUnits="userSpaceOnUse" color-interpolation-filters="sRGB">
<feFlood flood-opacity="0" result="BackgroundImageFix"/>
<feBlend mode="normal" in="SourceGraphic" in2="BackgroundImageFix" result="shape"/>
<feGaussianBlur stdDeviation="0.05" result="effect1_foregroundBlur_37_125"/>
</filter>
<filter id="filter9_f_37_125" x="16.2316" y="21.4918" width="2.01227" height="3.92566" filterUnits="userSpaceOnUse" color-interpolation-filters="sRGB">
<feFlood flood-opacity="0" result="BackgroundImageFix"/>
<feBlend mode="normal" in="SourceGraphic" in2="BackgroundImageFix" result="shape"/>
<feGaussianBlur stdDeviation="0.125" result="effect1_foregroundBlur_37_125"/>
</filter>
<filter id="filter10_f_37_125" x="35.8085" y="21.4631" width="2.21594" height="3.96777" filterUnits="userSpaceOnUse" color-interpolation-filters="sRGB">
<feFlood flood-opacity="0" result="BackgroundImageFix"/>
<feBlend mode="normal" in="SourceGraphic" in2="BackgroundImageFix" result="shape"/>
<feGaussianBlur stdDeviation="0.125" result="effect1_foregroundBlur_37_125"/>
</filter>
<filter id="filter11_ii_37_125" x="21.9315" y="3.49316" width="9.49564" height="14.2223" filterUnits="userSpaceOnUse" color-interpolation-filters="sRGB">
<feFlood flood-opacity="0" result="BackgroundImageFix"/>
<feBlend mode="normal" in="SourceGraphic" in2="BackgroundImageFix" result="shape"/>
<feColorMatrix in="SourceAlpha" type="matrix" values="0 0 0 0 0 0 0 0 0 0 0 0 0 0 0 0 0 0 127 0" result="hardAlpha"/>
<feOffset dx="0.2"/>
<feGaussianBlur stdDeviation="0.3"/>
<feComposite in2="hardAlpha" operator="arithmetic" k2="-1" k3="1"/>
<feColorMatrix type="matrix" values="0 0 0 0 0.768627 0 0 0 0 0.658824 0 0 0 0 0.321569 0 0 0 1 0"/>
<feBlend mode="normal" in2="shape" result="effect1_innerShadow_37_125"/>
<feColorMatrix in="SourceAlpha" type="matrix" values="0 0 0 0 0 0 0 0 0 0 0 0 0 0 0 0 0 0 127 0" result="hardAlpha"/>
<feOffset dx="-0.2"/>
<feGaussianBlur stdDeviation="0.3"/>
<feComposite in2="hardAlpha" operator="arithmetic" k2="-1" k3="1"/>
<feColorMatrix type="matrix" values="0 0 0 0 1 0 0 0 0 0.92549 0 0 0 0 0.372549 0 0 0 1 0"/>
<feBlend mode="normal" in2="effect1_innerShadow_37_125" result="effect2_innerShadow_37_125"/>
</filter>
<radialGradient id="paint0_radial_37_125" cx="0" cy="0" r="1" gradientUnits="userSpaceOnUse" gradientTransform="translate(27.0186 50.1779) rotate(-90) scale(16.2422 11.0912)">
<stop stop-color="#FF804B"/>
<stop offset="1" stop-color="#FF8B3C"/>
</radialGradient>
<radialGradient id="paint1_radial_37_125" cx="0" cy="0" r="1" gradientUnits="userSpaceOnUse" gradientTransform="translate(31.5174 44.1653) rotate(180) scale(2.16211 21.0998)">
<stop stop-color="#FF8E3D"/>
<stop offset="1" stop-color="#FF8E3D" stop-opacity="0"/>
</radialGradient>
<radialGradient id="paint2_radial_37_125" cx="0" cy="0" r="1" gradientUnits="userSpaceOnUse" gradientTransform="translate(23.1541 41.4517) rotate(90) scale(9.97981 2.72872)">
<stop stop-color="#FF7446"/>
<stop offset="1" stop-color="#FF6F4E"/>
</radialGradient>
<radialGradient id="paint3_radial_37_125" cx="0" cy="0" r="1" gradientUnits="userSpaceOnUse" gradientTransform="translate(23.1541 44.2648) rotate(90) scale(7.6919 1.18376)">
<stop offset="0.35" stop-color="#FF7E58"/>
<stop offset="1" stop-color="#FF7E58" stop-opacity="0"/>
</radialGradient>
<radialGradient id="paint4_radial_37_125" cx="0" cy="0" r="1" gradientUnits="userSpaceOnUse" gradientTransform="translate(23.9752 33.8117) rotate(116.713) scale(5.70382 9.3181)">
<stop offset="0.343" stop-color="#DA4708"/>
<stop offset="1" stop-color="#DC5314" stop-opacity="0"/>
</radialGradient>
<radialGradient id="paint5_radial_37_125" cx="0" cy="0" r="1" gradientUnits="userSpaceOnUse" gradientTransform="translate(33.8208 34.1989) rotate(90) scale(15.9258 4.78214)">
<stop stop-color="#FF7523"/>
<stop offset="1" stop-color="#FB684A"/>
</radialGradient>
<radialGradient id="paint6_radial_37_125" cx="0" cy="0" r="1" gradientUnits="userSpaceOnUse" gradientTransform="translate(30.8458 46.2105) scale(1.48789 18.6423)">
<stop offset="0.214" stop-color="#F25937"/>
<stop offset="1" stop-color="#F25937" stop-opacity="0"/>
</radialGradient>
<linearGradient id="paint7_linear_37_125" x1="15.4541" y1="35.7734" x2="15.4541" y2="50.5069" gradientUnits="userSpaceOnUse">
<stop stop-color="#E6743E"/>
<stop offset="1" stop-color="#F46D40"/>
</linearGradient>
<radialGradient id="paint8_radial_37_125" cx="0" cy="0" r="1" gradientUnits="userSpaceOnUse" gradientTransform="translate(20.952 48.7435) rotate(-112.642) scale(15.4615 17.6374)">
<stop offset="0.684" stop-color="#E07241" stop-opacity="0"/>
<stop offset="0.951" stop-color="#CC6E42"/>
</radialGradient>
<radialGradient id="paint9_radial_37_125" cx="0" cy="0" r="1" gradientUnits="userSpaceOnUse" gradientTransform="translate(14.0754 50.5069) scale(0.220337 15.1985)">
<stop offset="0.245" stop-color="#DE521D"/>
<stop offset="1" stop-color="#DE521D" stop-opacity="0"/>
</radialGradient>
<radialGradient id="paint10_radial_37_125" cx="0" cy="0" r="1" gradientUnits="userSpaceOnUse" gradientTransform="translate(39.9246 38.0431) rotate(90) scale(14.8217 3.39194)">
<stop offset="0.309" stop-color="#FF905A"/>
<stop offset="1" stop-color="#FF7955"/>
</radialGradient>
<radialGradient id="paint11_radial_37_125" cx="0" cy="0" r="1" gradientUnits="userSpaceOnUse" gradientTransform="translate(39.9246 47.1454) rotate(90) scale(7.38281 0.47007)">
<stop offset="0.325" stop-color="#FE713A"/>
<stop offset="1" stop-color="#FE713A" stop-opacity="0"/>
</radialGradient>
<radialGradient id="paint12_radial_37_125" cx="0" cy="0" r="1" gradientUnits="userSpaceOnUse" gradientTransform="translate(24.62 52.0127) rotate(-108.091) scale(19.684 31.5033)">
<stop offset="0.566" stop-color="#FDBF28" stop-opacity="0"/>
<stop offset="0.971" stop-color="#CD963A"/>
</radialGradient>
<linearGradient id="paint13_linear_37_125" x1="35.4949" y1="33.3029" x2="35.4949" y2="50.5069" gradientUnits="userSpaceOnUse">
<stop stop-color="#FFDA42"/>
<stop offset="1" stop-color="#FFCF4C"/>
</linearGradient>
<radialGradient id="paint14_radial_37_125" cx="0" cy="0" r="1" gradientUnits="userSpaceOnUse" gradientTransform="translate(32.4675 42.795) rotate(-71.0295) scale(9.31243 14.383)">
<stop offset="0.834" stop-color="#FFCE64" stop-opacity="0"/>
<stop offset="0.998" stop-color="#FFCE64"/>
</radialGradient>
<radialGradient id="paint15_radial_37_125" cx="0" cy="0" r="1" gradientUnits="userSpaceOnUse" gradientTransform="translate(10.9198 48.7519) rotate(-75.6554) scale(12.7369 5.13057)">
<stop stop-color="#F37D42"/>
<stop offset="1" stop-color="#CE763C"/>
</radialGradient>
<linearGradient id="paint16_linear_37_125" x1="14.2897" y1="50.5052" x2="11.9643" y2="50.2403" gradientUnits="userSpaceOnUse">
<stop offset="0.333" stop-color="#D15D2A"/>
<stop offset="1" stop-color="#D15D2A" stop-opacity="0"/>
</linearGradient>
<radialGradient id="paint17_radial_37_125" cx="0" cy="0" r="1" gradientUnits="userSpaceOnUse" gradientTransform="translate(43.3299 50.5069) rotate(-99.8102) scale(13.9276 4.24717)">
<stop stop-color="#FF9C5E"/>
<stop offset="1" stop-color="#FF9457"/>
</radialGradient>
<radialGradient id="paint18_radial_37_125" cx="0" cy="0" r="1" gradientUnits="userSpaceOnUse" gradientTransform="translate(39.9246 50.5069) rotate(-90) scale(14.0471 1.05492)">
<stop offset="0.353" stop-color="#EE6A13"/>
<stop offset="1" stop-color="#EE6A13" stop-opacity="0"/>
</radialGradient>
<radialGradient id="paint19_radial_37_125" cx="0" cy="0" r="1" gradientUnits="userSpaceOnUse" gradientTransform="translate(27.0354 34.9111) rotate(90) scale(3.375 8.21153)">
<stop offset="0.133" stop-color="#CC757C"/>
<stop offset="0.88" stop-color="#D28A8A"/>
</radialGradient>
<radialGradient id="paint20_radial_37_125" cx="0" cy="0" r="1" gradientUnits="userSpaceOnUse" gradientTransform="translate(31.0448 35.2276) rotate(125.503) scale(5.08504 2.52239)">
<stop offset="0.239" stop-color="#E19582"/>
<stop offset="1" stop-color="#E19582" stop-opacity="0"/>
</radialGradient>
<radialGradient id="paint21_radial_37_125" cx="0" cy="0" r="1" gradientUnits="userSpaceOnUse" gradientTransform="translate(28.1694 34.4352) rotate(143.436) scale(5.49637 7.1862)">
<stop offset="0.694" stop-color="#CA7973" stop-opacity="0"/>
<stop offset="1" stop-color="#CA7973"/>
</radialGradient>
<linearGradient id="paint22_linear_37_125" x1="17.8166" y1="20.1319" x2="16.0667" y2="20.1319" gradientUnits="userSpaceOnUse">
<stop stop-color="#E5B182"/>
<stop offset="1" stop-color="#F8C89B"/>
</linearGradient>
<linearGradient id="paint23_linear_37_125" x1="36.1057" y1="20.1977" x2="37.2667" y2="20.1977" gradientUnits="userSpaceOnUse">
<stop stop-color="#D8B079"/>
<stop offset="1" stop-color="#FBDEAC"/>
</linearGradient>
<radialGradient id="paint24_radial_37_125" cx="0" cy="0" r="1" gradientUnits="userSpaceOnUse" gradientTransform="translate(36.963 25.3382) rotate(99.782) scale(6.53439 7.76235)">
<stop offset="0.28" stop-color="#F7BF94"/>
<stop offset="1" stop-color="#DA8F78"/>
</radialGradient>
<radialGradient id="paint25_radial_37_125" cx="0" cy="0" r="1" gradientUnits="userSpaceOnUse" gradientTransform="translate(16.9104 25.8525) rotate(64.5924) scale(5.40913 2.4587)">
<stop stop-color="#F8BF95"/>
<stop offset="1" stop-color="#DC998E"/>
</radialGradient>
<radialGradient id="paint26_radial_37_125" cx="0" cy="0" r="1" gradientUnits="userSpaceOnUse" gradientTransform="translate(18.3718 25.4803) rotate(81.457) scale(2.19905 1.92903)">
<stop offset="0.263" stop-color="#D79B77"/>
<stop offset="1" stop-color="#D79B77" stop-opacity="0"/>
</radialGradient>
<radialGradient id="paint27_radial_37_125" cx="0" cy="0" r="1" gradientUnits="userSpaceOnUse" gradientTransform="translate(16.9104 25.8525) rotate(64.5924) scale(5.40913 2.4587)">
<stop stop-color="#F8BF95"/>
<stop offset="1" stop-color="#DC998E"/>
</radialGradient>
<radialGradient id="paint28_radial_37_125" cx="0" cy="0" r="1" gradientUnits="userSpaceOnUse" gradientTransform="translate(18.3718 25.4803) rotate(81.457) scale(2.19905 1.92903)">
<stop offset="0.263" stop-color="#D79B77"/>
<stop offset="1" stop-color="#D79B77" stop-opacity="0"/>
</radialGradient>
<radialGradient id="paint29_radial_37_125" cx="0" cy="0" r="1" gradientUnits="userSpaceOnUse" gradientTransform="translate(33.1665 25.6301) rotate(179.651) scale(8.64859 12.2875)">
<stop stop-color="#FDC19A"/>
<stop offset="0.946" stop-color="#CE9582"/>
</radialGradient>
<linearGradient id="paint30_linear_37_125" x1="36.4146" y1="26.995" x2="28.485" y2="26.995" gradientUnits="userSpaceOnUse">
<stop stop-color="#F7C29D"/>
<stop offset="1" stop-color="#F7C29D" stop-opacity="0"/>
</linearGradient>
<radialGradient id="paint31_radial_37_125" cx="0" cy="0" r="1" gradientUnits="userSpaceOnUse" gradientTransform="translate(29.8991 13.1508) rotate(95.0389) scale(23.7087 19.6337)">
<stop offset="0.778" stop-color="#C9937F" stop-opacity="0"/>
<stop offset="1" stop-color="#B36E91"/>
</radialGradient>
<radialGradient id="paint32_radial_37_125" cx="0" cy="0" r="1" gradientUnits="userSpaceOnUse" gradientTransform="translate(31.4769 21.8836) rotate(-90) scale(2.44298 3.02319)">
<stop offset="0.325" stop-color="#E4A38D"/>
<stop offset="1" stop-color="#E4A38D" stop-opacity="0"/>
</radialGradient>
<radialGradient id="paint33_radial_37_125" cx="0" cy="0" r="1" gradientUnits="userSpaceOnUse" gradientTransform="translate(22.9416 21.6338) rotate(-93.0124) scale(2.01305 2.19069)">
<stop offset="0.378" stop-color="#C2847C"/>
<stop offset="1" stop-color="#C2847C" stop-opacity="0"/>
</radialGradient>
<radialGradient id="paint34_radial_37_125" cx="0" cy="0" r="1" gradientUnits="userSpaceOnUse" gradientTransform="translate(18.1271 24.6258) scale(2.19868 11.1754)">
<stop stop-color="#DBA085"/>
<stop offset="1" stop-color="#DBA085" stop-opacity="0"/>
</radialGradient>
<radialGradient id="paint35_radial_37_125" cx="0" cy="0" r="1" gradientUnits="userSpaceOnUse" gradientTransform="translate(16.3552 18.4563) rotate(-54.4126) scale(8.18603 1.85415)">
<stop offset="0.451" stop-color="#B67459"/>
<stop offset="1" stop-color="#B67459" stop-opacity="0"/>
</radialGradient>
<radialGradient id="paint36_radial_37_125" cx="0" cy="0" r="1" gradientUnits="userSpaceOnUse" gradientTransform="translate(26.7379 31.3422) rotate(-103.259) scale(19.1725 21.1192)">
<stop offset="0.924" stop-color="#C17F5F" stop-opacity="0"/>
<stop offset="1" stop-color="#C17F5F"/>
</radialGradient>
<radialGradient id="paint37_radial_37_125" cx="0" cy="0" r="1" gradientUnits="userSpaceOnUse" gradientTransform="translate(30.5859 14.1211) rotate(19.4156) scale(3.95018 2.36968)">
<stop offset="0.258" stop-color="#C17F5F"/>
<stop offset="1" stop-color="#C17F5F" stop-opacity="0"/>
</radialGradient>
<linearGradient id="paint38_linear_37_125" x1="27.1046" y1="20.1995" x2="27.1046" y2="23.2589" gradientUnits="userSpaceOnUse">
<stop stop-color="#C37C74"/>
<stop offset="1" stop-color="#C37C74" stop-opacity="0"/>
</linearGradient>
<linearGradient id="paint39_linear_37_125" x1="25.0644" y1="25.1505" x2="27.0219" y2="25.2585" gradientUnits="userSpaceOnUse">
<stop stop-color="#D29879" stop-opacity="0.915"/>
<stop offset="0.203" stop-color="#D29879"/>
<stop offset="1" stop-color="#D29879" stop-opacity="0"/>
</linearGradient>
<radialGradient id="paint40_radial_37_125" cx="0" cy="0" r="1" gradientUnits="userSpaceOnUse" gradientTransform="translate(28.053 26.1597) rotate(180) scale(1.26562 0.435054)">
<stop stop-color="#F3BEA3"/>
<stop offset="1" stop-color="#F3BEA3" stop-opacity="0"/>
</radialGradient>
<linearGradient id="paint41_linear_37_125" x1="28.728" y1="25.2096" x2="27.1164" y2="25.3817" gradientUnits="userSpaceOnUse">
<stop offset="0.197" stop-color="#F3BEA3"/>
<stop offset="1" stop-color="#F3BEA3" stop-opacity="0"/>
</linearGradient>
<linearGradient id="paint42_linear_37_125" x1="27.0185" y1="26.1614" x2="27.0185" y2="27.7122" gradientUnits="userSpaceOnUse">
<stop stop-color="#CB8685" stop-opacity="0"/>
<stop offset="0.845" stop-color="#CB8685"/>
</linearGradient>
<linearGradient id="paint43_linear_37_125" x1="27.0185" y1="21.8397" x2="27.0185" y2="24.4807" gradientUnits="userSpaceOnUse">
<stop stop-color="#CC8C7E"/>
<stop offset="1" stop-color="#CC8C7E" stop-opacity="0"/>
</linearGradient>
<radialGradient id="paint44_radial_37_125" cx="0" cy="0" r="1" gradientUnits="userSpaceOnUse" gradientTransform="translate(24.9666 29.9161) rotate(-60.7323) scale(1.2937 3.76476)">
<stop stop-color="#D59F91"/>
<stop offset="1" stop-color="#D59F91" stop-opacity="0"/>
</radialGradient>
<radialGradient id="paint45_radial_37_125" cx="0" cy="0" r="1" gradientUnits="userSpaceOnUse" gradientTransform="translate(27.0186 30.3717) rotate(-90) scale(1.31309 5.28294)">
<stop stop-color="#89024E"/>
<stop offset="1" stop-color="#87004D"/>
</radialGradient>
<radialGradient id="paint46_radial_37_125" cx="0" cy="0" r="1" gradientUnits="userSpaceOnUse" gradientTransform="translate(30.9943 22.2548) rotate(90) scale(1.47813 2.35114)">
<stop offset="0.802" stop-color="#925C51"/>
<stop offset="1" stop-color="#85534D"/>
</radialGradient>
<radialGradient id="paint47_radial_37_125" cx="0" cy="0" r="1" gradientUnits="userSpaceOnUse" gradientTransform="translate(30.5775 22.4083) rotate(-127.812) scale(0.689204 0.948854)">
<stop offset="0.766" stop-color="#FFE6E2" stop-opacity="0"/>
<stop offset="0.966" stop-color="#FFE6E2"/>
</radialGradient>
<linearGradient id="paint48_linear_37_125" x1="32.4118" y1="22.3527" x2="31.8397" y2="22.7054" gradientUnits="userSpaceOnUse">
<stop stop-color="#B4948D"/>
<stop offset="1" stop-color="#B4948D" stop-opacity="0"/>
</linearGradient>
<radialGradient id="paint49_radial_37_125" cx="0" cy="0" r="1" gradientUnits="userSpaceOnUse" gradientTransform="translate(23.0428 22.2548) rotate(90) scale(1.4782 2.35126)">
<stop offset="0.802" stop-color="#925C51"/>
<stop offset="1" stop-color="#85534D"/>
</radialGradient>
<linearGradient id="paint50_linear_37_125" x1="24.3996" y1="22.3527" x2="23.8275" y2="22.7054" gradientUnits="userSpaceOnUse">
<stop stop-color="#B4948D"/>
<stop offset="1" stop-color="#B4948D" stop-opacity="0"/>
</linearGradient>
<radialGradient id="paint51_radial_37_125" cx="0" cy="0" r="1" gradientUnits="userSpaceOnUse" gradientTransform="translate(22.7931 22.6006) rotate(-118.811) scale(0.900275 1.08216)">
<stop offset="0.766" stop-color="#FFE6E2" stop-opacity="0"/>
<stop offset="0.966" stop-color="#FFE6E2"/>
</radialGradient>
<linearGradient id="paint52_linear_37_125" x1="38.745" y1="22.4033" x2="36.5461" y2="26.3673" gradientUnits="userSpaceOnUse">
<stop stop-color="#F8C5A2"/>
<stop offset="1" stop-color="#E0A48C"/>
</linearGradient>
<radialGradient id="paint53_radial_37_125" cx="0" cy="0" r="1" gradientUnits="userSpaceOnUse" gradientTransform="translate(35.4324 22.2801) rotate(74.347) scale(4.2444 4.04948)">
<stop offset="0.856" stop-color="#CE8D79" stop-opacity="0"/>
<stop offset="1" stop-color="#CE8D79"/>
</radialGradient>
<radialGradient id="paint54_radial_37_125" cx="0" cy="0" r="1" gradientUnits="userSpaceOnUse" gradientTransform="translate(36.0888 23.2724) rotate(-53.9198) scale(2.4371 2.04276)">
<stop offset="0.664" stop-color="#E3A17B"/>
<stop offset="1" stop-color="#E3A17B" stop-opacity="0"/>
</radialGradient>
<linearGradient id="paint55_linear_37_125" x1="16.3603" y1="23.6841" x2="19.0181" y2="23.4529" gradientUnits="userSpaceOnUse">
<stop stop-color="#C48874"/>
<stop offset="1" stop-color="#BD776C"/>
</linearGradient>
<radialGradient id="paint56_radial_37_125" cx="0" cy="0" r="1" gradientUnits="userSpaceOnUse" gradientTransform="translate(18.0615 23.4537) rotate(-171.68) scale(3.08414 3.032)">
<stop offset="0.775" stop-color="#DCA187" stop-opacity="0"/>
<stop offset="1" stop-color="#DCA187"/>
</radialGradient>
<radialGradient id="paint57_radial_37_125" cx="0" cy="0" r="1" gradientUnits="userSpaceOnUse" gradientTransform="translate(33.048 11.47) rotate(90) scale(7.69922 4.8611)">
<stop stop-color="#FFEE61"/>
<stop offset="1" stop-color="#FFDD44"/>
</radialGradient>
<radialGradient id="paint58_radial_37_125" cx="0" cy="0" r="1" gradientUnits="userSpaceOnUse" gradientTransform="translate(19.9699 16.6388) rotate(-90) scale(27 9.7837)">
<stop offset="0.301" stop-color="#E9B840"/>
<stop offset="1" stop-color="#E9B840" stop-opacity="0"/>
</radialGradient>
<radialGradient id="paint59_radial_37_125" cx="0" cy="0" r="1" gradientUnits="userSpaceOnUse" gradientTransform="translate(29.0925 17.3763) rotate(-80.901) scale(13.672 26.0947)">
<stop offset="0.814" stop-color="#EECD67" stop-opacity="0"/>
<stop offset="0.946" stop-color="#EECD67"/>
</radialGradient>
<radialGradient id="paint60_radial_37_125" cx="0" cy="0" r="1" gradientUnits="userSpaceOnUse" gradientTransform="translate(22.2362 10.9165) rotate(90) scale(11.6016 0.996249)">
<stop offset="0.305" stop-color="#D7A439"/>
<stop offset="1" stop-color="#E1B037" stop-opacity="0"/>
</radialGradient>
<radialGradient id="paint61_radial_37_125" cx="0" cy="0" r="1" gradientUnits="userSpaceOnUse" gradientTransform="translate(22.4471 4.5614) rotate(84.92) scale(7.1472 2.85516)">
<stop offset="0.103" stop-color="#B59741"/>
<stop offset="1" stop-color="#CBA731" stop-opacity="0"/>
</radialGradient>
<radialGradient id="paint62_radial_37_125" cx="0" cy="0" r="1" gradientUnits="userSpaceOnUse" gradientTransform="translate(28.2488 16.3739) rotate(-129.472) scale(13.9362 17.1307)">
<stop offset="0.781" stop-color="#C3A852" stop-opacity="0"/>
<stop offset="1" stop-color="#C3A852"/>
</radialGradient>
<linearGradient id="paint63_linear_37_125" x1="16.4886" y1="15.5825" x2="17.8605" y2="15.5825" gradientUnits="userSpaceOnUse">
<stop stop-color="#CDAC54"/>
<stop offset="1" stop-color="#CDAC54" stop-opacity="0"/>
</linearGradient>
<radialGradient id="paint64_radial_37_125" cx="0" cy="0" r="1" gradientUnits="userSpaceOnUse" gradientTransform="translate(18.4933 17.0337) rotate(-90) scale(1.00195 9.78222)">
<stop offset="0.263" stop-color="#C8A03F"/>
<stop offset="1" stop-color="#C8A03F" stop-opacity="0"/>
</radialGradient>
<linearGradient id="paint65_linear_37_125" x1="26.6793" y1="3.49316" x2="26.6793" y2="17.7154" gradientUnits="userSpaceOnUse">
<stop stop-color="#F9CD2E"/>
<stop offset="1" stop-color="#FFCA3D"/>
</linearGradient>
<linearGradient id="paint66_linear_37_125" x1="26.6793" y1="3.49316" x2="26.6793" y2="7.88404" gradientUnits="userSpaceOnUse">
<stop stop-color="#E7C44C"/>
<stop offset="1" stop-color="#E7C44C" stop-opacity="0"/>
</linearGradient>
<radialGradient id="paint67_radial_37_125" cx="0" cy="0" r="1" gradientUnits="userSpaceOnUse" gradientTransform="translate(22.712 16.6388) rotate(-90) scale(15.293 1.6875)">
<stop stop-color="#E3B438"/>
<stop offset="1" stop-color="#E3B438" stop-opacity="0"/>
</radialGradient>
<radialGradient id="paint68_radial_37_125" cx="0" cy="0" r="1" gradientUnits="userSpaceOnUse" gradientTransform="translate(30.9386 16.7434) rotate(-90) scale(14.8184 2.84766)">
<stop stop-color="#FFE550"/>
<stop offset="1" stop-color="#FFE550" stop-opacity="0"/>
</radialGradient>
<linearGradient id="paint69_linear_37_125" x1="36.7638" y1="18.9726" x2="8.7041" y2="18.9726" gradientUnits="userSpaceOnUse">
<stop stop-color="#FFE24A"/>
<stop offset="1" stop-color="#F0BC33"/>
</linearGradient>
<linearGradient id="paint70_linear_37_125" x1="26.303" y1="16.6084" x2="26.303" y2="17.1383" gradientUnits="userSpaceOnUse">
<stop offset="0.027" stop-color="#FFD131"/>
<stop offset="1" stop-color="#FFD131" stop-opacity="0"/>
</linearGradient>
<linearGradient id="paint71_linear_37_125" x1="27.8522" y1="20.5015" x2="27.8522" y2="18.3871" gradientUnits="userSpaceOnUse">
<stop stop-color="#E1926F"/>
<stop offset="1" stop-color="#F9B14D" stop-opacity="0"/>
</linearGradient>
<radialGradient id="paint72_radial_37_125" cx="0" cy="0" r="1" gradientUnits="userSpaceOnUse" gradientTransform="translate(19.7387 15.0779) rotate(75.7529) scale(3.58701 21.45)">
<stop offset="0.173" stop-color="#C4A966"/>
<stop offset="1" stop-color="#DFB83E" stop-opacity="0"/>
</radialGradient>
</defs>
</svg>
