<svg width="56" height="56" viewBox="0 0 56 56" fill="none" xmlns="http://www.w3.org/2000/svg">
<path d="M29.75 34.3647H26.25V52.0922H29.75V34.3647Z" fill="url(#paint0_linear_37_66)"/>
<path d="M29.75 34.3647H26.25V52.0922H29.75V34.3647Z" fill="url(#paint1_linear_37_66)"/>
<path d="M29.75 34.3647H26.25V52.0922H29.75V34.3647Z" fill="url(#paint2_linear_37_66)"/>
<path d="M29.75 34.3647H26.25V52.0922H29.75V34.3647Z" fill="url(#paint3_linear_37_66)"/>
<path d="M29.75 34.3647H26.25V52.0922H29.75V34.3647Z" fill="url(#paint4_radial_37_66)"/>
<path d="M29.365 50.8671C29.365 46.6671 32.7775 43.2546 36.82 43.2196L41.86 43.2021C42.105 43.2021 42.315 43.4121 42.2975 43.6746C42.0525 48.3296 38.2025 52.0921 33.4775 52.0921H29.855C29.725 52.0921 29.6004 52.0405 29.5085 51.9486C29.4166 51.8567 29.365 51.7321 29.365 51.6021V50.8671Z" fill="url(#paint5_linear_37_66)"/>
<path d="M29.365 50.8671C29.365 46.6671 32.7775 43.2546 36.82 43.2196L41.86 43.2021C42.105 43.2021 42.315 43.4121 42.2975 43.6746C42.0525 48.3296 38.2025 52.0921 33.4775 52.0921H29.855C29.725 52.0921 29.6004 52.0405 29.5085 51.9486C29.4166 51.8567 29.365 51.7321 29.365 51.6021V50.8671Z" fill="url(#paint6_linear_37_66)"/>
<path d="M29.365 50.8671C29.365 46.6671 32.7775 43.2546 36.82 43.2196L41.86 43.2021C42.105 43.2021 42.315 43.4121 42.2975 43.6746C42.0525 48.3296 38.2025 52.0921 33.4775 52.0921H29.855C29.725 52.0921 29.6004 52.0405 29.5085 51.9486C29.4166 51.8567 29.365 51.7321 29.365 51.6021V50.8671Z" fill="url(#paint7_radial_37_66)"/>
<g filter="url(#filter0_f_37_66)">
<path d="M31.045 49.8609C31.045 46.7284 33.7225 44.1839 36.8917 44.1576L40.8467 44.1454C41.0375 44.1454 41.202 44.3029 41.188 44.4971C40.9955 47.9691 37.9767 50.7744 34.2702 50.7744H31.4282C31.3789 50.7758 31.3298 50.7674 31.2837 50.7498C31.2376 50.7321 31.1955 50.7055 31.1597 50.6715C31.1239 50.6376 31.0952 50.5968 31.0752 50.5517C31.0552 50.5066 31.0444 50.458 31.0432 50.4086L31.045 49.8609Z" fill="url(#paint8_linear_37_66)"/>
</g>
<path d="M13.8425 44.4271C13.8425 48.6271 17.255 52.0396 21.2975 52.0746L26.3375 52.0921C26.5825 52.0921 26.7925 51.8821 26.775 51.6196C26.53 46.9646 22.68 43.2021 17.955 43.2021H14.3325C14.2025 43.2021 14.0779 43.2538 13.986 43.3457C13.8941 43.4376 13.8425 43.5622 13.8425 43.6921V44.4271Z" fill="url(#paint9_linear_37_66)"/>
<path d="M13.8425 44.4271C13.8425 48.6271 17.255 52.0396 21.2975 52.0746L26.3375 52.0921C26.5825 52.0921 26.7925 51.8821 26.775 51.6196C26.53 46.9646 22.68 43.2021 17.955 43.2021H14.3325C14.2025 43.2021 14.0779 43.2538 13.986 43.3457C13.8941 43.4376 13.8425 43.5622 13.8425 43.6921V44.4271Z" fill="url(#paint10_linear_37_66)"/>
<path d="M13.8425 44.4271C13.8425 48.6271 17.255 52.0396 21.2975 52.0746L26.3375 52.0921C26.5825 52.0921 26.7925 51.8821 26.775 51.6196C26.53 46.9646 22.68 43.2021 17.955 43.2021H14.3325C14.2025 43.2021 14.0779 43.2538 13.986 43.3457C13.8941 43.4376 13.8425 43.5622 13.8425 43.6921V44.4271Z" fill="url(#paint11_radial_37_66)"/>
<g filter="url(#filter1_f_37_66)">
<path d="M15.3055 45.157C15.3055 48.405 17.9462 51.0457 21.0735 51.072L24.9725 51.086C25.0193 51.0859 25.0656 51.0761 25.1085 51.0574C25.1513 51.0386 25.1899 51.0112 25.2217 50.9769C25.2536 50.9426 25.278 50.9021 25.2935 50.858C25.3091 50.8138 25.3154 50.7669 25.312 50.7202C25.1212 47.1187 22.1445 44.2085 18.487 44.2085H15.687C15.47 44.2085 15.3072 44.3835 15.3072 44.5882L15.3055 45.157Z" fill="url(#paint12_linear_37_66)"/>
</g>
<g filter="url(#filter2_f_37_66)">
<path d="M19.6665 44.5094C21.6895 44.7824 24.9847 47.1571 25.312 50.7219" stroke="url(#paint13_linear_37_66)" stroke-width="0.5" stroke-linecap="round"/>
</g>
<path fill-rule="evenodd" clip-rule="evenodd" d="M41.048 28.6719C40.81 28.3832 40.9745 27.9037 41.3402 27.8232C42.4112 27.5851 43.4208 27.1263 44.3045 26.4761C45.1882 25.8259 45.9266 24.9986 46.4727 24.047C47.0187 23.0954 47.3604 22.0404 47.4759 20.9494C47.5913 19.8584 47.478 18.7552 47.1432 17.7104C46.8084 16.6656 46.2595 15.7021 45.5314 14.8814C44.8034 14.0606 43.9122 13.4007 42.9148 12.9437C41.9174 12.4867 40.8357 12.2426 39.7386 12.2271C38.6416 12.2116 37.5534 12.425 36.5435 12.8537C36.1847 13.0042 35.7525 12.6787 35.7962 12.2937C35.9228 11.1902 35.8149 10.0724 35.4796 9.01352C35.1443 7.95461 34.5892 6.97844 33.8505 6.14889C33.1119 5.31935 32.2065 4.65512 31.1934 4.19968C30.1803 3.74424 29.0825 3.50785 27.9718 3.50599C26.8611 3.50413 25.7625 3.73684 24.7479 4.18888C23.7333 4.64093 22.8257 5.30212 22.0843 6.12919C21.3429 6.95626 20.7845 7.93057 20.4457 8.98835C20.1068 10.0461 19.9952 11.1635 20.118 12.2674C20.1617 12.6489 19.7382 12.9674 19.383 12.8222C18.3776 12.4141 17.2989 12.2178 16.2142 12.2455C15.1295 12.2732 14.0622 12.5244 13.0791 12.9834C12.0959 13.4423 11.2179 14.0991 10.5001 14.9128C9.78224 15.7264 9.23997 16.6794 8.90715 17.7121C8.57433 18.7448 8.45812 19.8351 8.56579 20.9148C8.67346 21.9945 9.00269 23.0403 9.5329 23.987C10.0631 24.9336 10.7829 25.7607 11.6473 26.4166C12.5117 27.0725 13.502 27.543 14.5565 27.7987C14.917 27.8862 15.0745 28.3587 14.8365 28.6439C14.1518 29.4697 13.6426 30.4265 13.3402 31.4557C13.0378 32.485 12.9485 33.5651 13.0778 34.63C13.207 35.695 13.5521 36.7224 14.0919 37.6494C14.6318 38.5764 15.355 39.3836 16.2174 40.0216C17.0798 40.6596 18.0632 41.1151 19.1076 41.3601C20.152 41.605 21.2354 41.6345 22.2916 41.4465C23.3477 41.2585 24.3545 40.8571 25.2502 40.2669C26.146 39.6766 26.9119 38.9098 27.5012 38.0134C27.5496 37.9441 27.614 37.8875 27.689 37.8484C27.7639 37.8093 27.8472 37.7889 27.9317 37.7889C28.0163 37.7889 28.0996 37.8093 28.1745 37.8484C28.2495 37.8875 28.3139 37.9441 28.3622 38.0134C28.9506 38.9089 29.7151 39.6752 30.6093 40.2655C31.5035 40.8558 32.5085 41.2577 33.5632 41.4469C34.6178 41.636 35.6999 41.6083 36.7435 41.3655C37.787 41.1226 38.7702 40.6698 39.633 40.0345C40.4958 39.3993 41.2202 38.5949 41.7619 37.6705C42.3037 36.7461 42.6514 35.721 42.784 34.6578C42.9166 33.5946 42.8312 32.5155 42.533 31.4864C42.2348 30.4572 41.7302 29.4996 41.0497 28.6719" fill="url(#paint14_radial_37_66)"/>
<path fill-rule="evenodd" clip-rule="evenodd" d="M41.048 28.6719C40.81 28.3832 40.9745 27.9037 41.3402 27.8232C42.4112 27.5851 43.4208 27.1263 44.3045 26.4761C45.1882 25.8259 45.9266 24.9986 46.4727 24.047C47.0187 23.0954 47.3604 22.0404 47.4759 20.9494C47.5913 19.8584 47.478 18.7552 47.1432 17.7104C46.8084 16.6656 46.2595 15.7021 45.5314 14.8814C44.8034 14.0606 43.9122 13.4007 42.9148 12.9437C41.9174 12.4867 40.8357 12.2426 39.7386 12.2271C38.6416 12.2116 37.5534 12.425 36.5435 12.8537C36.1847 13.0042 35.7525 12.6787 35.7962 12.2937C35.9228 11.1902 35.8149 10.0724 35.4796 9.01352C35.1443 7.95461 34.5892 6.97844 33.8505 6.14889C33.1119 5.31935 32.2065 4.65512 31.1934 4.19968C30.1803 3.74424 29.0825 3.50785 27.9718 3.50599C26.8611 3.50413 25.7625 3.73684 24.7479 4.18888C23.7333 4.64093 22.8257 5.30212 22.0843 6.12919C21.3429 6.95626 20.7845 7.93057 20.4457 8.98835C20.1068 10.0461 19.9952 11.1635 20.118 12.2674C20.1617 12.6489 19.7382 12.9674 19.383 12.8222C18.3776 12.4141 17.2989 12.2178 16.2142 12.2455C15.1295 12.2732 14.0622 12.5244 13.0791 12.9834C12.0959 13.4423 11.2179 14.0991 10.5001 14.9128C9.78224 15.7264 9.23997 16.6794 8.90715 17.7121C8.57433 18.7448 8.45812 19.8351 8.56579 20.9148C8.67346 21.9945 9.00269 23.0403 9.5329 23.987C10.0631 24.9336 10.7829 25.7607 11.6473 26.4166C12.5117 27.0725 13.502 27.543 14.5565 27.7987C14.917 27.8862 15.0745 28.3587 14.8365 28.6439C14.1518 29.4697 13.6426 30.4265 13.3402 31.4557C13.0378 32.485 12.9485 33.5651 13.0778 34.63C13.207 35.695 13.5521 36.7224 14.0919 37.6494C14.6318 38.5764 15.355 39.3836 16.2174 40.0216C17.0798 40.6596 18.0632 41.1151 19.1076 41.3601C20.152 41.605 21.2354 41.6345 22.2916 41.4465C23.3477 41.2585 24.3545 40.8571 25.2502 40.2669C26.146 39.6766 26.9119 38.9098 27.5012 38.0134C27.5496 37.9441 27.614 37.8875 27.689 37.8484C27.7639 37.8093 27.8472 37.7889 27.9317 37.7889C28.0163 37.7889 28.0996 37.8093 28.1745 37.8484C28.2495 37.8875 28.3139 37.9441 28.3622 38.0134C28.9506 38.9089 29.7151 39.6752 30.6093 40.2655C31.5035 40.8558 32.5085 41.2577 33.5632 41.4469C34.6178 41.636 35.6999 41.6083 36.7435 41.3655C37.787 41.1226 38.7702 40.6698 39.633 40.0345C40.4958 39.3993 41.2202 38.5949 41.7619 37.6705C42.3037 36.7461 42.6514 35.721 42.784 34.6578C42.9166 33.5946 42.8312 32.5155 42.533 31.4864C42.2348 30.4572 41.7302 29.4996 41.0497 28.6719" fill="url(#paint15_radial_37_66)"/>
<path fill-rule="evenodd" clip-rule="evenodd" d="M41.048 28.6719C40.81 28.3832 40.9745 27.9037 41.3402 27.8232C42.4112 27.5851 43.4208 27.1263 44.3045 26.4761C45.1882 25.8259 45.9266 24.9986 46.4727 24.047C47.0187 23.0954 47.3604 22.0404 47.4759 20.9494C47.5913 19.8584 47.478 18.7552 47.1432 17.7104C46.8084 16.6656 46.2595 15.7021 45.5314 14.8814C44.8034 14.0606 43.9122 13.4007 42.9148 12.9437C41.9174 12.4867 40.8357 12.2426 39.7386 12.2271C38.6416 12.2116 37.5534 12.425 36.5435 12.8537C36.1847 13.0042 35.7525 12.6787 35.7962 12.2937C35.9228 11.1902 35.8149 10.0724 35.4796 9.01352C35.1443 7.95461 34.5892 6.97844 33.8505 6.14889C33.1119 5.31935 32.2065 4.65512 31.1934 4.19968C30.1803 3.74424 29.0825 3.50785 27.9718 3.50599C26.8611 3.50413 25.7625 3.73684 24.7479 4.18888C23.7333 4.64093 22.8257 5.30212 22.0843 6.12919C21.3429 6.95626 20.7845 7.93057 20.4457 8.98835C20.1068 10.0461 19.9952 11.1635 20.118 12.2674C20.1617 12.6489 19.7382 12.9674 19.383 12.8222C18.3776 12.4141 17.2989 12.2178 16.2142 12.2455C15.1295 12.2732 14.0622 12.5244 13.0791 12.9834C12.0959 13.4423 11.2179 14.0991 10.5001 14.9128C9.78224 15.7264 9.23997 16.6794 8.90715 17.7121C8.57433 18.7448 8.45812 19.8351 8.56579 20.9148C8.67346 21.9945 9.00269 23.0403 9.5329 23.987C10.0631 24.9336 10.7829 25.7607 11.6473 26.4166C12.5117 27.0725 13.502 27.543 14.5565 27.7987C14.917 27.8862 15.0745 28.3587 14.8365 28.6439C14.1518 29.4697 13.6426 30.4265 13.3402 31.4557C13.0378 32.485 12.9485 33.5651 13.0778 34.63C13.207 35.695 13.5521 36.7224 14.0919 37.6494C14.6318 38.5764 15.355 39.3836 16.2174 40.0216C17.0798 40.6596 18.0632 41.1151 19.1076 41.3601C20.152 41.605 21.2354 41.6345 22.2916 41.4465C23.3477 41.2585 24.3545 40.8571 25.2502 40.2669C26.146 39.6766 26.9119 38.9098 27.5012 38.0134C27.5496 37.9441 27.614 37.8875 27.689 37.8484C27.7639 37.8093 27.8472 37.7889 27.9317 37.7889C28.0163 37.7889 28.0996 37.8093 28.1745 37.8484C28.2495 37.8875 28.3139 37.9441 28.3622 38.0134C28.9506 38.9089 29.7151 39.6752 30.6093 40.2655C31.5035 40.8558 32.5085 41.2577 33.5632 41.4469C34.6178 41.636 35.6999 41.6083 36.7435 41.3655C37.787 41.1226 38.7702 40.6698 39.633 40.0345C40.4958 39.3993 41.2202 38.5949 41.7619 37.6705C42.3037 36.7461 42.6514 35.721 42.784 34.6578C42.9166 33.5946 42.8312 32.5155 42.533 31.4864C42.2348 30.4572 41.7302 29.4996 41.0497 28.6719" fill="url(#paint16_radial_37_66)"/>
<g filter="url(#filter3_f_37_66)">
<path fill-rule="evenodd" clip-rule="evenodd" d="M39.9227 28.1837C39.6882 27.8914 39.8527 27.4119 40.2167 27.3262C41.1812 27.1002 42.0884 26.677 42.8814 26.0833C43.6743 25.4897 44.3358 24.7383 44.8242 23.8765C45.3126 23.0148 45.6174 22.0612 45.7194 21.0759C45.8214 20.0906 45.7183 19.0949 45.4167 18.1514C45.1151 17.2078 44.6215 16.3369 43.967 15.5934C43.3124 14.85 42.5111 14.25 41.6134 13.8313C40.7156 13.4126 39.741 13.1842 38.7507 13.1605C37.7604 13.1368 36.7759 13.3183 35.8592 13.6937C35.4987 13.8389 35.0612 13.5134 35.1015 13.1267C35.2018 12.1298 35.0922 11.1229 34.7798 10.171C34.4673 9.219 33.959 8.34303 33.2874 7.59946C32.6159 6.85588 31.7961 6.26119 30.8808 5.85368C29.9655 5.44617 28.975 5.23488 27.9731 5.23341C26.9712 5.23193 25.98 5.44031 25.0635 5.84513C24.147 6.24995 23.3255 6.84222 22.6518 7.58382C21.9781 8.32541 21.4672 9.19988 21.1519 10.1509C20.8367 11.102 20.7241 12.1085 20.8215 13.1057C20.86 13.4872 20.4347 13.8092 20.076 13.6657C19.1639 13.3087 18.1883 13.1424 17.2094 13.1768C16.2306 13.2112 15.2691 13.4457 14.3843 13.8657C13.4995 14.2858 12.7101 14.8826 12.0646 15.6193C11.4192 16.3561 10.9315 17.2172 10.6314 18.1496C10.3314 19.0819 10.2255 20.0659 10.3201 21.0408C10.4148 22.0157 10.708 22.9608 11.1818 23.8181C11.6556 24.6753 12.2999 25.4265 13.075 26.0253C13.8501 26.6241 14.7396 27.0579 15.6887 27.2999C16.0492 27.3927 16.2085 27.8687 15.974 28.1574C15.3661 28.9106 14.9169 29.779 14.6533 30.7103C14.3898 31.6416 14.3175 32.6167 14.4406 33.5767C14.5638 34.5367 14.8799 35.4619 15.3699 36.2966C15.86 37.1312 16.5139 37.8581 17.2922 38.4335C18.0705 39.0088 18.9572 39.4208 19.8989 39.6445C20.8406 39.8682 21.8178 39.8991 22.7717 39.7352C23.7257 39.5714 24.6366 39.2163 25.4497 38.6912C26.2628 38.1661 26.9612 37.482 27.503 36.6799C27.5526 36.6112 27.6178 36.5553 27.6933 36.5168C27.7687 36.4782 27.8523 36.4581 27.937 36.4581C28.0217 36.4581 28.1052 36.4782 28.1807 36.5168C28.2561 36.5553 28.3214 36.6112 28.371 36.6799C28.911 37.4828 29.6079 38.1682 30.4196 38.6948C31.2314 39.2214 32.1413 39.5784 33.0946 39.7443C34.0478 39.9102 35.0248 39.8815 35.9668 39.66C36.9087 39.4386 37.7961 39.0289 38.5756 38.4556C39.3551 37.8823 40.0106 37.1573 40.5026 36.3241C40.9947 35.491 41.3131 34.5669 41.4388 33.6075C41.5645 32.648 41.4948 31.6731 41.234 30.7413C40.9731 29.8095 40.5265 28.9401 39.921 28.1854" fill="url(#paint17_radial_37_66)"/>
</g>
<g filter="url(#filter4_f_37_66)">
<path d="M27.3945 30.6845C29.1489 30.6845 30.8315 29.9875 32.072 28.747C33.3126 27.5064 34.0095 25.8239 34.0095 24.0695C34.0095 22.3151 33.3126 20.6325 32.072 19.392C30.8315 18.1514 29.1489 17.4545 27.3945 17.4545C25.6401 17.4545 23.9575 18.1514 22.717 19.392C21.4764 20.6325 20.7795 22.3151 20.7795 24.0695C20.7795 25.8239 21.4764 27.5064 22.717 28.747C23.9575 29.9875 25.6401 30.6845 27.3945 30.6845Z" fill="#D2B9DA"/>
</g>
<g filter="url(#filter5_i_37_66)">
<path d="M27.825 30.0247C29.5794 30.0247 31.262 29.3277 32.5025 28.0872C33.7431 26.8466 34.44 25.1641 34.44 23.4097C34.44 21.6553 33.7431 19.9727 32.5025 18.7322C31.262 17.4916 29.5794 16.7947 27.825 16.7947C26.0706 16.7947 24.388 17.4916 23.1475 18.7322C21.9069 19.9727 21.21 21.6553 21.21 23.4097C21.21 25.1641 21.9069 26.8466 23.1475 28.0872C24.388 29.3277 26.0706 30.0247 27.825 30.0247Z" fill="url(#paint18_radial_37_66)"/>
<path d="M27.825 30.0247C29.5794 30.0247 31.262 29.3277 32.5025 28.0872C33.7431 26.8466 34.44 25.1641 34.44 23.4097C34.44 21.6553 33.7431 19.9727 32.5025 18.7322C31.262 17.4916 29.5794 16.7947 27.825 16.7947C26.0706 16.7947 24.388 17.4916 23.1475 18.7322C21.9069 19.9727 21.21 21.6553 21.21 23.4097C21.21 25.1641 21.9069 26.8466 23.1475 28.0872C24.388 29.3277 26.0706 30.0247 27.825 30.0247Z" fill="url(#paint19_radial_37_66)"/>
</g>
<g filter="url(#filter6_f_37_66)">
<path d="M27.7777 4.7302C28.6177 4.5657 30.7965 4.7197 32.809 6.6447C34.8215 8.5697 34.8145 11.6024 34.559 12.8782" stroke="url(#paint20_radial_37_66)" stroke-width="0.4" stroke-linecap="round"/>
</g>
<g filter="url(#filter7_f_37_66)">
<path d="M38.059 13.2072C39.6445 13.062 43.2652 13.3927 45.059 15.8865C47.3007 19.0032 46.6445 22.1217 45.059 24.0345" stroke="url(#paint21_radial_37_66)" stroke-width="0.4" stroke-linecap="round"/>
</g>
<g filter="url(#filter8_f_37_66)">
<path d="M40.0277 28.7384C41.5047 30.2697 43.0902 35.9572 38.661 39.0739" stroke="url(#paint22_radial_37_66)" stroke-width="0.4" stroke-linecap="round"/>
</g>
<g filter="url(#filter9_f_37_66)">
<path d="M24.4422 39.0197C25.207 38.7275 27.1442 37.674 27.6692 35.7927" stroke="url(#paint23_radial_37_66)" stroke-width="0.4" stroke-linecap="round"/>
</g>
<g filter="url(#filter10_f_37_66)">
<path d="M17.2235 13.5905C18.172 13.5905 20.5695 14.0052 22.582 15.6677" stroke="url(#paint24_radial_37_66)" stroke-width="0.4" stroke-linecap="round"/>
</g>
<defs>
<filter id="filter0_f_37_66" x="30.4432" y="43.5454" width="11.3456" height="7.82915" filterUnits="userSpaceOnUse" color-interpolation-filters="sRGB">
<feFlood flood-opacity="0" result="BackgroundImageFix"/>
<feBlend mode="normal" in="SourceGraphic" in2="BackgroundImageFix" result="shape"/>
<feGaussianBlur stdDeviation="0.3" result="effect1_foregroundBlur_37_66"/>
</filter>
<filter id="filter1_f_37_66" x="14.5555" y="43.4585" width="11.5074" height="8.37744" filterUnits="userSpaceOnUse" color-interpolation-filters="sRGB">
<feFlood flood-opacity="0" result="BackgroundImageFix"/>
<feBlend mode="normal" in="SourceGraphic" in2="BackgroundImageFix" result="shape"/>
<feGaussianBlur stdDeviation="0.375" result="effect1_foregroundBlur_37_66"/>
</filter>
<filter id="filter2_f_37_66" x="18.9165" y="43.7594" width="7.14555" height="7.71252" filterUnits="userSpaceOnUse" color-interpolation-filters="sRGB">
<feFlood flood-opacity="0" result="BackgroundImageFix"/>
<feBlend mode="normal" in="SourceGraphic" in2="BackgroundImageFix" result="shape"/>
<feGaussianBlur stdDeviation="0.25" result="effect1_foregroundBlur_37_66"/>
</filter>
<filter id="filter3_f_37_66" x="9.28653" y="4.2334" width="37.471" height="36.6171" filterUnits="userSpaceOnUse" color-interpolation-filters="sRGB">
<feFlood flood-opacity="0" result="BackgroundImageFix"/>
<feBlend mode="normal" in="SourceGraphic" in2="BackgroundImageFix" result="shape"/>
<feGaussianBlur stdDeviation="0.5" result="effect1_foregroundBlur_37_66"/>
</filter>
<filter id="filter4_f_37_66" x="19.7795" y="16.4545" width="15.23" height="15.23" filterUnits="userSpaceOnUse" color-interpolation-filters="sRGB">
<feFlood flood-opacity="0" result="BackgroundImageFix"/>
<feBlend mode="normal" in="SourceGraphic" in2="BackgroundImageFix" result="shape"/>
<feGaussianBlur stdDeviation="0.5" result="effect1_foregroundBlur_37_66"/>
</filter>
<filter id="filter5_i_37_66" x="21.21" y="16.7947" width="13.23" height="13.23" filterUnits="userSpaceOnUse" color-interpolation-filters="sRGB">
<feFlood flood-opacity="0" result="BackgroundImageFix"/>
<feBlend mode="normal" in="SourceGraphic" in2="BackgroundImageFix" result="shape"/>
<feColorMatrix in="SourceAlpha" type="matrix" values="0 0 0 0 0 0 0 0 0 0 0 0 0 0 0 0 0 0 127 0" result="hardAlpha"/>
<feOffset/>
<feGaussianBlur stdDeviation="0.25"/>
<feComposite in2="hardAlpha" operator="arithmetic" k2="-1" k3="1"/>
<feColorMatrix type="matrix" values="0 0 0 0 0.841667 0 0 0 0 0.504112 0 0 0 0 0.199896 0 0 0 1 0"/>
<feBlend mode="normal" in2="shape" result="effect1_innerShadow_37_66"/>
</filter>
<filter id="filter6_f_37_66" x="26.9777" y="3.88083" width="8.4991" height="9.79741" filterUnits="userSpaceOnUse" color-interpolation-filters="sRGB">
<feFlood flood-opacity="0" result="BackgroundImageFix"/>
<feBlend mode="normal" in="SourceGraphic" in2="BackgroundImageFix" result="shape"/>
<feGaussianBlur stdDeviation="0.3" result="effect1_foregroundBlur_37_66"/>
</filter>
<filter id="filter7_f_37_66" x="37.259" y="12.3784" width="10.0457" height="12.4561" filterUnits="userSpaceOnUse" color-interpolation-filters="sRGB">
<feFlood flood-opacity="0" result="BackgroundImageFix"/>
<feBlend mode="normal" in="SourceGraphic" in2="BackgroundImageFix" result="shape"/>
<feGaussianBlur stdDeviation="0.3" result="effect1_foregroundBlur_37_66"/>
</filter>
<filter id="filter8_f_37_66" x="37.861" y="27.9385" width="4.49898" height="11.9355" filterUnits="userSpaceOnUse" color-interpolation-filters="sRGB">
<feFlood flood-opacity="0" result="BackgroundImageFix"/>
<feBlend mode="normal" in="SourceGraphic" in2="BackgroundImageFix" result="shape"/>
<feGaussianBlur stdDeviation="0.3" result="effect1_foregroundBlur_37_66"/>
</filter>
<filter id="filter9_f_37_66" x="23.6422" y="34.9927" width="4.82711" height="4.82708" filterUnits="userSpaceOnUse" color-interpolation-filters="sRGB">
<feFlood flood-opacity="0" result="BackgroundImageFix"/>
<feBlend mode="normal" in="SourceGraphic" in2="BackgroundImageFix" result="shape"/>
<feGaussianBlur stdDeviation="0.3" result="effect1_foregroundBlur_37_66"/>
</filter>
<filter id="filter10_f_37_66" x="16.4235" y="12.7905" width="6.9585" height="3.67717" filterUnits="userSpaceOnUse" color-interpolation-filters="sRGB">
<feFlood flood-opacity="0" result="BackgroundImageFix"/>
<feBlend mode="normal" in="SourceGraphic" in2="BackgroundImageFix" result="shape"/>
<feGaussianBlur stdDeviation="0.3" result="effect1_foregroundBlur_37_66"/>
</filter>
<linearGradient id="paint0_linear_37_66" x1="28.0035" y1="52.101" x2="28.0035" y2="35.5127" gradientUnits="userSpaceOnUse">
<stop stop-color="#5DA112"/>
<stop offset="1" stop-color="#74A93F"/>
</linearGradient>
<linearGradient id="paint1_linear_37_66" x1="26.0365" y1="48.8285" x2="27.1302" y2="48.7462" gradientUnits="userSpaceOnUse">
<stop stop-color="#51923C"/>
<stop offset="1" stop-color="#51923C" stop-opacity="0"/>
</linearGradient>
<linearGradient id="paint2_linear_37_66" x1="29.75" y1="48.9107" x2="28.8802" y2="48.9107" gradientUnits="userSpaceOnUse">
<stop stop-color="#51923C"/>
<stop offset="1" stop-color="#51923C" stop-opacity="0"/>
</linearGradient>
<linearGradient id="paint3_linear_37_66" x1="26.0907" y1="41.2002" x2="26.8572" y2="41.2282" gradientUnits="userSpaceOnUse">
<stop stop-color="#8FB87F"/>
<stop offset="1" stop-color="#8FB87F" stop-opacity="0"/>
</linearGradient>
<radialGradient id="paint4_radial_37_66" cx="0" cy="0" r="1" gradientUnits="userSpaceOnUse" gradientTransform="translate(28.3622 47.11) rotate(90) scale(6.34375 0.820312)">
<stop stop-color="#83B15D"/>
<stop offset="1" stop-color="#83B15D" stop-opacity="0"/>
</radialGradient>
<linearGradient id="paint5_linear_37_66" x1="31.2095" y1="52.0921" x2="43.7657" y2="43.7271" gradientUnits="userSpaceOnUse">
<stop stop-color="#528C39"/>
<stop offset="1" stop-color="#81BD52"/>
</linearGradient>
<linearGradient id="paint6_linear_37_66" x1="33.7242" y1="52.6836" x2="33.7242" y2="50.2231" gradientUnits="userSpaceOnUse">
<stop stop-color="#6A806E"/>
<stop offset="1" stop-color="#6A806E" stop-opacity="0"/>
</linearGradient>
<radialGradient id="paint7_radial_37_66" cx="0" cy="0" r="1" gradientUnits="userSpaceOnUse" gradientTransform="translate(41.9825 43.5784) rotate(133.898) scale(2.01121 0.426413)">
<stop stop-color="#9DD271"/>
<stop offset="1" stop-color="#9DD271" stop-opacity="0"/>
</radialGradient>
<linearGradient id="paint8_linear_37_66" x1="39.7932" y1="44.1454" x2="32.956" y2="49.8049" gradientUnits="userSpaceOnUse">
<stop stop-color="#87BE58"/>
<stop offset="1" stop-color="#7BA561"/>
</linearGradient>
<linearGradient id="paint9_linear_37_66" x1="21.784" y1="43.2021" x2="14.4025" y2="53.1964" gradientUnits="userSpaceOnUse">
<stop offset="0.011" stop-color="#629B53"/>
<stop offset="1" stop-color="#4D9055"/>
</linearGradient>
<linearGradient id="paint10_linear_37_66" x1="24.1902" y1="52.8131" x2="24.1902" y2="49.3674" gradientUnits="userSpaceOnUse">
<stop stop-color="#6F7E82"/>
<stop offset="1" stop-color="#6F7E82" stop-opacity="0"/>
</linearGradient>
<radialGradient id="paint11_radial_37_66" cx="0" cy="0" r="1" gradientUnits="userSpaceOnUse" gradientTransform="translate(22.1543 43.8813) rotate(158.54) scale(8.52038 11.6054)">
<stop offset="0.841" stop-color="#92B196" stop-opacity="0"/>
<stop offset="1" stop-color="#92B196"/>
</radialGradient>
<linearGradient id="paint12_linear_37_66" x1="25.312" y1="50.2425" x2="16.0965" y2="44.3642" gradientUnits="userSpaceOnUse">
<stop stop-color="#6FA06A"/>
<stop offset="1" stop-color="#619A6A"/>
</linearGradient>
<linearGradient id="paint13_linear_37_66" x1="25.312" y1="47.3864" x2="16.9172" y2="42.5739" gradientUnits="userSpaceOnUse">
<stop stop-color="#86AD7A"/>
<stop offset="1" stop-color="#86AD7A" stop-opacity="0"/>
</linearGradient>
<radialGradient id="paint14_radial_37_66" cx="0" cy="0" r="1" gradientUnits="userSpaceOnUse" gradientTransform="translate(16.4571 9.48851) rotate(61.675) scale(35.039 49.1379)">
<stop stop-color="#BBB5C2"/>
<stop offset="0.965" stop-color="#D7C0EF"/>
</radialGradient>
<radialGradient id="paint15_radial_37_66" cx="0" cy="0" r="1" gradientUnits="userSpaceOnUse" gradientTransform="translate(36.281 12.2762) rotate(116.017) scale(5.11175 0.989634)">
<stop stop-color="#E8DEF1"/>
<stop offset="1" stop-color="#E8DEF1" stop-opacity="0"/>
</radialGradient>
<radialGradient id="paint16_radial_37_66" cx="0" cy="0" r="1" gradientUnits="userSpaceOnUse" gradientTransform="translate(41.9407 28.7384) rotate(-148.213) scale(4.56795 1.19355)">
<stop stop-color="#E8DEF1"/>
<stop offset="1" stop-color="#E8DEF1" stop-opacity="0"/>
</radialGradient>
<radialGradient id="paint17_radial_37_66" cx="0" cy="0" r="1" gradientUnits="userSpaceOnUse" gradientTransform="translate(28 28.2764) rotate(-90) scale(27.3198 38.3126)">
<stop stop-color="#E7D4F9"/>
<stop offset="1" stop-color="#D0C3DC"/>
</radialGradient>
<radialGradient id="paint18_radial_37_66" cx="0" cy="0" r="1" gradientUnits="userSpaceOnUse" gradientTransform="translate(31.1146 21.849) rotate(137.161) scale(8.20386 6.52696)">
<stop stop-color="#FFBA5F"/>
<stop offset="0.814" stop-color="#FC8F39"/>
</radialGradient>
<radialGradient id="paint19_radial_37_66" cx="0" cy="0" r="1" gradientUnits="userSpaceOnUse" gradientTransform="translate(24.332 29.2844) rotate(-55.4422) scale(7.13436 12.2726)">
<stop stop-color="#EC6F51"/>
<stop offset="1" stop-color="#EC6F51" stop-opacity="0"/>
</radialGradient>
<radialGradient id="paint20_radial_37_66" cx="0" cy="0" r="1" gradientUnits="userSpaceOnUse" gradientTransform="translate(33.7925 6.26145) rotate(135) scale(5.33645 6.18718)">
<stop stop-color="#E9E2F0"/>
<stop offset="1" stop-color="#E9E2F0" stop-opacity="0"/>
</radialGradient>
<radialGradient id="paint21_radial_37_66" cx="0" cy="0" r="1" gradientUnits="userSpaceOnUse" gradientTransform="translate(44.8402 16.1052) rotate(139.185) scale(4.76911 10.3749)">
<stop stop-color="#E9E2F0"/>
<stop offset="1" stop-color="#E9E2F0" stop-opacity="0"/>
</radialGradient>
<radialGradient id="paint22_radial_37_66" cx="0" cy="0" r="1" gradientUnits="userSpaceOnUse" gradientTransform="translate(41.554 29.9949) rotate(101.415) scale(7.97813 3.24215)">
<stop stop-color="#E9E2F0"/>
<stop offset="1" stop-color="#E9E2F0" stop-opacity="0"/>
</radialGradient>
<radialGradient id="paint23_radial_37_66" cx="0" cy="0" r="1" gradientUnits="userSpaceOnUse" gradientTransform="translate(27.0152 36.414) rotate(149.201) scale(3.69814 4.27263)">
<stop stop-color="#E9E2F0"/>
<stop offset="1" stop-color="#E9E2F0" stop-opacity="0"/>
</radialGradient>
<radialGradient id="paint24_radial_37_66" cx="0" cy="0" r="1" gradientUnits="userSpaceOnUse" gradientTransform="translate(17.6611 13.3165) rotate(26.796) scale(6.06538 4.14792)">
<stop stop-color="#E9E2F0"/>
<stop offset="1" stop-color="#E9E2F0" stop-opacity="0"/>
</radialGradient>
</defs>
</svg>
